<svg width="153" height="40" viewBox="0 0 153 40" fill="none" xmlns="http://www.w3.org/2000/svg">
<rect x="1" y="1" width="151" height="38" rx="12" fill="#41C984" fill-opacity="0.1"/>
<rect x="1" y="1" width="151" height="38" rx="12" stroke="#41C984"/>
<path d="M42.728 25.64H42.672C40.824 25.64 39.536 24.632 39.536 22.224V19.228C39.536 16.82 40.824 15.812 42.672 15.812H42.728C44.604 15.812 45.864 16.834 45.864 19.214H44.828C44.828 17.394 44.1 16.764 42.728 16.764H42.672C41.286 16.764 40.572 17.394 40.572 19.2V22.224C40.572 24.058 41.286 24.688 42.672 24.688H42.728C44.1 24.688 44.828 24.058 44.828 22.224H45.864C45.864 24.618 44.604 25.64 42.728 25.64ZM51.1365 25.64H51.0665C49.2885 25.64 48.0985 24.632 48.0985 22.406V21.762C48.0985 19.522 49.3025 18.528 51.0665 18.528H51.1365C52.9145 18.528 54.1045 19.536 54.1045 21.762V22.406C54.1045 24.646 52.9005 25.64 51.1365 25.64ZM51.0665 24.702H51.1365C52.3265 24.702 53.0825 24.072 53.0825 22.406V21.762C53.0825 20.096 52.3265 19.466 51.1365 19.466H51.0665C49.8765 19.466 49.1205 20.096 49.1205 21.762V22.406C49.1205 24.072 49.8765 24.702 51.0665 24.702ZM56.9551 25.5H55.9751V18.668H56.9551V19.62H57.0811C57.2491 18.976 57.7251 18.528 58.4531 18.528H58.5091C59.1951 18.528 59.7131 18.948 59.8951 19.62H60.0071C60.2311 18.976 60.7211 18.528 61.4631 18.528H61.5191C62.4011 18.528 63.0171 19.2 63.0171 20.334V25.5H62.0371V20.558C62.0371 19.732 61.7011 19.452 61.1971 19.452H61.1411C60.5951 19.452 59.9791 19.746 59.9791 20.866V25.5H58.9991V20.558C58.9991 19.732 58.6631 19.452 58.1731 19.452H58.1171C57.5571 19.452 56.9551 19.746 56.9551 20.866V25.5ZM68.3036 25.64H68.2616C67.2256 25.64 66.5256 25.094 66.1896 24.338H66.0496V28.216H65.0276V18.668H66.0636V19.788H66.2036C66.5396 19.06 67.2536 18.528 68.2896 18.528H68.3456C69.7736 18.528 70.8936 19.536 70.8936 21.748V22.406C70.8936 24.618 69.7736 25.64 68.3036 25.64ZM67.9956 24.674H68.0516C69.1016 24.674 69.8576 24.058 69.8576 22.35V21.776C69.8576 20.082 69.1016 19.494 68.0516 19.494H67.9956C66.9736 19.494 66.0636 20.11 66.0636 21.776V22.35C66.0636 24.086 66.9736 24.674 67.9956 24.674ZM76.7401 24.562H79.4141V25.5H76.9501C75.9001 25.5 75.3401 24.814 75.3401 23.806V16.358H72.7361V15.42H76.3761V24.17C76.3761 24.45 76.5021 24.562 76.7401 24.562ZM87.6827 21.762V22.35H82.6987V22.406C82.6987 24.072 83.4547 24.702 84.6447 24.702H84.7147C85.5967 24.702 86.2547 24.366 86.5487 23.554H87.5707C87.2067 24.982 86.1287 25.64 84.7147 25.64H84.6447C82.8667 25.64 81.6767 24.632 81.6767 22.406V21.762C81.6767 19.522 82.8807 18.528 84.6447 18.528H84.7147C86.4927 18.528 87.6827 19.536 87.6827 21.762ZM84.7147 19.466H84.6447C83.5107 19.466 82.7687 20.04 82.6987 21.524H86.6607C86.5907 20.04 85.8487 19.466 84.7147 19.466ZM96.0772 18.668V19.606H92.8152V24.17C92.8152 24.45 92.9412 24.562 93.1652 24.562H96.0772V25.5H93.3892C92.3392 25.5 91.7792 24.814 91.7792 23.806V19.606H89.4552V18.668H91.7792V17.002L92.8152 16.918V18.668H96.0772ZM104.472 21.762V22.35H99.4877V22.406C99.4877 24.072 100.244 24.702 101.434 24.702H101.504C102.386 24.702 103.044 24.366 103.338 23.554H104.36C103.996 24.982 102.918 25.64 101.504 25.64H101.434C99.6557 25.64 98.4657 24.632 98.4657 22.406V21.762C98.4657 19.522 99.6697 18.528 101.434 18.528H101.504C103.282 18.528 104.472 19.536 104.472 21.762ZM101.504 19.466H101.434C100.3 19.466 99.5577 20.04 99.4877 21.524H103.45C103.38 20.04 102.638 19.466 101.504 19.466ZM109.478 25.64H109.436C107.966 25.64 106.846 24.618 106.846 22.406V21.748C106.846 19.536 107.966 18.528 109.394 18.528H109.45C110.486 18.528 111.2 19.06 111.536 19.788H111.676V15.42H112.712V25.5H111.69V24.338H111.55C111.214 25.094 110.514 25.64 109.478 25.64ZM109.688 24.674H109.744C110.766 24.674 111.676 24.086 111.676 22.35V21.776C111.676 20.11 110.766 19.494 109.744 19.494H109.688C108.638 19.494 107.882 20.082 107.882 21.776V22.35C107.882 24.058 108.638 24.674 109.688 24.674Z" fill="#41C984"/>
</svg>
