<svg width="24" height="24" viewBox="0 0 24 24" fill="none" xmlns="http://www.w3.org/2000/svg">
<rect opacity="0.01" width="24" height="24" fill="#F7F7F7"/>
<path d="M11.25 11.8304L3 8.36035V16.0904C3.00888 16.7485 3.3991 17.3417 4 17.6104L11.19 21.0004H11.25V11.8304Z" fill="#F7F7F7"/>
<path d="M12 10.4998L20.51 6.92976C20.3668 6.77064 20.1934 6.64149 20 6.54976L12.8 3.17976C12.2936 2.94008 11.7064 2.94008 11.2 3.17976L3.99999 6.54976C3.80655 6.64149 3.63321 6.77064 3.48999 6.92976L12 10.4998Z" fill="#F7F7F7"/>
<path d="M12.75 11.8304V21.0004H12.8L20 17.6104C20.5977 17.3432 20.9873 16.7549 21 16.1004V8.36035L12.75 11.8304Z" fill="#F7F7F7"/>
</svg>
