<svg width="24" height="24" viewBox="0 0 24 24" fill="none" xmlns="http://www.w3.org/2000/svg">
<path d="M13.8869 10.5435C13.7201 10.3767 13.4939 10.283 13.258 10.283C13.0221 10.283 12.7958 10.3767 12.629 10.5435L12 11.1716C11.6644 11.4957 11.215 11.675 10.7485 11.671C10.2819 11.6669 9.83566 11.4798 9.50577 11.1499C9.17588 10.82 8.98875 10.3737 8.9847 9.90721C8.98064 9.44069 9.15998 8.99123 9.4841 8.65566L14.4928 3.64518C15.6786 3.37546 16.9193 3.48647 18.0384 3.9624C19.1575 4.43834 20.0981 5.25499 20.7264 6.29622C21.3547 7.33746 21.6388 8.55027 21.5382 9.76222C21.4376 10.9742 20.9574 12.1236 20.1661 13.0469L18.2907 14.9463L13.8869 10.5435ZM4.13644 5.19494C5.05676 4.27407 6.2609 3.69071 7.55398 3.53927C8.84706 3.38782 10.1534 3.67716 11.2616 4.36045L8.22525 7.3977C7.56762 8.05401 7.19276 8.9415 7.18075 9.87052C7.16875 10.7995 7.52055 11.6964 8.161 12.3695C8.80145 13.0426 9.67974 13.4385 10.6082 13.4727C11.5367 13.5068 12.4417 13.1765 13.1299 12.5523L13.258 12.4304L17.0327 16.2043L13.258 19.979C12.9243 20.3126 12.4718 20.5 12 20.5C11.5282 20.5 11.0757 20.3126 10.7421 19.979L4.13555 13.3726C3.0512 12.2881 2.44202 10.8173 2.44202 9.28374C2.44202 7.75017 3.05208 6.27939 4.13644 5.19494Z" fill="#FFA300"/>
</svg>
