<svg width="240" height="40" viewBox="0 0 240 40" fill="none" xmlns="http://www.w3.org/2000/svg">
<rect opacity="0.01" x="24" y="8" width="24" height="24" fill="#FFA300"/>
<path d="M33 11H29C27.8954 11 27 11.8954 27 13V17C27 18.1046 27.8954 19 29 19H33C34.1046 19 35 18.1046 35 17V13C35 11.8954 34.1046 11 33 11Z" fill="#FFA300"/>
<path d="M43 11H39C37.8954 11 37 11.8954 37 13V17C37 18.1046 37.8954 19 39 19H43C44.1046 19 45 18.1046 45 17V13C45 11.8954 44.1046 11 43 11Z" fill="#FFA300"/>
<path d="M33 21H29C27.8954 21 27 21.8954 27 23V27C27 28.1046 27.8954 29 29 29H33C34.1046 29 35 28.1046 35 27V23C35 21.8954 34.1046 21 33 21Z" fill="#FFA300"/>
<path d="M43 21H39C37.8954 21 37 21.8954 37 23V27C37 28.1046 37.8954 29 39 29H43C44.1046 29 45 28.1046 45 27V23C45 21.8954 44.1046 21 43 21Z" fill="#FFA300"/>
<path d="M73.05 15.952H76.242C78.146 15.952 79.49 17.114 79.49 19.452V22C79.49 24.338 78.146 25.5 76.242 25.5H73.05V15.952ZM77.936 22V19.452C77.936 17.856 77.404 17.394 76.242 17.394H74.604V24.058H76.242C77.404 24.058 77.936 23.582 77.936 22ZM87.1985 21.202V24.128H88.3745V25.5H85.8545L85.7425 24.282H85.5745C85.2665 24.954 84.5525 25.64 83.3345 25.64H83.2785C82.0605 25.64 81.2205 24.842 81.2205 23.666V23.61C81.2205 22.448 82.0325 21.818 83.6705 21.65L85.7145 21.426V21.216C85.7145 20.096 85.2805 19.704 84.4685 19.704H84.4125C83.6985 19.704 83.0965 19.97 83.0125 20.992H81.4445C81.6265 19.144 82.8445 18.346 84.4685 18.346H84.5105C86.2745 18.346 87.1985 19.284 87.1985 21.202ZM83.6145 24.352H83.6705C84.6505 24.352 85.6865 23.666 85.7145 22.49L83.9085 22.686C82.9705 22.784 82.6905 23.106 82.6905 23.568V23.61C82.6905 24.086 83.0265 24.352 83.6145 24.352ZM93.1291 25.64H93.0871C91.1411 25.64 89.9791 24.828 89.9231 23.162H91.4351C91.4491 24.016 91.8271 24.38 93.0731 24.38H93.1151C94.1371 24.38 94.5851 24.072 94.5851 23.526C94.5851 22.854 93.8291 22.714 92.8771 22.532C91.5611 22.266 90.0491 21.93 90.0491 20.432C90.0491 19.144 91.0571 18.346 92.8351 18.346H92.8771C94.7671 18.346 95.8031 19.186 95.8731 20.782H94.3471C94.3191 19.956 93.9411 19.606 92.8911 19.606H92.8491C91.8411 19.606 91.5331 19.97 91.5331 20.404C91.5331 21.02 92.2611 21.188 93.1711 21.356C94.5011 21.608 96.0551 21.902 96.0551 23.484C96.0551 24.814 94.9771 25.64 93.1291 25.64ZM99.9136 25.5H98.3596V15.42H99.9136V19.522H100.068C100.39 18.794 101.062 18.346 102.028 18.346H102.084C103.47 18.346 104.408 19.312 104.408 21.076V25.5H102.854V21.202C102.854 20.194 102.35 19.788 101.594 19.788H101.538C100.474 19.788 99.9136 20.46 99.9136 21.496V25.5ZM110.422 25.64H110.394C109.344 25.64 108.728 25.094 108.42 24.38H108.266V25.5H106.754V15.42H108.308V19.522H108.462C108.784 18.85 109.386 18.346 110.422 18.346H110.464C111.962 18.346 112.914 19.564 112.914 21.622V22.406C112.914 24.478 112.004 25.64 110.422 25.64ZM109.862 24.198H109.918C110.898 24.198 111.374 23.54 111.374 22.308V21.678C111.374 20.446 110.898 19.788 109.918 19.788H109.862C108.84 19.788 108.308 20.46 108.308 21.678V22.308C108.308 23.554 108.84 24.198 109.862 24.198ZM118.215 25.64H118.131C116.325 25.64 115.037 24.576 115.037 22.392V21.608C115.037 19.424 116.325 18.346 118.131 18.346H118.215C120.021 18.346 121.309 19.424 121.309 21.608V22.392C121.309 24.576 120.021 25.64 118.215 25.64ZM118.131 24.268H118.215C119.223 24.268 119.811 23.806 119.811 22.392V21.608C119.811 20.18 119.223 19.732 118.215 19.732H118.131C117.123 19.732 116.549 20.18 116.549 21.608V22.392C116.549 23.806 117.123 24.268 118.131 24.268ZM129.171 21.202V24.128H130.347V25.5H127.827L127.715 24.282H127.547C127.239 24.954 126.525 25.64 125.307 25.64H125.251C124.033 25.64 123.193 24.842 123.193 23.666V23.61C123.193 22.448 124.005 21.818 125.643 21.65L127.687 21.426V21.216C127.687 20.096 127.253 19.704 126.441 19.704H126.385C125.671 19.704 125.069 19.97 124.985 20.992H123.417C123.599 19.144 124.817 18.346 126.441 18.346H126.483C128.247 18.346 129.171 19.284 129.171 21.202ZM125.587 24.352H125.643C126.623 24.352 127.659 23.666 127.687 22.49L125.881 22.686C124.943 22.784 124.663 23.106 124.663 23.568V23.61C124.663 24.086 124.999 24.352 125.587 24.352ZM138.42 19.872H136.796C135.326 19.872 135.004 20.698 135.004 21.524V24.128H137.496V25.5H131.812V24.128H133.52V19.872H131.812V18.486H134.878L135.004 19.718H135.172C135.466 18.892 135.998 18.486 137.02 18.486H138.42V19.872ZM142.74 25.64H142.712C141.13 25.64 140.22 24.478 140.22 22.406V21.622C140.22 19.564 141.172 18.346 142.67 18.346H142.712C143.748 18.346 144.35 18.85 144.672 19.522H144.826V15.42H146.38V25.5H144.868V24.38H144.714C144.406 25.094 143.79 25.64 142.74 25.64ZM143.216 24.198H143.272C144.294 24.198 144.826 23.554 144.826 22.308V21.678C144.826 20.46 144.294 19.788 143.272 19.788H143.216C142.236 19.788 141.76 20.446 141.76 21.678V22.308C141.76 23.54 142.236 24.198 143.216 24.198Z" fill="#FFA300"/>
<rect width="3" height="40" fill="#FFA300"/>
</svg>
