<svg width="240" height="40" viewBox="0 0 240 40" fill="none" xmlns="http://www.w3.org/2000/svg">
<rect opacity="0.01" x="24" y="8" width="24" height="24" fill="#CBCBCB"/>
<path d="M33 11H29C27.8954 11 27 11.8954 27 13V17C27 18.1046 27.8954 19 29 19H33C34.1046 19 35 18.1046 35 17V13C35 11.8954 34.1046 11 33 11Z" fill="#CBCBCB"/>
<path d="M43 11H39C37.8954 11 37 11.8954 37 13V17C37 18.1046 37.8954 19 39 19H43C44.1046 19 45 18.1046 45 17V13C45 11.8954 44.1046 11 43 11Z" fill="#CBCBCB"/>
<path d="M33 21H29C27.8954 21 27 21.8954 27 23V27C27 28.1046 27.8954 29 29 29H33C34.1046 29 35 28.1046 35 27V23C35 21.8954 34.1046 21 33 21Z" fill="#CBCBCB"/>
<path d="M43 21H39C37.8954 21 37 21.8954 37 23V27C37 28.1046 37.8954 29 39 29H43C44.1046 29 45 28.1046 45 27V23C45 21.8954 44.1046 21 43 21Z" fill="#CBCBCB"/>
<path d="M73.176 15.952H76.228C78.09 15.952 79.364 16.974 79.364 19.368V22.084C79.364 24.478 78.09 25.5 76.228 25.5H73.176V15.952ZM78.328 22.084V19.368C78.328 17.548 77.6 16.918 76.228 16.918H74.212V24.534H76.228C77.6 24.534 78.328 23.904 78.328 22.084ZM87.0725 21.272V24.562H88.2905V25.5H86.1625L86.0785 24.128H85.9245C85.6025 24.856 84.7345 25.64 83.3905 25.64H83.3345C82.3825 25.64 81.3465 25.108 81.3465 23.848V23.764C81.3465 22.588 82.2705 22.056 83.8525 21.86L86.0645 21.58V21.23C86.0645 20.068 85.6165 19.452 84.4545 19.452H84.3985C83.3625 19.452 82.7605 19.942 82.6485 21.034H81.5705C81.7245 19.41 82.7745 18.528 84.4405 18.528H84.4685C86.3165 18.528 87.0725 19.522 87.0725 21.272ZM83.4885 24.73H83.5445C84.6925 24.73 86.0645 24.03 86.0645 22.42V22.392L83.9925 22.644C82.8305 22.784 82.3545 23.092 82.3545 23.736V23.82C82.3545 24.394 82.7885 24.73 83.4885 24.73ZM93.1431 25.64H93.0731C91.0991 25.64 90.1051 24.758 90.0491 23.246H91.0711C91.1131 24.184 91.5611 24.744 93.0731 24.744H93.1431C94.4731 24.744 94.9351 24.296 94.9351 23.638C94.9351 22.812 94.0811 22.644 92.9611 22.42C91.5891 22.14 90.2311 21.86 90.2311 20.446C90.2311 19.298 91.1831 18.528 92.8351 18.528H92.9051C94.7111 18.528 95.6911 19.382 95.7471 20.866H94.7251C94.6831 19.956 94.2351 19.41 92.9191 19.41H92.8351C91.7011 19.41 91.2251 19.844 91.2251 20.432C91.2251 21.216 92.0371 21.384 93.1431 21.594C94.5291 21.86 95.9291 22.14 95.9291 23.624C95.9291 24.884 94.8651 25.64 93.1431 25.64ZM99.5636 25.5H98.5276V15.42H99.5636V19.788H99.6896C100.026 19.018 100.81 18.528 101.804 18.528H101.86C103.414 18.528 104.24 19.494 104.24 21.37V25.5H103.204V21.412C103.204 20.012 102.644 19.494 101.65 19.494H101.594C100.516 19.494 99.5636 20.096 99.5636 21.538V25.5ZM110.198 25.64H110.156C109.12 25.64 108.42 25.094 108.084 24.338H107.944V25.5H106.922V15.42H107.958V19.788H108.098C108.434 19.06 109.148 18.528 110.184 18.528H110.24C111.668 18.528 112.788 19.536 112.788 21.748V22.406C112.788 24.618 111.668 25.64 110.198 25.64ZM109.89 24.674H109.946C110.996 24.674 111.752 24.058 111.752 22.35V21.776C111.752 20.082 110.996 19.494 109.946 19.494H109.89C108.868 19.494 107.958 20.11 107.958 21.776V22.35C107.958 24.086 108.868 24.674 109.89 24.674ZM118.215 25.64H118.145C116.367 25.64 115.177 24.632 115.177 22.406V21.762C115.177 19.522 116.381 18.528 118.145 18.528H118.215C119.993 18.528 121.183 19.536 121.183 21.762V22.406C121.183 24.646 119.979 25.64 118.215 25.64ZM118.145 24.702H118.215C119.405 24.702 120.161 24.072 120.161 22.406V21.762C120.161 20.096 119.405 19.466 118.215 19.466H118.145C116.955 19.466 116.199 20.096 116.199 21.762V22.406C116.199 24.072 116.955 24.702 118.145 24.702ZM129.045 21.272V24.562H130.263V25.5H128.135L128.051 24.128H127.897C127.575 24.856 126.707 25.64 125.363 25.64H125.307C124.355 25.64 123.319 25.108 123.319 23.848V23.764C123.319 22.588 124.243 22.056 125.825 21.86L128.037 21.58V21.23C128.037 20.068 127.589 19.452 126.427 19.452H126.371C125.335 19.452 124.733 19.942 124.621 21.034H123.543C123.697 19.41 124.747 18.528 126.413 18.528H126.441C128.289 18.528 129.045 19.522 129.045 21.272ZM125.461 24.73H125.517C126.665 24.73 128.037 24.03 128.037 22.42V22.392L125.965 22.644C124.803 22.784 124.327 23.092 124.327 23.736V23.82C124.327 24.394 124.761 24.73 125.461 24.73ZM138.322 19.62H136.67C135.298 19.62 134.696 20.348 134.696 21.552V24.562H137.454V25.5H131.896V24.562H133.674V19.606H131.896V18.668H134.612L134.696 19.956H134.836C135.13 19.158 135.634 18.668 136.768 18.668H138.322V19.62ZM142.978 25.64H142.936C141.466 25.64 140.346 24.618 140.346 22.406V21.748C140.346 19.536 141.466 18.528 142.894 18.528H142.95C143.986 18.528 144.7 19.06 145.036 19.788H145.176V15.42H146.212V25.5H145.19V24.338H145.05C144.714 25.094 144.014 25.64 142.978 25.64ZM143.188 24.674H143.244C144.266 24.674 145.176 24.086 145.176 22.35V21.776C145.176 20.11 144.266 19.494 143.244 19.494H143.188C142.138 19.494 141.382 20.082 141.382 21.776V22.35C141.382 24.058 142.138 24.674 143.188 24.674Z" fill="white"/>
</svg>
