<svg width="153" height="40" viewBox="0 0 153 40" fill="none" xmlns="http://www.w3.org/2000/svg">
<rect x="1" y="1" width="151" height="38" rx="12" fill="#A8D0FF" fill-opacity="0.1"/>
<rect x="1" y="1" width="151" height="38" rx="12" stroke="#A8D0FF"/>
<path d="M37.154 15.952V16.918H34.718V24.534H37.154V25.5H31.246V24.534H33.668V16.918H31.246V15.952H37.154ZM40.7745 25.5H39.7385V18.668H40.7745V19.788H40.9005C41.2365 19.018 42.0485 18.528 43.0285 18.528H43.0845C44.6385 18.528 45.4505 19.494 45.4505 21.37V25.5H44.4145V21.412C44.4145 20.012 43.8545 19.494 42.8605 19.494H42.8045C41.7265 19.494 40.7745 20.096 40.7745 21.538V25.5ZM59.8036 25.64H59.7616C58.7256 25.64 58.0256 25.094 57.6896 24.338H57.5496V28.216H56.5276V18.668H57.5636V19.788H57.7036C58.0396 19.06 58.7536 18.528 59.7896 18.528H59.8456C61.2736 18.528 62.3936 19.536 62.3936 21.748V22.406C62.3936 24.618 61.2736 25.64 59.8036 25.64ZM59.4956 24.674H59.5516C60.6016 24.674 61.3576 24.058 61.3576 22.35V21.776C61.3576 20.082 60.6016 19.494 59.5516 19.494H59.4956C58.4736 19.494 57.5636 20.11 57.5636 21.776V22.35C57.5636 24.086 58.4736 24.674 59.4956 24.674ZM71.1381 19.62H69.4861C68.1141 19.62 67.5121 20.348 67.5121 21.552V24.562H70.2701V25.5H64.7121V24.562H66.4901V19.606H64.7121V18.668H67.4281L67.5121 19.956H67.6521C67.9461 19.158 68.4501 18.668 69.5841 18.668H71.1381V19.62ZM76.2147 25.64H76.1447C74.3667 25.64 73.1767 24.632 73.1767 22.406V21.762C73.1767 19.522 74.3807 18.528 76.1447 18.528H76.2147C77.9927 18.528 79.1827 19.536 79.1827 21.762V22.406C79.1827 24.646 77.9787 25.64 76.2147 25.64ZM76.1447 24.702H76.2147C77.4047 24.702 78.1607 24.072 78.1607 22.406V21.762C78.1607 20.096 77.4047 19.466 76.2147 19.466H76.1447C74.9547 19.466 74.1987 20.096 74.1987 21.762V22.406C74.1987 24.072 74.9547 24.702 76.1447 24.702ZM85.8132 28.23H82.0472V27.292H86.0232C86.2752 27.292 86.4012 27.18 86.4012 26.9V24.338H86.2612C85.9252 25.094 85.2252 25.64 84.1892 25.64H84.1472C82.6772 25.64 81.5712 24.618 81.5712 22.406V21.748C81.5712 19.536 82.6772 18.528 84.1052 18.528H84.1612C85.1972 18.528 85.9112 19.06 86.2472 19.788H86.3872V18.668H87.4232V26.536C87.4232 27.544 86.8632 28.23 85.8132 28.23ZM84.3992 24.674H84.4552C85.4772 24.674 86.3872 24.086 86.3872 22.35V21.776C86.3872 20.11 85.4772 19.494 84.4552 19.494H84.3992C83.3492 19.494 82.6072 20.082 82.6072 21.776V22.35C82.6072 24.058 83.3492 24.674 84.3992 24.674ZM96.3217 19.62H94.6697C93.2977 19.62 92.6957 20.348 92.6957 21.552V24.562H95.4537V25.5H89.8957V24.562H91.6737V19.606H89.8957V18.668H92.6117L92.6957 19.956H92.8357C93.1297 19.158 93.6337 18.668 94.7677 18.668H96.3217V19.62ZM104.366 21.762V22.35H99.3823V22.406C99.3823 24.072 100.138 24.702 101.328 24.702H101.398C102.28 24.702 102.938 24.366 103.232 23.554H104.254C103.89 24.982 102.812 25.64 101.398 25.64H101.328C99.5503 25.64 98.3603 24.632 98.3603 22.406V21.762C98.3603 19.522 99.5643 18.528 101.328 18.528H101.398C103.176 18.528 104.366 19.536 104.366 21.762ZM101.398 19.466H101.328C100.194 19.466 99.4523 20.04 99.3823 21.524H103.344C103.274 20.04 102.532 19.466 101.398 19.466ZM109.905 25.64H109.835C107.861 25.64 106.867 24.758 106.811 23.246H107.833C107.875 24.184 108.323 24.744 109.835 24.744H109.905C111.235 24.744 111.697 24.296 111.697 23.638C111.697 22.812 110.843 22.644 109.723 22.42C108.351 22.14 106.993 21.86 106.993 20.446C106.993 19.298 107.945 18.528 109.597 18.528H109.667C111.473 18.528 112.453 19.382 112.509 20.866H111.487C111.445 19.956 110.997 19.41 109.681 19.41H109.597C108.463 19.41 107.987 19.844 107.987 20.432C107.987 21.216 108.799 21.384 109.905 21.594C111.291 21.86 112.691 22.14 112.691 23.624C112.691 24.884 111.627 25.64 109.905 25.64ZM118.299 25.64H118.229C116.255 25.64 115.261 24.758 115.205 23.246H116.227C116.269 24.184 116.717 24.744 118.229 24.744H118.299C119.629 24.744 120.091 24.296 120.091 23.638C120.091 22.812 119.237 22.644 118.117 22.42C116.745 22.14 115.387 21.86 115.387 20.446C115.387 19.298 116.339 18.528 117.991 18.528H118.061C119.867 18.528 120.847 19.382 120.903 20.866H119.881C119.839 19.956 119.391 19.41 118.075 19.41H117.991C116.857 19.41 116.381 19.844 116.381 20.432C116.381 21.216 117.193 21.384 118.299 21.594C119.685 21.86 121.085 22.14 121.085 23.624C121.085 24.884 120.021 25.64 118.299 25.64Z" fill="#A8D0FF"/>
</svg>
