<svg width="153" height="40" viewBox="0 0 153 40" fill="none" xmlns="http://www.w3.org/2000/svg">
<rect x="1" y="1" width="151" height="38" rx="12" fill="#CBCBCB" fill-opacity="0.1"/>
<rect x="1" y="1" width="151" height="38" rx="12" stroke="#CBCBCB"/>
<path d="M45.654 15.952V16.918H43.218V24.534H45.654V25.5H39.746V24.534H42.168V16.918H39.746V15.952H45.654ZM49.2745 25.5H48.2385V18.668H49.2745V19.788H49.4005C49.7365 19.018 50.5485 18.528 51.5285 18.528H51.5845C53.1385 18.528 53.9505 19.494 53.9505 21.37V25.5H52.9145V21.412C52.9145 20.012 52.3545 19.494 51.3605 19.494H51.3045C50.2265 19.494 49.2745 20.096 49.2745 21.538V25.5ZM61.5331 21.902H57.4451V20.936H61.5331V21.902ZM71.2436 19.62H69.5916C68.2196 19.62 67.6176 20.348 67.6176 21.552V24.562H70.3756V25.5H64.8176V24.562H66.5956V19.606H64.8176V18.668H67.5336L67.6176 19.956H67.7576C68.0516 19.158 68.5556 18.668 69.6896 18.668H71.2436V19.62ZM79.2881 21.762V22.35H74.3041V22.406C74.3041 24.072 75.0601 24.702 76.2501 24.702H76.3201C77.2021 24.702 77.8601 24.366 78.1541 23.554H79.1761C78.8121 24.982 77.7341 25.64 76.3201 25.64H76.2501C74.4721 25.64 73.2821 24.632 73.2821 22.406V21.762C73.2821 19.522 74.4861 18.528 76.2501 18.528H76.3201C78.0981 18.528 79.2881 19.536 79.2881 21.762ZM76.3201 19.466H76.2501C75.1161 19.466 74.3741 20.04 74.3041 21.524H78.2661C78.1961 20.04 77.4541 19.466 76.3201 19.466ZM85.4147 25.5H83.9307L81.3547 18.668H82.4327L84.6027 24.548H84.7567L86.9127 18.668H87.9907L85.4147 25.5ZM92.6192 15.308H94.2992V16.96H92.6192V15.308ZM94.3272 24.562H96.6792V25.5H94.5512C93.5012 25.5 92.9412 24.814 92.9412 23.806V19.606H90.2392V18.668H93.9772V24.17C93.9772 24.45 94.0892 24.562 94.3272 24.562ZM104.472 21.762V22.35H99.4877V22.406C99.4877 24.072 100.244 24.702 101.434 24.702H101.504C102.386 24.702 103.044 24.366 103.338 23.554H104.36C103.996 24.982 102.918 25.64 101.504 25.64H101.434C99.6557 25.64 98.4657 24.632 98.4657 22.406V21.762C98.4657 19.522 99.6697 18.528 101.434 18.528H101.504C103.282 18.528 104.472 19.536 104.472 21.762ZM101.504 19.466H101.434C100.3 19.466 99.5577 20.04 99.4877 21.524H103.45C103.38 20.04 102.638 19.466 101.504 19.466ZM108.694 25.5H107.28L106.09 18.668H107.028L107.924 24.548H108.05L109.282 18.668H110.416L111.634 24.548H111.774L112.656 18.668H113.608L112.404 25.5H111.018L109.912 20.012H109.786L108.694 25.5Z" fill="#CBCBCB"/>
</svg>
