<svg width="240" height="40" viewBox="0 0 240 40" fill="none" xmlns="http://www.w3.org/2000/svg">
<path d="M31 26V25C31 23.6739 31.5268 22.4021 32.4645 21.4645C33.4021 20.5268 34.6739 20 36 20M36 20C37.3261 20 38.5979 20.5268 39.5355 21.4645C40.4732 22.4021 41 23.6739 41 25V26M36 20C36.7956 20 37.5587 19.6839 38.1213 19.1213C38.6839 18.5587 39 17.7956 39 17C39 16.2044 38.6839 15.4413 38.1213 14.8787C37.5587 14.3161 36.7956 14 36 14C35.2044 14 34.4413 14.3161 33.8787 14.8787C33.3161 15.4413 33 16.2044 33 17C33 17.7956 33.3161 18.5587 33.8787 19.1213C34.4413 19.6839 35.2044 20 36 20ZM25 26V25C25 24.2044 25.3161 23.4413 25.8787 22.8787C26.4413 22.3161 27.2044 22 28 22M28 22C28.5304 22 29.0391 21.7893 29.4142 21.4142C29.7893 21.0391 30 20.5304 30 20C30 19.4696 29.7893 18.9609 29.4142 18.5858C29.0391 18.2107 28.5304 18 28 18C27.4696 18 26.9609 18.2107 26.5858 18.5858C26.2107 18.9609 26 19.4696 26 20C26 20.5304 26.2107 21.0391 26.5858 21.4142C26.9609 21.7893 27.4696 22 28 22ZM47 26V25C47 24.2044 46.6839 23.4413 46.1213 22.8787C45.5587 22.3161 44.7956 22 44 22M44 22C44.5304 22 45.0391 21.7893 45.4142 21.4142C45.7893 21.0391 46 20.5304 46 20C46 19.4696 45.7893 18.9609 45.4142 18.5858C45.0391 18.2107 44.5304 18 44 18C43.4696 18 42.9609 18.2107 42.5858 18.5858C42.2107 18.9609 42 19.4696 42 20C42 20.5304 42.2107 21.0391 42.5858 21.4142C42.9609 21.7893 43.4696 22 44 22Z" stroke="#FFA300" stroke-width="1.5" stroke-linecap="round" stroke-linejoin="round"/>
<path d="M74.352 25.5H72.882V15.952H74.632L76.13 19.788H76.27L77.768 15.952H79.518V25.5H78.048V18.584H77.894L76.55 21.93H75.836L74.506 18.584H74.352V25.5ZM87.7305 21.608V22.406H82.9705C82.9705 23.806 83.5445 24.268 84.5525 24.268H84.6365C85.3925 24.268 85.9105 24.03 86.1485 23.4H87.6605C87.2965 24.898 86.1345 25.64 84.6365 25.64H84.5525C82.7465 25.64 81.4585 24.576 81.4585 22.392V21.608C81.4585 19.424 82.7465 18.346 84.5525 18.346H84.6365C86.4425 18.346 87.7305 19.424 87.7305 21.608ZM84.6365 19.732H84.5525C83.6145 19.732 83.0545 20.124 82.9845 21.314H86.2185C86.1485 20.124 85.5745 19.732 84.6365 19.732ZM90.7631 25.5H89.3491V18.486H90.7631V19.424H90.9171C91.0711 18.78 91.5471 18.346 92.1911 18.346H92.2471C92.8491 18.346 93.3531 18.71 93.5771 19.424H93.7311C93.9551 18.78 94.4171 18.346 95.0891 18.346H95.1451C95.9711 18.346 96.6431 18.976 96.6431 20.208V25.5H95.2151V20.558C95.2151 19.914 94.9631 19.69 94.5991 19.69H94.5431C94.0811 19.69 93.7031 19.998 93.7031 20.768V25.5H92.2891V20.558C92.2891 19.914 92.0231 19.69 91.6591 19.69H91.6031C91.1411 19.69 90.7631 19.998 90.7631 20.768V25.5ZM102.028 25.64H102C100.95 25.64 100.334 25.094 100.026 24.38H99.8716V25.5H98.3596V15.42H99.9136V19.522H100.068C100.39 18.85 100.992 18.346 102.028 18.346H102.07C103.568 18.346 104.52 19.564 104.52 21.622V22.406C104.52 24.478 103.61 25.64 102.028 25.64ZM101.468 24.198H101.524C102.504 24.198 102.98 23.54 102.98 22.308V21.678C102.98 20.446 102.504 19.788 101.524 19.788H101.468C100.446 19.788 99.9136 20.46 99.9136 21.678V22.308C99.9136 23.554 100.446 24.198 101.468 24.198ZM112.914 21.608V22.406H108.154C108.154 23.806 108.728 24.268 109.736 24.268H109.82C110.576 24.268 111.094 24.03 111.332 23.4H112.844C112.48 24.898 111.318 25.64 109.82 25.64H109.736C107.93 25.64 106.642 24.576 106.642 22.392V21.608C106.642 19.424 107.93 18.346 109.736 18.346H109.82C111.626 18.346 112.914 19.424 112.914 21.608ZM109.82 19.732H109.736C108.798 19.732 108.238 20.124 108.168 21.314H111.402C111.332 20.124 110.758 19.732 109.82 19.732ZM121.631 19.872H120.007C118.537 19.872 118.215 20.698 118.215 21.524V24.128H120.707V25.5H115.023V24.128H116.731V19.872H115.023V18.486H118.089L118.215 19.718H118.383C118.677 18.892 119.209 18.486 120.231 18.486H121.631V19.872ZM126.707 25.64H126.665C124.719 25.64 123.557 24.828 123.501 23.162H125.013C125.027 24.016 125.405 24.38 126.651 24.38H126.693C127.715 24.38 128.163 24.072 128.163 23.526C128.163 22.854 127.407 22.714 126.455 22.532C125.139 22.266 123.627 21.93 123.627 20.432C123.627 19.144 124.635 18.346 126.413 18.346H126.455C128.345 18.346 129.381 19.186 129.451 20.782H127.925C127.897 19.956 127.519 19.606 126.469 19.606H126.427C125.419 19.606 125.111 19.97 125.111 20.404C125.111 21.02 125.839 21.188 126.749 21.356C128.079 21.608 129.633 21.902 129.633 23.484C129.633 24.814 128.555 25.64 126.707 25.64Z" fill="#FFA300"/>
<rect width="3" height="40" fill="#FFA300"/>
</svg>
