<svg width="40" height="40" viewBox="0 0 40 40" fill="none" xmlns="http://www.w3.org/2000/svg">
<g clip-path="url(#clip0_371_1571)">
<path fill-rule="evenodd" clip-rule="evenodd" d="M15.5 11C14.9885 11 14.498 11.2032 14.1363 11.5649C13.7746 11.9265 13.5714 12.4171 13.5714 12.9286V19.5997C14.0117 19.2468 14.5705 19.0357 15.1786 19.0357C16.5988 19.0357 17.75 20.187 17.75 21.6071V22.25H18.3929C19.8131 22.25 20.9643 23.4013 20.9643 24.8214C20.9643 26.2416 19.8131 27.3929 18.3929 27.3929H17.75V28.0357C17.75 28.3767 17.6837 28.7022 17.5631 29H27.0714C27.5829 29 28.0735 28.7969 28.4352 28.4352C28.7969 28.0735 29 27.5829 29 27.0714V16.7857C29 16.6152 28.9322 16.4517 28.8118 16.3312L23.6688 11.1883C23.5483 11.0677 23.3848 11 23.2143 11H15.5ZM16.1429 21.6071C16.1429 21.0746 15.7111 20.6429 15.1786 20.6429C14.646 20.6429 14.2143 21.0746 14.2143 21.6071V23.8571H11.9643C11.4317 23.8571 11 24.2889 11 24.8214C11 25.354 11.4317 25.7857 11.9643 25.7857H14.2143V28.0357C14.2143 28.5683 14.646 29 15.1786 29C15.7111 29 16.1429 28.5683 16.1429 28.0357V25.7857H18.3929C18.9254 25.7857 19.3571 25.354 19.3571 24.8214C19.3571 24.2889 18.9254 23.8571 18.3929 23.8571H16.1429V21.6071Z" fill="#F7F7F7"/>
</g>
<defs>
<clipPath id="clip0_371_1571">
<rect width="18" height="18" fill="white" transform="translate(11 11)"/>
</clipPath>
</defs>
</svg>
