<svg width="240" height="40" viewBox="0 0 240 40" fill="none" xmlns="http://www.w3.org/2000/svg">
<path fill-rule="evenodd" clip-rule="evenodd" d="M42 11C42.5304 11 43.0391 11.2107 43.4142 11.5858C43.7893 11.9609 44 12.4696 44 13V23C44 23.5304 43.7893 24.0391 43.4142 24.4142C43.0391 24.7893 42.5304 25 42 25H41V17C41 15.9391 40.5786 14.9217 39.8284 14.1716C39.0783 13.4214 38.0609 13 37 13H34C33.649 12.9997 33.3041 13.0918 33 13.267V13C33 12.4696 33.2107 11.9609 33.5858 11.5858C33.9609 11.2107 34.4696 11 35 11H42Z" fill="#FFA300"/>
<path fill-rule="evenodd" clip-rule="evenodd" d="M32 15.054V19H28.2C28.2746 18.8445 28.3691 18.6993 28.481 18.568L30.941 15.698C31.2169 15.3766 31.5877 15.1511 32 15.054ZM34 15V19C34 19.5304 33.7893 20.0391 33.4142 20.4142C33.0391 20.7893 32.5304 21 32 21H28V27C28 27.5304 28.2107 28.0391 28.5858 28.4142C28.9609 28.7893 29.4696 29 30 29H37C37.5304 29 38.0391 28.7893 38.4142 28.4142C38.7893 28.0391 39 27.5304 39 27V17C39 16.4696 38.7893 15.9609 38.4142 15.5858C38.0391 15.2107 37.5304 15 37 15H34Z" fill="#FFA300"/>
<path d="M73.218 15.952H76.634C78.692 15.952 79.756 16.946 79.756 18.948V19.004C79.756 21.006 78.692 22 76.634 22H74.772V25.5H73.218V15.952ZM78.23 19.004V18.948C78.23 17.8 77.894 17.394 76.634 17.394H74.772V20.572H76.634C77.894 20.572 78.23 20.138 78.23 19.004ZM84.6365 25.64H84.5525C82.7465 25.64 81.4585 24.576 81.4585 22.392V21.608C81.4585 19.424 82.7465 18.346 84.5525 18.346H84.6365C86.4425 18.346 87.7305 19.424 87.7305 21.608V22.392C87.7305 24.576 86.4425 25.64 84.6365 25.64ZM84.5525 24.268H84.6365C85.6445 24.268 86.2325 23.806 86.2325 22.392V21.608C86.2325 20.18 85.6445 19.732 84.6365 19.732H84.5525C83.5445 19.732 82.9705 20.18 82.9705 21.608V22.392C82.9705 23.806 83.5445 24.268 84.5525 24.268ZM93.1291 25.64H93.0871C91.1411 25.64 89.9791 24.828 89.9231 23.162H91.4351C91.4491 24.016 91.8271 24.38 93.0731 24.38H93.1151C94.1371 24.38 94.5851 24.072 94.5851 23.526C94.5851 22.854 93.8291 22.714 92.8771 22.532C91.5611 22.266 90.0491 21.93 90.0491 20.432C90.0491 19.144 91.0571 18.346 92.8351 18.346H92.8771C94.7671 18.346 95.8031 19.186 95.8731 20.782H94.3471C94.3191 19.956 93.9411 19.606 92.8911 19.606H92.8491C91.8411 19.606 91.5331 19.97 91.5331 20.404C91.5331 21.02 92.2611 21.188 93.1711 21.356C94.5011 21.608 96.0551 21.902 96.0551 23.484C96.0551 24.814 94.9771 25.64 93.1291 25.64ZM104.366 18.486V19.872H101.454V23.68C101.454 24.016 101.538 24.128 101.916 24.128H104.366V25.5H101.902C100.642 25.5 99.9136 24.674 99.9136 23.512V19.872H97.6876V18.486H99.9136V16.904L101.454 16.778V18.486H104.366ZM109.918 25.64H109.876C107.93 25.64 106.768 24.828 106.712 23.162H108.224C108.238 24.016 108.616 24.38 109.862 24.38H109.904C110.926 24.38 111.374 24.072 111.374 23.526C111.374 22.854 110.618 22.714 109.666 22.532C108.35 22.266 106.838 21.93 106.838 20.432C106.838 19.144 107.846 18.346 109.624 18.346H109.666C111.556 18.346 112.592 19.186 112.662 20.782H111.136C111.108 19.956 110.73 19.606 109.68 19.606H109.638C108.63 19.606 108.322 19.97 108.322 20.404C108.322 21.02 109.05 21.188 109.96 21.356C111.29 21.608 112.844 21.902 112.844 23.484C112.844 24.814 111.766 25.64 109.918 25.64Z" fill="#FFA300"/>
<rect width="3" height="40" fill="#FFA300"/>
</svg>
