<svg width="240" height="40" viewBox="0 0 240 40" fill="none" xmlns="http://www.w3.org/2000/svg">
<path fill-rule="evenodd" clip-rule="evenodd" d="M42 11C42.5304 11 43.0391 11.2107 43.4142 11.5858C43.7893 11.9609 44 12.4696 44 13V23C44 23.5304 43.7893 24.0391 43.4142 24.4142C43.0391 24.7893 42.5304 25 42 25H41V17C41 15.9391 40.5786 14.9217 39.8284 14.1716C39.0783 13.4214 38.0609 13 37 13H34C33.649 12.9997 33.3041 13.0918 33 13.267V13C33 12.4696 33.2107 11.9609 33.5858 11.5858C33.9609 11.2107 34.4696 11 35 11H42Z" fill="#CBCBCB"/>
<path fill-rule="evenodd" clip-rule="evenodd" d="M32 15.054V19H28.2C28.2746 18.8445 28.3691 18.6993 28.481 18.568L30.941 15.698C31.2169 15.3766 31.5877 15.1511 32 15.054ZM34 15V19C34 19.5304 33.7893 20.0391 33.4142 20.4142C33.0391 20.7893 32.5304 21 32 21H28V27C28 27.5304 28.2107 28.0391 28.5858 28.4142C28.9609 28.7893 29.4696 29 30 29H37C37.5304 29 38.0391 28.7893 38.4142 28.4142C38.7893 28.0391 39 27.5304 39 27V17C39 16.4696 38.7893 15.9609 38.4142 15.5858C38.0391 15.2107 37.5304 15 37 15H34Z" fill="#CBCBCB"/>
<path d="M73.372 15.952H76.746C78.524 15.952 79.616 16.806 79.616 18.822V18.864C79.616 20.88 78.524 21.734 76.746 21.734H74.408V25.5H73.372V15.952ZM78.58 18.864V18.822C78.58 17.366 78.02 16.918 76.746 16.918H74.408V20.768H76.746C78.02 20.768 78.58 20.32 78.58 18.864ZM84.6365 25.64H84.5665C82.7885 25.64 81.5985 24.632 81.5985 22.406V21.762C81.5985 19.522 82.8025 18.528 84.5665 18.528H84.6365C86.4145 18.528 87.6045 19.536 87.6045 21.762V22.406C87.6045 24.646 86.4005 25.64 84.6365 25.64ZM84.5665 24.702H84.6365C85.8265 24.702 86.5825 24.072 86.5825 22.406V21.762C86.5825 20.096 85.8265 19.466 84.6365 19.466H84.5665C83.3765 19.466 82.6205 20.096 82.6205 21.762V22.406C82.6205 24.072 83.3765 24.702 84.5665 24.702ZM93.1431 25.64H93.0731C91.0991 25.64 90.1051 24.758 90.0491 23.246H91.0711C91.1131 24.184 91.5611 24.744 93.0731 24.744H93.1431C94.4731 24.744 94.9351 24.296 94.9351 23.638C94.9351 22.812 94.0811 22.644 92.9611 22.42C91.5891 22.14 90.2311 21.86 90.2311 20.446C90.2311 19.298 91.1831 18.528 92.8351 18.528H92.9051C94.7111 18.528 95.6911 19.382 95.7471 20.866H94.7251C94.6831 19.956 94.2351 19.41 92.9191 19.41H92.8351C91.7011 19.41 91.2251 19.844 91.2251 20.432C91.2251 21.216 92.0371 21.384 93.1431 21.594C94.5291 21.86 95.9291 22.14 95.9291 23.624C95.9291 24.884 94.8651 25.64 93.1431 25.64ZM104.394 18.668V19.606H101.132V24.17C101.132 24.45 101.258 24.562 101.482 24.562H104.394V25.5H101.706C100.656 25.5 100.096 24.814 100.096 23.806V19.606H97.7716V18.668H100.096V17.002L101.132 16.918V18.668H104.394ZM109.932 25.64H109.862C107.888 25.64 106.894 24.758 106.838 23.246H107.86C107.902 24.184 108.35 24.744 109.862 24.744H109.932C111.262 24.744 111.724 24.296 111.724 23.638C111.724 22.812 110.87 22.644 109.75 22.42C108.378 22.14 107.02 21.86 107.02 20.446C107.02 19.298 107.972 18.528 109.624 18.528H109.694C111.5 18.528 112.48 19.382 112.536 20.866H111.514C111.472 19.956 111.024 19.41 109.708 19.41H109.624C108.49 19.41 108.014 19.844 108.014 20.432C108.014 21.216 108.826 21.384 109.932 21.594C111.318 21.86 112.718 22.14 112.718 23.624C112.718 24.884 111.654 25.64 109.932 25.64Z" fill="white"/>
</svg>
