<svg width="240" height="40" viewBox="0 0 240 40" fill="none" xmlns="http://www.w3.org/2000/svg">
<rect opacity="0.01" x="24" y="8" width="24" height="24" fill="#CBCBCB"/>
<path d="M35.25 19.8304L27 16.3604V24.0904C27.0089 24.7485 27.3991 25.3417 28 25.6104L35.19 29.0004H35.25V19.8304Z" fill="#CBCBCB"/>
<path d="M36 18.4998L44.51 14.9298C44.3668 14.7706 44.1934 14.6415 44 14.5498L36.8 11.1798C36.2936 10.9401 35.7064 10.9401 35.2 11.1798L28 14.5498C27.8066 14.6415 27.6332 14.7706 27.49 14.9298L36 18.4998Z" fill="#CBCBCB"/>
<path d="M36.75 19.8304V29.0004H36.8L44 25.6104C44.5977 25.3432 44.9873 24.7549 45 24.1004V16.3604L36.75 19.8304Z" fill="#CBCBCB"/>
<path d="M73.372 15.952H76.746C78.524 15.952 79.616 16.806 79.616 18.822V18.864C79.616 20.88 78.524 21.734 76.746 21.734H74.408V25.5H73.372V15.952ZM78.58 18.864V18.822C78.58 17.366 78.02 16.918 76.746 16.918H74.408V20.768H76.746C78.02 20.768 78.58 20.32 78.58 18.864ZM87.9545 19.62H86.3025C84.9305 19.62 84.3285 20.348 84.3285 21.552V24.562H87.0865V25.5H81.5285V24.562H83.3065V19.606H81.5285V18.668H84.2445L84.3285 19.956H84.4685C84.7625 19.158 85.2665 18.668 86.4005 18.668H87.9545V19.62ZM93.0311 25.64H92.9611C91.1831 25.64 89.9931 24.632 89.9931 22.406V21.762C89.9931 19.522 91.1971 18.528 92.9611 18.528H93.0311C94.8091 18.528 95.9991 19.536 95.9991 21.762V22.406C95.9991 24.646 94.7951 25.64 93.0311 25.64ZM92.9611 24.702H93.0311C94.2211 24.702 94.9771 24.072 94.9771 22.406V21.762C94.9771 20.096 94.2211 19.466 93.0311 19.466H92.9611C91.7711 19.466 91.0151 20.096 91.0151 21.762V22.406C91.0151 24.072 91.7711 24.702 92.9611 24.702ZM101.916 16.96V15.308H103.596V16.96H101.916ZM98.4296 19.606V18.668H103.288V26.522C103.288 27.53 102.742 28.216 101.678 28.216H98.4296V27.278H101.93C102.126 27.278 102.238 27.166 102.238 26.942V19.606H98.4296ZM112.788 21.762V22.35H107.804V22.406C107.804 24.072 108.56 24.702 109.75 24.702H109.82C110.702 24.702 111.36 24.366 111.654 23.554H112.676C112.312 24.982 111.234 25.64 109.82 25.64H109.75C107.972 25.64 106.782 24.632 106.782 22.406V21.762C106.782 19.522 107.986 18.528 109.75 18.528H109.82C111.598 18.528 112.788 19.536 112.788 21.762ZM109.82 19.466H109.75C108.616 19.466 107.874 20.04 107.804 21.524H111.766C111.696 20.04 110.954 19.466 109.82 19.466ZM118.215 25.64H118.145C116.367 25.64 115.177 24.632 115.177 22.406V21.762C115.177 19.522 116.381 18.528 118.145 18.528H118.215C119.783 18.528 120.959 19.312 121.099 21.006H120.063C119.937 19.9 119.223 19.466 118.215 19.466H118.145C116.955 19.466 116.199 20.096 116.199 21.762V22.406C116.199 24.072 116.955 24.702 118.145 24.702H118.215C119.209 24.702 119.951 24.268 120.063 23.162H121.099C120.959 24.856 119.783 25.64 118.215 25.64ZM129.577 18.668V19.606H126.315V24.17C126.315 24.45 126.441 24.562 126.665 24.562H129.577V25.5H126.889C125.839 25.5 125.279 24.814 125.279 23.806V19.606H122.955V18.668H125.279V17.002L126.315 16.918V18.668H129.577Z" fill="white"/>
</svg>
