<svg width="240" height="40" viewBox="0 0 240 40" fill="none" xmlns="http://www.w3.org/2000/svg">
<rect opacity="0.01" x="24" y="8" width="24" height="24" fill="#FFA300"/>
<path d="M35.25 19.8304L27 16.3604V24.0904C27.0089 24.7485 27.3991 25.3417 28 25.6104L35.19 29.0004H35.25V19.8304Z" fill="#FFA300"/>
<path d="M36 18.4998L44.51 14.9298C44.3668 14.7706 44.1934 14.6415 44 14.5498L36.8 11.1798C36.2936 10.9401 35.7064 10.9401 35.2 11.1798L28 14.5498C27.8066 14.6415 27.6332 14.7706 27.49 14.9298L36 18.4998Z" fill="#FFA300"/>
<path d="M36.75 19.8304V29.0004H36.8L44 25.6104C44.5977 25.3432 44.9873 24.7549 45 24.1004V16.3604L36.75 19.8304Z" fill="#FFA300"/>
<path d="M73.218 15.952H76.634C78.692 15.952 79.756 16.946 79.756 18.948V19.004C79.756 21.006 78.692 22 76.634 22H74.772V25.5H73.218V15.952ZM78.23 19.004V18.948C78.23 17.8 77.894 17.394 76.634 17.394H74.772V20.572H76.634C77.894 20.572 78.23 20.138 78.23 19.004ZM88.0525 19.872H86.4285C84.9585 19.872 84.6365 20.698 84.6365 21.524V24.128H87.1285V25.5H81.4445V24.128H83.1525V19.872H81.4445V18.486H84.5105L84.6365 19.718H84.8045C85.0985 18.892 85.6305 18.486 86.6525 18.486H88.0525V19.872ZM93.0311 25.64H92.9471C91.1411 25.64 89.8531 24.576 89.8531 22.392V21.608C89.8531 19.424 91.1411 18.346 92.9471 18.346H93.0311C94.8371 18.346 96.1251 19.424 96.1251 21.608V22.392C96.1251 24.576 94.8371 25.64 93.0311 25.64ZM92.9471 24.268H93.0311C94.0391 24.268 94.6271 23.806 94.6271 22.392V21.608C94.6271 20.18 94.0391 19.732 93.0311 19.732H92.9471C91.9391 19.732 91.3651 20.18 91.3651 21.608V22.392C91.3651 23.806 91.9391 24.268 92.9471 24.268ZM101.678 17.24V15.182H103.834V17.24H101.678ZM98.2476 19.872V18.486H103.54V26.228C103.54 27.39 102.812 28.216 101.552 28.216H98.2476V26.844H101.636C101.888 26.844 101.986 26.732 101.986 26.494V19.872H98.2476ZM112.914 21.608V22.406H108.154C108.154 23.806 108.728 24.268 109.736 24.268H109.82C110.576 24.268 111.094 24.03 111.332 23.4H112.844C112.48 24.898 111.318 25.64 109.82 25.64H109.736C107.93 25.64 106.642 24.576 106.642 22.392V21.608C106.642 19.424 107.93 18.346 109.736 18.346H109.82C111.626 18.346 112.914 19.424 112.914 21.608ZM109.82 19.732H109.736C108.798 19.732 108.238 20.124 108.168 21.314H111.402C111.332 20.124 110.758 19.732 109.82 19.732ZM118.229 25.64H118.145C116.325 25.64 115.037 24.576 115.037 22.392V21.608C115.037 19.424 116.325 18.346 118.145 18.346H118.229C119.895 18.346 121.127 19.242 121.225 21.034H119.713C119.629 20.054 119.097 19.732 118.229 19.732H118.145C117.123 19.732 116.549 20.18 116.549 21.608V22.392C116.549 23.806 117.123 24.268 118.145 24.268H118.229C119.083 24.268 119.629 23.932 119.713 22.966H121.225C121.127 24.758 119.881 25.64 118.229 25.64ZM129.549 18.486V19.872H126.637V23.68C126.637 24.016 126.721 24.128 127.099 24.128H129.549V25.5H127.085C125.825 25.5 125.097 24.674 125.097 23.512V19.872H122.871V18.486H125.097V16.904L126.637 16.778V18.486H129.549Z" fill="#FFA300"/>
<rect width="3" height="40" fill="#FFA300"/>
</svg>
