<svg width="240" height="40" viewBox="0 0 240 40" fill="none" xmlns="http://www.w3.org/2000/svg">
<path d="M37.8869 18.5435C37.7201 18.3767 37.4939 18.283 37.258 18.283C37.0221 18.283 36.7958 18.3767 36.629 18.5435L36 19.1716C35.6644 19.4957 35.215 19.675 34.7485 19.671C34.2819 19.6669 33.8357 19.4798 33.5058 19.1499C33.1759 18.82 32.9887 18.3737 32.9847 17.9072C32.9806 17.4407 33.16 16.9912 33.4841 16.6557L38.4928 11.6452C39.6786 11.3755 40.9193 11.4865 42.0384 11.9624C43.1575 12.4383 44.0981 13.255 44.7264 14.2962C45.3547 15.3375 45.6388 16.5503 45.5382 17.7622C45.4376 18.9742 44.9574 20.1236 44.1661 21.0469L42.2907 22.9463L37.8869 18.5435ZM28.1364 13.1949C29.0568 12.2741 30.2609 11.6907 31.554 11.5393C32.8471 11.3878 34.1534 11.6772 35.2616 12.3605L32.2252 15.3977C31.5676 16.054 31.1928 16.9415 31.1808 17.8705C31.1687 18.7995 31.5206 19.6964 32.161 20.3695C32.8014 21.0426 33.6797 21.4385 34.6082 21.4727C35.5367 21.5068 36.4417 21.1765 37.1299 20.5523L37.258 20.4304L41.0327 24.2043L37.258 27.979C36.9243 28.3126 36.4718 28.5 36 28.5C35.5282 28.5 35.0757 28.3126 34.7421 27.979L28.1356 21.3726C27.0512 20.2881 26.442 18.8173 26.442 17.2837C26.442 15.7502 27.0521 14.2794 28.1364 13.1949Z" fill="#FFA300"/>
<path d="M76.27 25.64H76.2C74.226 25.64 72.882 24.688 72.882 22.56H74.422C74.422 23.876 74.968 24.24 76.2 24.24H76.27C77.446 24.24 77.978 23.89 77.978 22.938C77.978 21.818 76.648 21.566 75.612 21.216C73.96 20.656 73.036 19.914 73.064 18.388C73.092 16.694 74.366 15.812 76.018 15.812H76.102C77.978 15.812 79.28 16.764 79.28 18.906H77.74C77.74 17.576 77.236 17.212 76.102 17.212H76.018C75.108 17.212 74.618 17.576 74.618 18.388C74.618 19.354 75.458 19.648 76.41 19.942C78.174 20.474 79.518 21.16 79.518 22.938C79.518 24.758 78.188 25.64 76.27 25.64ZM87.7305 21.608V22.406H82.9705C82.9705 23.806 83.5445 24.268 84.5525 24.268H84.6365C85.3925 24.268 85.9105 24.03 86.1485 23.4H87.6605C87.2965 24.898 86.1345 25.64 84.6365 25.64H84.5525C82.7465 25.64 81.4585 24.576 81.4585 22.392V21.608C81.4585 19.424 82.7465 18.346 84.5525 18.346H84.6365C86.4425 18.346 87.7305 19.424 87.7305 21.608ZM84.6365 19.732H84.5525C83.6145 19.732 83.0545 20.124 82.9845 21.314H86.2185C86.1485 20.124 85.5745 19.732 84.6365 19.732ZM96.4471 19.872H94.8231C93.3531 19.872 93.0311 20.698 93.0311 21.524V24.128H95.5231V25.5H89.8391V24.128H91.5471V19.872H89.8391V18.486H92.9051L93.0311 19.718H93.1991C93.4931 18.892 94.0251 18.486 95.0471 18.486H96.4471V19.872ZM102.518 25.5H100.236L97.8556 18.486H99.4656L101.286 24.156H101.468L103.288 18.486H104.898L102.518 25.5ZM109.092 15.182H111.248V17.24H109.092V15.182ZM111.388 24.128H113.474V25.5H111.388C110.128 25.5 109.386 24.674 109.386 23.512V19.872H106.866V18.486H110.94V23.68C110.94 24.016 111.024 24.128 111.388 24.128ZM118.229 25.64H118.145C116.325 25.64 115.037 24.576 115.037 22.392V21.608C115.037 19.424 116.325 18.346 118.145 18.346H118.229C119.895 18.346 121.127 19.242 121.225 21.034H119.713C119.629 20.054 119.097 19.732 118.229 19.732H118.145C117.123 19.732 116.549 20.18 116.549 21.608V22.392C116.549 23.806 117.123 24.268 118.145 24.268H118.229C119.083 24.268 119.629 23.932 119.713 22.966H121.225C121.127 24.758 119.881 25.64 118.229 25.64ZM129.703 21.608V22.406H124.943C124.943 23.806 125.517 24.268 126.525 24.268H126.609C127.365 24.268 127.883 24.03 128.121 23.4H129.633C129.269 24.898 128.107 25.64 126.609 25.64H126.525C124.719 25.64 123.431 24.576 123.431 22.392V21.608C123.431 19.424 124.719 18.346 126.525 18.346H126.609C128.415 18.346 129.703 19.424 129.703 21.608ZM126.609 19.732H126.525C125.587 19.732 125.027 20.124 124.957 21.314H128.191C128.121 20.124 127.547 19.732 126.609 19.732ZM135.102 25.64H135.06C133.114 25.64 131.952 24.828 131.896 23.162H133.408C133.422 24.016 133.8 24.38 135.046 24.38H135.088C136.11 24.38 136.558 24.072 136.558 23.526C136.558 22.854 135.802 22.714 134.85 22.532C133.534 22.266 132.022 21.93 132.022 20.432C132.022 19.144 133.03 18.346 134.808 18.346H134.85C136.74 18.346 137.776 19.186 137.846 20.782H136.32C136.292 19.956 135.914 19.606 134.864 19.606H134.822C133.814 19.606 133.506 19.97 133.506 20.404C133.506 21.02 134.234 21.188 135.144 21.356C136.474 21.608 138.028 21.902 138.028 23.484C138.028 24.814 136.95 25.64 135.102 25.64Z" fill="#FFA300"/>
<rect width="3" height="40" fill="#FFA300"/>
</svg>
