<svg width="240" height="40" viewBox="0 0 240 40" fill="none" xmlns="http://www.w3.org/2000/svg">
<path d="M37.8869 18.5435C37.7201 18.3767 37.4939 18.283 37.258 18.283C37.0221 18.283 36.7958 18.3767 36.629 18.5435L36 19.1716C35.6644 19.4957 35.215 19.675 34.7484 19.671C34.2819 19.6669 33.8357 19.4798 33.5058 19.1499C33.1759 18.82 32.9887 18.3737 32.9847 17.9072C32.9806 17.4407 33.16 16.9912 33.4841 16.6557L38.4928 11.6452C39.6786 11.3755 40.9193 11.4865 42.0384 11.9624C43.1575 12.4383 44.0981 13.255 44.7264 14.2962C45.3547 15.3375 45.6388 16.5503 45.5382 17.7622C45.4376 18.9742 44.9574 20.1236 44.166 21.0469L42.2907 22.9463L37.8869 18.5435ZM28.1364 13.1949C29.0568 12.2741 30.2609 11.6907 31.554 11.5393C32.8471 11.3878 34.1534 11.6772 35.2616 12.3605L32.2252 15.3977C31.5676 16.054 31.1927 16.9415 31.1807 17.8705C31.1687 18.7995 31.5205 19.6964 32.161 20.3695C32.8014 21.0426 33.6797 21.4385 34.6082 21.4727C35.5367 21.5068 36.4417 21.1765 37.1299 20.5523L37.258 20.4304L41.0327 24.2043L37.258 27.979C36.9243 28.3126 36.4718 28.5 36 28.5C35.5282 28.5 35.0757 28.3126 34.742 27.979L28.1355 21.3726C27.0512 20.2881 26.442 18.8173 26.442 17.2837C26.442 15.7502 27.0521 14.2794 28.1364 13.1949Z" fill="#CBCBCB"/>
<path d="M76.298 25.64H76.228C74.282 25.64 72.952 24.744 72.952 22.574H73.988C73.988 24.184 74.758 24.688 76.228 24.688H76.298C77.684 24.688 78.412 24.156 78.412 23.05C78.412 21.664 77.054 21.398 75.92 21.034C74.66 20.614 73.162 20.068 73.162 18.262C73.176 16.708 74.338 15.812 76.032 15.812H76.102C77.894 15.812 79.21 16.694 79.21 18.864H78.188C78.188 17.254 77.39 16.764 76.102 16.764H76.032C74.8 16.764 74.212 17.296 74.212 18.262C74.212 19.522 75.374 19.816 76.424 20.152C77.726 20.558 79.448 21.062 79.448 23.05C79.448 24.73 78.174 25.64 76.298 25.64ZM87.6045 21.762V22.35H82.6205V22.406C82.6205 24.072 83.3765 24.702 84.5665 24.702H84.6365C85.5185 24.702 86.1765 24.366 86.4705 23.554H87.4925C87.1285 24.982 86.0505 25.64 84.6365 25.64H84.5665C82.7885 25.64 81.5985 24.632 81.5985 22.406V21.762C81.5985 19.522 82.8025 18.528 84.5665 18.528H84.6365C86.4145 18.528 87.6045 19.536 87.6045 21.762ZM84.6365 19.466H84.5665C83.4325 19.466 82.6905 20.04 82.6205 21.524H86.5825C86.5125 20.04 85.7705 19.466 84.6365 19.466ZM96.3491 19.62H94.6971C93.3251 19.62 92.7231 20.348 92.7231 21.552V24.562H95.4811V25.5H89.9231V24.562H91.7011V19.606H89.9231V18.668H92.6391L92.7231 19.956H92.8631C93.1571 19.158 93.6611 18.668 94.7951 18.668H96.3491V19.62ZM102.126 25.5H100.642L98.0656 18.668H99.1436L101.314 24.548H101.468L103.624 18.668H104.702L102.126 25.5ZM109.33 15.308H111.01V16.96H109.33V15.308ZM111.038 24.562H113.39V25.5H111.262C110.212 25.5 109.652 24.814 109.652 23.806V19.606H106.95V18.668H110.688V24.17C110.688 24.45 110.8 24.562 111.038 24.562ZM118.215 25.64H118.145C116.367 25.64 115.177 24.632 115.177 22.406V21.762C115.177 19.522 116.381 18.528 118.145 18.528H118.215C119.783 18.528 120.959 19.312 121.099 21.006H120.063C119.937 19.9 119.223 19.466 118.215 19.466H118.145C116.955 19.466 116.199 20.096 116.199 21.762V22.406C116.199 24.072 116.955 24.702 118.145 24.702H118.215C119.209 24.702 119.951 24.268 120.063 23.162H121.099C120.959 24.856 119.783 25.64 118.215 25.64ZM129.577 21.762V22.35H124.593V22.406C124.593 24.072 125.349 24.702 126.539 24.702H126.609C127.491 24.702 128.149 24.366 128.443 23.554H129.465C129.101 24.982 128.023 25.64 126.609 25.64H126.539C124.761 25.64 123.571 24.632 123.571 22.406V21.762C123.571 19.522 124.775 18.528 126.539 18.528H126.609C128.387 18.528 129.577 19.536 129.577 21.762ZM126.609 19.466H126.539C125.405 19.466 124.663 20.04 124.593 21.524H128.555C128.485 20.04 127.743 19.466 126.609 19.466ZM135.116 25.64H135.046C133.072 25.64 132.078 24.758 132.022 23.246H133.044C133.086 24.184 133.534 24.744 135.046 24.744H135.116C136.446 24.744 136.908 24.296 136.908 23.638C136.908 22.812 136.054 22.644 134.934 22.42C133.562 22.14 132.204 21.86 132.204 20.446C132.204 19.298 133.156 18.528 134.808 18.528H134.878C136.684 18.528 137.664 19.382 137.72 20.866H136.698C136.656 19.956 136.208 19.41 134.892 19.41H134.808C133.674 19.41 133.198 19.844 133.198 20.432C133.198 21.216 134.01 21.384 135.116 21.594C136.502 21.86 137.902 22.14 137.902 23.624C137.902 24.884 136.838 25.64 135.116 25.64Z" fill="white"/>
</svg>
