<svg width="240" height="40" viewBox="0 0 240 40" fill="none" xmlns="http://www.w3.org/2000/svg">
<path d="M35.996 11H27V29H36M40.5 24.5L45 20L40.5 15.5M32 19.996H45" stroke="#FFA300" stroke-width="2" stroke-linecap="round" stroke-linejoin="round"/>
<path d="M76.27 25.64H76.2C74.226 25.64 72.882 24.688 72.882 22.56H74.422C74.422 23.876 74.968 24.24 76.2 24.24H76.27C77.446 24.24 77.978 23.89 77.978 22.938C77.978 21.818 76.648 21.566 75.612 21.216C73.96 20.656 73.036 19.914 73.064 18.388C73.092 16.694 74.366 15.812 76.018 15.812H76.102C77.978 15.812 79.28 16.764 79.28 18.906H77.74C77.74 17.576 77.236 17.212 76.102 17.212H76.018C75.108 17.212 74.618 17.576 74.618 18.388C74.618 19.354 75.458 19.648 76.41 19.942C78.174 20.474 79.518 21.16 79.518 22.938C79.518 24.758 78.188 25.64 76.27 25.64ZM83.9085 15.182H86.0645V17.24H83.9085V15.182ZM86.2045 24.128H88.2905V25.5H86.2045C84.9445 25.5 84.2025 24.674 84.2025 23.512V19.872H81.6825V18.486H85.7565V23.68C85.7565 24.016 85.8405 24.128 86.2045 24.128ZM94.0111 28.244H90.3571V26.886H94.0391C94.4171 26.886 94.5011 26.788 94.5011 26.424V24.38H94.3471C94.0391 25.094 93.4231 25.64 92.3731 25.64H92.3451C90.7631 25.64 89.8531 24.478 89.8531 22.406V21.622C89.8531 19.564 90.8051 18.346 92.3031 18.346H92.3451C93.3811 18.346 93.9831 18.85 94.3051 19.522H94.4591V18.486H96.0131V26.256C96.0131 27.418 95.2851 28.244 94.0111 28.244ZM92.8491 24.198H92.9051C93.9271 24.198 94.4591 23.554 94.4591 22.308V21.678C94.4591 20.46 93.9271 19.788 92.9051 19.788H92.8491C91.8691 19.788 91.4071 20.446 91.4071 21.678V22.308C91.4071 23.54 91.8691 24.198 92.8491 24.198ZM99.9136 25.5H98.3596V18.486H99.9136V19.522H100.068C100.39 18.794 101.076 18.346 102.028 18.346H102.084C103.47 18.346 104.408 19.312 104.408 21.076V25.5H102.854V21.202C102.854 20.194 102.35 19.788 101.594 19.788H101.538C100.474 19.788 99.9136 20.46 99.9136 21.496V25.5ZM118.215 25.64H118.131C116.325 25.64 115.037 24.576 115.037 22.392V21.608C115.037 19.424 116.325 18.346 118.131 18.346H118.215C120.021 18.346 121.309 19.424 121.309 21.608V22.392C121.309 24.576 120.021 25.64 118.215 25.64ZM118.131 24.268H118.215C119.223 24.268 119.811 23.806 119.811 22.392V21.608C119.811 20.18 119.223 19.732 118.215 19.732H118.131C117.123 19.732 116.549 20.18 116.549 21.608V22.392C116.549 23.806 117.123 24.268 118.131 24.268ZM128.037 18.486H129.591V25.5H128.037V24.464H127.883C127.561 25.192 126.875 25.64 125.923 25.64H125.867C124.481 25.64 123.543 24.674 123.543 22.91V18.486H125.097V22.784C125.097 23.792 125.601 24.198 126.357 24.198H126.413C127.477 24.198 128.037 23.526 128.037 22.49V18.486ZM137.944 18.486V19.872H135.032V23.68C135.032 24.016 135.116 24.128 135.494 24.128H137.944V25.5H135.48C134.22 25.5 133.492 24.674 133.492 23.512V19.872H131.266V18.486H133.492V16.904L135.032 16.778V18.486H137.944Z" fill="#FFA300"/>
<rect width="3" height="40" fill="#FFA300"/>
</svg>
