<svg width="240" height="40" viewBox="0 0 240 40" fill="none" xmlns="http://www.w3.org/2000/svg">
<path d="M35.996 11H27V29H36M40.5 24.5L45 20L40.5 15.5M32 19.996H45" stroke="#CBCBCB" stroke-width="2" stroke-linecap="round" stroke-linejoin="round"/>
<path d="M76.298 25.64H76.228C74.282 25.64 72.952 24.744 72.952 22.574H73.988C73.988 24.184 74.758 24.688 76.228 24.688H76.298C77.684 24.688 78.412 24.156 78.412 23.05C78.412 21.664 77.054 21.398 75.92 21.034C74.66 20.614 73.162 20.068 73.162 18.262C73.176 16.708 74.338 15.812 76.032 15.812H76.102C77.894 15.812 79.21 16.694 79.21 18.864H78.188C78.188 17.254 77.39 16.764 76.102 16.764H76.032C74.8 16.764 74.212 17.296 74.212 18.262C74.212 19.522 75.374 19.816 76.424 20.152C77.726 20.558 79.448 21.062 79.448 23.05C79.448 24.73 78.174 25.64 76.298 25.64ZM84.1465 15.308H85.8265V16.96H84.1465V15.308ZM85.8545 24.562H88.2065V25.5H86.0785C85.0285 25.5 84.4685 24.814 84.4685 23.806V19.606H81.7665V18.668H85.5045V24.17C85.5045 24.45 85.6165 24.562 85.8545 24.562ZM94.2351 28.23H90.4691V27.292H94.4451C94.6971 27.292 94.8231 27.18 94.8231 26.9V24.338H94.6831C94.3471 25.094 93.6471 25.64 92.6111 25.64H92.5691C91.0991 25.64 89.9931 24.618 89.9931 22.406V21.748C89.9931 19.536 91.0991 18.528 92.5271 18.528H92.5831C93.6191 18.528 94.3331 19.06 94.6691 19.788H94.8091V18.668H95.8451V26.536C95.8451 27.544 95.2851 28.23 94.2351 28.23ZM92.8211 24.674H92.8771C93.8991 24.674 94.8091 24.086 94.8091 22.35V21.776C94.8091 20.11 93.8991 19.494 92.8771 19.494H92.8211C91.7711 19.494 91.0291 20.082 91.0291 21.776V22.35C91.0291 24.058 91.7711 24.674 92.8211 24.674ZM99.5636 25.5H98.5276V18.668H99.5636V19.788H99.6896C100.026 19.018 100.838 18.528 101.818 18.528H101.874C103.428 18.528 104.24 19.494 104.24 21.37V25.5H103.204V21.412C103.204 20.012 102.644 19.494 101.65 19.494H101.594C100.516 19.494 99.5636 20.096 99.5636 21.538V25.5ZM118.215 25.64H118.145C116.367 25.64 115.177 24.632 115.177 22.406V21.762C115.177 19.522 116.381 18.528 118.145 18.528H118.215C119.993 18.528 121.183 19.536 121.183 21.762V22.406C121.183 24.646 119.979 25.64 118.215 25.64ZM118.145 24.702H118.215C119.405 24.702 120.161 24.072 120.161 22.406V21.762C120.161 20.096 119.405 19.466 118.215 19.466H118.145C116.955 19.466 116.199 20.096 116.199 21.762V22.406C116.199 24.072 116.955 24.702 118.145 24.702ZM128.387 18.668H129.423V25.5H128.387V24.38H128.261C127.925 25.15 127.113 25.64 126.133 25.64H126.077C124.523 25.64 123.711 24.674 123.711 22.798V18.668H124.747V22.756C124.747 24.156 125.307 24.674 126.301 24.674H126.357C127.435 24.674 128.387 24.072 128.387 22.63V18.668ZM137.972 18.668V19.606H134.71V24.17C134.71 24.45 134.836 24.562 135.06 24.562H137.972V25.5H135.284C134.234 25.5 133.674 24.814 133.674 23.806V19.606H131.35V18.668H133.674V17.002L134.71 16.918V18.668H137.972Z" fill="white"/>
</svg>
