<svg width="304" height="370" viewBox="0 0 304 370" fill="none" xmlns="http://www.w3.org/2000/svg">
<path d="M89.892 205.973C125.974 225.231 184.477 225.231 220.559 205.973C256.642 186.716 256.647 155.483 220.559 136.226C184.471 116.968 125.974 116.963 89.892 136.226C53.8095 155.489 53.8095 186.711 89.892 205.973Z" fill="#EBEBEB"/>
<path d="M231.173 158.192L225.909 155.132C225.909 155.132 224.619 143.856 225.476 135.124C226.685 122.849 234.61 108.094 244.06 111.552C253.511 115.01 239.72 127.541 236.66 137.945C233.6 148.349 231.173 158.192 231.173 158.192Z" fill="#FFA300"/>
<path opacity="0.1" d="M231.173 158.192L225.909 155.132C225.909 155.132 224.619 143.856 225.476 135.124C226.685 122.849 234.61 108.094 244.06 111.552C253.511 115.01 239.72 127.541 236.66 137.945C233.6 148.349 231.173 158.192 231.173 158.192Z" fill="black"/>
<path d="M228.434 156.81C228.385 156.81 228.337 156.793 228.3 156.761C228.262 156.729 228.237 156.685 228.23 156.636C226.44 142.866 231.341 122.053 241.235 114.158C241.255 114.142 241.279 114.13 241.304 114.122C241.329 114.115 241.356 114.113 241.382 114.115C241.408 114.118 241.433 114.126 241.456 114.139C241.479 114.152 241.499 114.169 241.516 114.189C241.549 114.231 241.565 114.285 241.559 114.338C241.553 114.392 241.527 114.441 241.485 114.475C231.698 122.288 226.858 142.938 228.633 156.58C228.64 156.634 228.626 156.688 228.594 156.731C228.561 156.774 228.513 156.802 228.46 156.81H228.434Z" fill="white"/>
<path d="M233.983 160.37L230.24 158.202C230.24 158.202 229.602 150.465 233.396 141.066C236.696 132.906 244.892 126.092 249.013 127.52C253.133 128.948 253.031 131.871 251.022 134.936C249.013 138.001 236.788 145.309 233.983 160.37Z" fill="#FFA300"/>
<path d="M231.662 160.568C231.636 160.567 231.61 160.56 231.586 160.549C231.562 160.537 231.54 160.521 231.523 160.501C231.505 160.481 231.492 160.458 231.483 160.432C231.475 160.407 231.472 160.381 231.474 160.354C232.708 141.096 242.449 131.626 248.304 130.182C248.356 130.17 248.412 130.178 248.459 130.206C248.505 130.234 248.539 130.278 248.554 130.33C248.566 130.382 248.557 130.437 248.53 130.483C248.502 130.529 248.458 130.562 248.406 130.575C242.24 132.105 233.039 142.356 231.887 160.38C231.885 160.407 231.878 160.433 231.865 160.458C231.853 160.482 231.836 160.504 231.815 160.521C231.794 160.539 231.769 160.552 231.743 160.56C231.717 160.568 231.69 160.571 231.662 160.568Z" fill="white"/>
<path d="M79.5803 159.691C79.5803 159.691 80.279 148.385 73.7102 140.633C67.1414 132.881 58.5887 132.911 55.7582 134.355C52.9277 135.798 51.0254 139.924 55.8959 142.877C60.7664 145.83 71.1245 151.74 72.8483 157.014L79.5803 159.691Z" fill="#FFA300"/>
<path opacity="0.1" d="M79.5803 159.691C79.5803 159.691 80.279 148.385 73.7102 140.633C67.1414 132.881 58.5887 132.911 55.7582 134.355C52.9277 135.798 51.0254 139.924 55.8959 142.877C60.7664 145.83 71.1245 151.74 72.8483 157.014L79.5803 159.691Z" fill="black"/>
<path d="M76.4898 156.861C76.4267 156.86 76.366 156.836 76.3191 156.794C76.2722 156.752 76.2422 156.694 76.2348 156.631C74.8833 144.121 62.3781 137.19 57.3954 136.404C57.3619 136.399 57.3297 136.388 57.3007 136.37C57.2717 136.353 57.2464 136.33 57.2263 136.303C57.2061 136.275 57.1916 136.245 57.1834 136.212C57.1752 136.179 57.1736 136.145 57.1786 136.111C57.1837 136.078 57.1952 136.046 57.2127 136.017C57.2301 135.988 57.2531 135.962 57.2804 135.942C57.3076 135.922 57.3385 135.907 57.3714 135.899C57.4042 135.891 57.4384 135.889 57.4719 135.894C62.5719 136.695 75.3576 143.784 76.7448 156.575C76.7483 156.608 76.7451 156.642 76.7355 156.675C76.7258 156.707 76.7099 156.737 76.6885 156.763C76.6672 156.789 76.6409 156.811 76.6112 156.827C76.5814 156.842 76.5488 156.852 76.5153 156.855L76.4898 156.861Z" fill="white"/>
<path d="M74.0569 153.989C72.4096 150.236 70.5481 148.553 65.1931 149.45C59.8381 150.348 60.6031 150.21 54.0496 148.532C51.2854 147.828 48.1795 147.716 45.5275 148.91C43.2886 149.93 41.6158 151.97 43.7833 154.142C46.2211 156.57 49.8574 157.401 52.5502 159.538C53.1611 159.97 53.6467 160.556 53.9578 161.236C54.6667 163.042 53.2489 165.077 53.662 166.969C54.0751 168.861 56.0641 169.871 57.9307 169.993C59.7973 170.115 61.6384 169.554 63.4999 169.34C65.3614 169.126 67.4524 169.34 68.7376 170.722C70.1146 172.186 70.1503 174.527 71.4304 176.082C73.348 178.413 78.0604 179.061 80.6104 177.612L87.2863 173.762C91.6978 167.815 84.7363 163.103 81.0898 158.487C79.3201 156.238 75.0463 156.248 74.0569 153.989Z" fill="#FFA300"/>
<path d="M83.1504 170.172C83.1069 170.173 83.0641 170.162 83.0263 170.14C82.9886 170.119 82.9575 170.087 82.9362 170.049C75.3219 157.712 54.5904 151.47 47.2566 150.96C47.1898 150.955 47.1278 150.923 47.0839 150.873C47.04 150.822 47.0178 150.756 47.022 150.69C47.0272 150.622 47.0583 150.56 47.1087 150.515C47.1592 150.47 47.225 150.447 47.2923 150.45C54.723 150.96 75.6534 157.294 83.3697 169.794C83.4039 169.853 83.4139 169.922 83.3977 169.988C83.3815 170.053 83.3404 170.11 83.283 170.146C83.2413 170.165 83.196 170.173 83.1504 170.172Z" fill="white"/>
<path d="M59.0323 164.358C58.9926 164.358 58.9533 164.35 58.9177 164.332C58.8822 164.314 58.8515 164.288 58.8283 164.256C58.7878 164.201 58.7703 164.133 58.7799 164.066C58.7895 164 58.8252 163.939 58.8793 163.899C59.1445 163.7 65.4685 159.059 71.6293 158.967C71.6626 158.966 71.6956 158.972 71.7265 158.984C71.7575 158.997 71.7856 159.015 71.8094 159.038C71.8331 159.061 71.852 159.089 71.8648 159.12C71.8777 159.151 71.8844 159.183 71.8843 159.217C71.885 159.25 71.8791 159.284 71.8669 159.315C71.8547 159.346 71.8365 159.374 71.8133 159.399C71.7901 159.423 71.7623 159.442 71.7316 159.455C71.701 159.469 71.6679 159.476 71.6344 159.477C65.6521 159.564 59.2618 164.261 59.1955 164.307C59.1495 164.343 59.0912 164.362 59.0323 164.358Z" fill="white"/>
<path d="M82.6758 174.507C82.7303 175.248 82.9586 175.967 83.3422 176.604C83.7259 177.241 84.2541 177.779 84.8841 178.174L146.762 213.899C147.447 214.246 148.203 214.427 148.971 214.427C149.738 214.427 150.495 214.246 151.179 213.899L235.839 165.016C236.506 164.663 237.065 164.136 237.454 163.49C237.844 162.843 238.05 162.103 238.05 161.349C238.05 160.594 237.844 159.854 237.454 159.208C237.065 158.562 236.506 158.034 235.839 157.682L173.966 121.982C173.281 121.635 172.525 121.454 171.757 121.454C170.99 121.454 170.234 121.635 169.549 121.982L84.8841 170.85C84.2554 171.244 83.728 171.78 83.3444 172.415C82.9609 173.05 82.7318 173.767 82.6758 174.507Z" fill="#37474F"/>
<path d="M108.206 157.375L84.8838 170.85C84.2165 171.202 83.6579 171.729 83.2683 172.376C82.8787 173.022 82.6729 173.762 82.6729 174.517C82.6729 175.271 82.8787 176.011 83.2683 176.658C83.6579 177.304 84.2165 177.831 84.8838 178.183L146.762 213.909C147.443 214.264 148.203 214.44 148.97 214.419V157.375H108.206Z" fill="#263238"/>
<path d="M80.5999 170.921C79.9853 170.502 79.4777 169.945 79.118 169.294C78.7583 168.643 78.5567 167.916 78.5293 167.173V93.3299C78.5704 92.5635 78.7918 91.8177 79.1755 91.153C79.5592 90.4883 80.0944 89.9237 80.7376 89.5049L165.398 40.6214C166.037 40.2206 166.773 40.0014 167.527 39.9875C168.281 39.9736 169.025 40.1655 169.678 40.5425C170.332 40.9196 170.87 41.4675 171.235 42.1274C171.601 42.7874 171.779 43.5344 171.752 44.2883V118.136C171.71 118.902 171.489 119.648 171.105 120.313C170.721 120.977 170.186 121.542 169.544 121.961L84.8839 170.85C84.2255 171.197 83.4946 171.384 82.7504 171.397C82.0062 171.409 81.2695 171.246 80.5999 170.921Z" fill="#455A64"/>
<path d="M88.8927 96.7623L79.1772 91.1523C78.7902 91.8142 78.5779 92.5636 78.5601 93.33V167.173C78.5875 167.916 78.7891 168.643 79.1488 169.294C79.5084 169.945 80.016 170.503 80.6307 170.921C81.3004 171.244 82.0366 171.405 82.7798 171.391C83.5231 171.377 84.2526 171.188 84.9096 170.84L94.569 165.266L88.8927 96.7623Z" fill="#263238"/>
<path d="M82.6758 95.7271V169.565C82.6758 170.973 83.6652 171.544 84.8841 170.84L169.544 121.962C170.187 121.542 170.721 120.977 171.105 120.313C171.489 119.648 171.711 118.903 171.752 118.137V44.2936C171.752 42.886 170.763 42.3148 169.544 43.0186L84.8841 91.9021C84.2409 92.3209 83.7057 92.8856 83.322 93.5502C82.9382 94.2149 82.7168 94.9607 82.6758 95.7271Z" fill="#37474F"/>
<path d="M84.8838 173.4L146.762 209.1C147.446 209.447 148.203 209.628 148.97 209.628C149.738 209.628 150.494 209.447 151.179 209.1L235.839 160.216C237.063 159.512 237.063 158.37 235.839 157.666L173.966 121.966C173.281 121.619 172.525 121.438 171.757 121.438C170.99 121.438 170.233 121.619 169.549 121.966L84.8838 170.85C83.6598 171.543 83.6598 172.686 84.8838 173.4Z" fill="#455A64"/>
<path d="M86.0721 95.9972L168.361 48.4907C169.09 48.0674 169.687 48.4091 169.687 49.2557V113.174C169.661 113.634 169.527 114.081 169.297 114.48C169.067 114.878 168.746 115.217 168.361 115.469L86.0721 162.976C85.3377 163.399 84.7461 163.057 84.7461 162.211V98.2922C84.7706 97.8322 84.9035 97.3846 85.1339 96.9857C85.3644 96.5869 85.6858 96.2482 86.0721 95.9972Z" fill="white"/>
<path d="M92.0648 171.477L170.651 126.087C170.993 125.914 171.371 125.823 171.755 125.823C172.138 125.823 172.517 125.914 172.859 126.087L176.883 128.408C177.016 128.453 177.132 128.539 177.214 128.653C177.296 128.767 177.34 128.904 177.34 129.045C177.34 129.186 177.296 129.323 177.214 129.437C177.132 129.552 177.016 129.637 176.883 129.683L98.2817 175.067C97.9395 175.241 97.5612 175.331 97.1775 175.331C96.7939 175.331 96.4156 175.241 96.0734 175.067L92.0648 172.752C91.9316 172.707 91.8159 172.621 91.7339 172.507C91.652 172.392 91.6079 172.255 91.6079 172.115C91.6079 171.974 91.652 171.837 91.7339 171.722C91.8159 171.608 91.9316 171.522 92.0648 171.477Z" fill="#263238"/>
<path d="M102.428 177.48L181.009 132.09C181.352 131.917 181.731 131.826 182.115 131.826C182.5 131.826 182.879 131.917 183.222 132.09L207.942 146.37C208.075 146.415 208.191 146.501 208.273 146.615C208.355 146.73 208.399 146.867 208.399 147.007C208.399 147.148 208.355 147.285 208.273 147.4C208.191 147.514 208.075 147.6 207.942 147.645L129.448 192.943C129.105 193.117 128.726 193.207 128.341 193.207C127.957 193.207 127.577 193.117 127.234 192.943L102.428 178.73C102.301 178.681 102.192 178.596 102.115 178.484C102.038 178.373 101.997 178.24 101.997 178.105C101.997 177.969 102.038 177.837 102.115 177.725C102.192 177.614 102.301 177.528 102.428 177.48Z" fill="#263238"/>
<path d="M172.869 152.49L175.333 151.067C175.435 151.006 175.429 150.909 175.333 150.843L172.487 149.201C172.426 149.169 172.359 149.153 172.29 149.153C172.222 149.153 172.155 149.169 172.094 149.201L169.636 150.623C169.529 150.685 169.534 150.782 169.636 150.848L172.482 152.49C172.542 152.521 172.608 152.536 172.675 152.536C172.743 152.536 172.809 152.521 172.869 152.49ZM168.014 146.88L165.556 148.303C165.449 148.359 165.454 148.461 165.556 148.527L168.402 150.17C168.462 150.201 168.53 150.217 168.598 150.217C168.666 150.217 168.734 150.201 168.794 150.17L171.258 148.747C171.36 148.685 171.355 148.583 171.258 148.522L168.407 146.88C168.346 146.849 168.279 146.832 168.21 146.832C168.142 146.832 168.075 146.849 168.014 146.88ZM160.068 151.47L155.902 153.872C155.8 153.933 155.805 154.035 155.902 154.102L158.747 155.744C158.808 155.775 158.875 155.792 158.944 155.792C159.012 155.792 159.079 155.775 159.14 155.744L163.302 153.342C163.409 153.281 163.399 153.179 163.302 153.117L160.456 151.47C160.396 151.439 160.33 151.422 160.262 151.422C160.195 151.422 160.128 151.439 160.068 151.47ZM164.419 148.956L161.96 150.379C161.853 150.44 161.858 150.542 161.96 150.603L164.806 152.245C164.867 152.277 164.934 152.293 165.002 152.293C165.071 152.293 165.138 152.277 165.199 152.245L167.662 150.822C167.764 150.761 167.759 150.664 167.662 150.598L164.811 148.92C164.751 148.889 164.683 148.872 164.615 148.872C164.547 148.872 164.479 148.889 164.419 148.92V148.956ZM154.764 154.53L152.306 155.948C152.199 156.009 152.209 156.111 152.306 156.177L155.152 157.82C155.212 157.85 155.278 157.865 155.346 157.865C155.413 157.865 155.479 157.85 155.539 157.82L158.003 156.397C158.105 156.335 158.1 156.233 158.003 156.172L155.157 154.53C155.096 154.499 155.029 154.482 154.961 154.482C154.892 154.482 154.825 154.499 154.764 154.53ZM151.194 156.606L148.736 158.029C148.629 158.085 148.639 158.187 148.736 158.253L151.582 159.895C151.643 159.927 151.71 159.943 151.778 159.943C151.847 159.943 151.914 159.927 151.975 159.895L154.438 158.472C154.54 158.411 154.535 158.309 154.438 158.248L151.561 156.57C151.501 156.539 151.433 156.522 151.365 156.522C151.297 156.522 151.229 156.539 151.169 156.57L151.194 156.606ZM162.389 163.287L164.847 161.864C164.954 161.803 164.944 161.706 164.847 161.639L162.001 159.997C161.941 159.966 161.875 159.95 161.807 159.95C161.74 159.95 161.673 159.966 161.614 159.997L159.15 161.42C159.048 161.481 159.053 161.578 159.15 161.645L161.996 163.287C162.055 163.31 162.119 163.32 162.183 163.315C162.246 163.311 162.308 163.293 162.363 163.261L162.389 163.287ZM158.788 165.362L161.251 163.94C161.353 163.883 161.348 163.781 161.251 163.715L158.406 162.073C158.345 162.042 158.278 162.025 158.209 162.025C158.141 162.025 158.074 162.042 158.013 162.073L155.555 163.496C155.448 163.557 155.458 163.659 155.555 163.72L158.401 165.362C158.459 165.386 158.522 165.395 158.585 165.391C158.647 165.387 158.708 165.368 158.763 165.337L158.788 165.362ZM155.193 167.438L157.656 166.02C157.758 165.959 157.753 165.857 157.656 165.791L154.81 164.149C154.749 164.119 154.682 164.103 154.614 164.103C154.546 164.103 154.479 164.119 154.417 164.149L151.959 165.572C151.852 165.633 151.862 165.735 151.959 165.796L154.8 167.438C154.859 167.461 154.923 167.471 154.986 167.467C155.05 167.462 155.112 167.444 155.167 167.413L155.193 167.438ZM151.623 169.514L154.086 168.096C154.188 168.035 154.183 167.933 154.086 167.867L151.24 166.224C151.179 166.193 151.112 166.177 151.044 166.177C150.975 166.177 150.908 166.193 150.847 166.224L148.389 167.642C148.282 167.703 148.287 167.805 148.389 167.872L151.235 169.514C151.346 169.55 151.467 169.541 151.572 169.488L151.623 169.514ZM169.325 154.601L171.788 153.179C171.89 153.122 171.885 153.02 171.788 152.954L168.942 151.312C168.881 151.282 168.814 151.266 168.746 151.266C168.678 151.266 168.611 151.282 168.55 151.312L166.091 152.735C165.984 152.796 165.989 152.898 166.091 152.959L168.937 154.601C168.992 154.62 169.05 154.628 169.108 154.623C169.166 154.619 169.222 154.603 169.274 154.576L169.325 154.601ZM166.01 161.231L171.497 158.059C171.599 158.003 171.594 157.901 171.497 157.835L164.587 153.847C164.526 153.815 164.459 153.799 164.391 153.799C164.322 153.799 164.255 153.815 164.194 153.847L161.359 155.489C161.251 155.545 161.262 155.647 161.359 155.713L165.02 157.825C165.133 157.891 165.138 157.993 165.02 158.054L162.71 159.309C162.608 159.365 162.613 159.467 162.71 159.533L165.566 161.16C165.625 161.195 165.691 161.216 165.759 161.221C165.828 161.225 165.896 161.213 165.959 161.186L166.01 161.231ZM147.624 158.681L145.166 160.104C145.059 160.166 145.064 160.262 145.166 160.329L148.012 161.971C148.073 162.002 148.14 162.019 148.208 162.019C148.277 162.019 148.344 162.002 148.405 161.971L150.868 160.548C150.97 160.487 150.965 160.39 150.868 160.324L148.022 158.681C147.957 158.636 147.881 158.61 147.801 158.605C147.722 158.601 147.643 158.618 147.573 158.656L147.624 158.681ZM144.054 160.757L141.514 162.18C141.412 162.241 141.418 162.343 141.514 162.404L144.36 164.047C144.421 164.078 144.488 164.094 144.557 164.094C144.625 164.094 144.692 164.078 144.753 164.047L147.216 162.624C147.318 162.568 147.313 162.466 147.216 162.399L144.35 160.742C144.293 160.712 144.23 160.696 144.165 160.694C144.101 160.692 144.037 160.705 143.978 160.732L144.054 160.757ZM125.99 184.013C126.051 184.044 126.118 184.061 126.186 184.061C126.255 184.061 126.322 184.044 126.383 184.013L128.846 182.59C128.948 182.534 128.943 182.432 128.846 182.366L125.99 180.734C125.929 180.703 125.862 180.686 125.794 180.686C125.725 180.686 125.658 180.703 125.597 180.734L123.139 182.157C123.032 182.218 123.037 182.32 123.139 182.381L125.99 184.013ZM115.193 177.342L112.73 178.765C112.628 178.826 112.633 178.923 112.73 178.99L115.576 180.632C115.637 180.663 115.704 180.68 115.772 180.68C115.841 180.68 115.908 180.663 115.969 180.632L118.432 179.209C118.534 179.148 118.529 179.051 118.432 178.985L115.586 177.342C115.527 177.314 115.463 177.299 115.397 177.299C115.332 177.299 115.267 177.314 115.209 177.342H115.193ZM120.982 182.213C121.043 182.244 121.11 182.261 121.178 182.261C121.247 182.261 121.314 182.244 121.375 182.213L123.833 180.79C123.94 180.734 123.93 180.632 123.833 180.566L120.992 178.923C120.931 178.892 120.864 178.876 120.796 178.876C120.727 178.876 120.66 178.892 120.599 178.923L118.136 180.346C118.034 180.407 118.039 180.509 118.136 180.571L120.982 182.213ZM132.34 185.273L134.803 183.85C134.905 183.789 134.9 183.692 134.803 183.626L131.957 181.983C131.896 181.952 131.829 181.936 131.761 181.936C131.692 181.936 131.625 181.952 131.564 181.983L129.106 183.406C128.999 183.462 129.009 183.564 129.106 183.631L131.947 185.273C132.009 185.308 132.079 185.326 132.15 185.327C132.221 185.328 132.292 185.311 132.355 185.278L132.34 185.273ZM128.351 187.313C128.412 187.344 128.479 187.361 128.548 187.361C128.616 187.361 128.683 187.344 128.744 187.313L131.207 185.89C131.309 185.834 131.304 185.732 131.207 185.666L128.362 184.023C128.301 183.992 128.234 183.976 128.165 183.976C128.097 183.976 128.03 183.992 127.969 184.023L125.511 185.446C125.404 185.507 125.409 185.609 125.511 185.671L128.351 187.313ZM118.789 175.236L116.331 176.659C116.224 176.715 116.229 176.817 116.331 176.883L119.176 178.526C119.237 178.557 119.304 178.573 119.373 178.573C119.441 178.573 119.508 178.557 119.569 178.526L122.032 177.103C122.134 177.041 122.129 176.939 122.032 176.878L119.187 175.236C119.125 175.211 119.058 175.201 118.992 175.206C118.925 175.211 118.861 175.232 118.804 175.267L118.789 175.236ZM136.771 164.858L134.308 166.275C134.206 166.337 134.211 166.439 134.308 166.5L137.154 168.147C137.215 168.177 137.282 168.193 137.35 168.193C137.418 168.193 137.486 168.177 137.547 168.147L140.005 166.729C140.112 166.668 140.107 166.566 140.005 166.5L137.159 164.858C137.099 164.834 137.034 164.825 136.969 164.83C136.905 164.835 136.842 164.855 136.787 164.888L136.771 164.858ZM122.42 173.191L119.962 174.609C119.855 174.67 119.86 174.772 119.962 174.838L122.808 176.48C122.869 176.511 122.936 176.526 123.004 176.526C123.072 176.526 123.139 176.511 123.2 176.48L125.664 175.058C125.766 174.996 125.761 174.894 125.664 174.833L122.818 173.186C122.756 173.156 122.687 173.14 122.618 173.141C122.549 173.142 122.481 173.159 122.42 173.191ZM140.403 162.807L137.919 164.22C137.817 164.281 137.822 164.383 137.919 164.444L140.765 166.087C140.825 166.118 140.893 166.134 140.961 166.134C141.029 166.134 141.097 166.118 141.157 166.087L143.616 164.669C143.723 164.608 143.718 164.506 143.616 164.439L140.78 162.818C140.719 162.785 140.651 162.767 140.582 162.765C140.513 162.764 140.445 162.778 140.382 162.807H140.403ZM133.212 166.964L130.748 168.382C130.646 168.443 130.651 168.545 130.748 168.611L133.594 170.253C133.655 170.283 133.722 170.299 133.791 170.299C133.859 170.299 133.926 170.283 133.987 170.253L136.445 168.836C136.552 168.774 136.542 168.672 136.445 168.606L133.604 166.964C133.541 166.93 133.47 166.913 133.398 166.913C133.326 166.913 133.255 166.93 133.191 166.964H133.212ZM129.611 169.04L127.153 170.457C127.046 170.519 127.056 170.621 127.153 170.687L129.999 172.329C130.06 172.359 130.127 172.375 130.195 172.375C130.263 172.375 130.33 172.359 130.391 172.329L132.85 170.911C132.952 170.85 132.946 170.748 132.85 170.682L130.004 169.04C129.94 169.006 129.869 168.989 129.797 168.989C129.725 168.989 129.654 169.006 129.591 169.04H129.611ZM125.99 171.115L123.532 172.533C123.425 172.594 123.435 172.696 123.532 172.763L126.373 174.405C126.433 174.436 126.501 174.452 126.569 174.452C126.637 174.452 126.705 174.436 126.765 174.405L129.229 172.987C129.331 172.926 129.325 172.824 129.229 172.757L126.383 171.115C126.322 171.085 126.255 171.069 126.186 171.069C126.118 171.069 126.051 171.085 125.99 171.115ZM144.376 173.665L146.834 172.247C146.941 172.186 146.936 172.084 146.834 172.018L143.983 170.34C143.922 170.31 143.855 170.294 143.787 170.294C143.718 170.294 143.651 170.31 143.59 170.34L141.127 171.758C141.025 171.819 141.03 171.921 141.127 171.987L143.973 173.63C144.034 173.665 144.104 173.685 144.175 173.686C144.247 173.688 144.317 173.672 144.381 173.64L144.376 173.665ZM175.97 142.29L173.507 143.713C173.405 143.774 173.41 143.871 173.507 143.937L176.353 145.58C176.413 145.611 176.481 145.627 176.549 145.627C176.617 145.627 176.685 145.611 176.745 145.58L179.203 144.157C179.311 144.095 179.305 143.999 179.203 143.932L176.358 142.29C176.298 142.26 176.231 142.244 176.164 142.244C176.097 142.244 176.03 142.26 175.97 142.29ZM171.615 144.804L169.156 146.227C169.049 146.283 169.06 146.385 169.156 146.452L171.997 148.094C172.058 148.124 172.125 148.14 172.194 148.14C172.262 148.14 172.329 148.124 172.39 148.094L174.853 146.671C174.955 146.61 174.95 146.508 174.853 146.447L172.007 144.804C171.948 144.768 171.881 144.747 171.812 144.743C171.742 144.738 171.673 144.751 171.61 144.779L171.615 144.804ZM179.566 140.214L177.107 141.637C177 141.693 177.005 141.795 177.107 141.862L179.953 143.504C180.014 143.535 180.081 143.552 180.15 143.552C180.218 143.552 180.285 143.535 180.346 143.504L182.809 142.081C182.911 142.02 182.906 141.918 182.809 141.857L179.963 140.214C179.901 140.174 179.829 140.15 179.755 140.146C179.681 140.141 179.607 140.156 179.54 140.189L179.566 140.214ZM160.951 159.411L163.414 157.988C163.516 157.927 163.511 157.825 163.414 157.763L160.568 156.121C160.507 156.09 160.44 156.074 160.372 156.074C160.303 156.074 160.236 156.09 160.175 156.121L157.717 157.544C157.61 157.6 157.615 157.702 157.717 157.769L160.563 159.411C160.624 159.437 160.691 159.448 160.757 159.443C160.824 159.439 160.888 159.419 160.945 159.385L160.951 159.411ZM183.554 138.149C183.493 138.118 183.426 138.101 183.357 138.101C183.289 138.101 183.222 138.118 183.161 138.149L180.703 139.572C180.596 139.628 180.601 139.73 180.703 139.796L183.549 141.438C183.61 141.468 183.677 141.484 183.745 141.484C183.813 141.484 183.88 141.468 183.941 141.438L186.405 140.015C186.507 139.954 186.502 139.852 186.405 139.791L183.554 138.149ZM147.976 171.564L150.439 170.146C150.541 170.085 150.536 169.983 150.439 169.917L147.578 168.3C147.518 168.269 147.45 168.252 147.382 168.252C147.314 168.252 147.246 168.269 147.186 168.3L144.727 169.718C144.62 169.779 144.625 169.881 144.727 169.947L147.573 171.59C147.638 171.617 147.708 171.63 147.778 171.625C147.848 171.621 147.916 171.6 147.976 171.564ZM192.076 146.105L194.539 144.682C194.641 144.626 194.636 144.524 194.539 144.458L191.678 142.8C191.617 142.769 191.55 142.752 191.482 142.752C191.413 142.752 191.346 142.769 191.285 142.8L188.827 144.223C188.72 144.284 188.725 144.386 188.827 144.447L191.673 146.09C191.734 146.125 191.802 146.145 191.872 146.148C191.943 146.15 192.013 146.136 192.076 146.105ZM184.426 145.835L186.889 144.412C186.991 144.35 186.986 144.254 186.889 144.187L184.043 142.545C183.983 142.514 183.915 142.497 183.847 142.497C183.779 142.497 183.711 142.514 183.651 142.545L181.192 143.968C181.085 144.029 181.09 144.126 181.192 144.192L184.038 145.835C184.095 145.867 184.159 145.887 184.224 145.891C184.289 145.896 184.355 145.885 184.416 145.86L184.426 145.835ZM187.624 140.469C187.563 140.438 187.496 140.422 187.427 140.422C187.359 140.422 187.292 140.438 187.231 140.469L184.773 141.892C184.666 141.948 184.671 142.05 184.773 142.117L187.618 143.759C187.679 143.79 187.746 143.807 187.815 143.807C187.883 143.807 187.95 143.79 188.011 143.759L190.474 142.336C190.576 142.275 190.571 142.173 190.474 142.112L187.624 140.469ZM188.383 140.031L195.289 144.019C195.35 144.05 195.417 144.067 195.485 144.067C195.554 144.067 195.621 144.05 195.682 144.019L198.145 142.596C198.247 142.535 198.242 142.438 198.145 142.372L191.234 138.383C191.174 138.352 191.106 138.336 191.038 138.336C190.97 138.336 190.902 138.352 190.842 138.383L188.383 139.806C188.251 139.862 188.261 139.964 188.373 140.031H188.383ZM180.04 144.621L177.577 146.044C177.475 146.105 177.48 146.207 177.577 146.268L180.422 147.91C180.483 147.942 180.55 147.958 180.619 147.958C180.687 147.958 180.754 147.942 180.815 147.91L183.273 146.487C183.38 146.431 183.375 146.329 183.273 146.263L180.427 144.621C180.369 144.59 180.305 144.574 180.24 144.572C180.175 144.57 180.11 144.583 180.05 144.611L180.04 144.621ZM152.974 160.247L150.501 161.67C150.399 161.731 150.404 161.833 150.501 161.894L153.346 163.537C153.407 163.568 153.474 163.584 153.543 163.584C153.611 163.584 153.678 163.568 153.739 163.537L156.197 162.114C156.304 162.058 156.299 161.956 156.197 161.889L153.352 160.247C153.292 160.215 153.226 160.197 153.159 160.196C153.092 160.194 153.025 160.208 152.964 160.237L152.974 160.247ZM188.098 148.181C188.159 148.212 188.226 148.228 188.294 148.228C188.363 148.228 188.43 148.212 188.491 148.181L190.954 146.758C191.056 146.702 191.051 146.6 190.954 146.533L188.108 144.891C188.047 144.861 187.98 144.845 187.912 144.845C187.844 144.845 187.776 144.861 187.715 144.891L185.257 146.314C185.15 146.375 185.155 146.477 185.257 146.538L188.098 148.181ZM156.57 158.171L154.111 159.594C154.004 159.656 154.009 159.752 154.111 159.819L156.957 161.461C157.018 161.492 157.085 161.509 157.154 161.509C157.222 161.509 157.289 161.492 157.35 161.461L159.813 160.038C159.915 159.977 159.91 159.88 159.813 159.814L156.967 158.171C156.906 158.136 156.836 158.116 156.765 158.115C156.694 158.113 156.623 158.129 156.559 158.161L156.57 158.171ZM129.611 181.948C129.672 181.979 129.739 181.995 129.807 181.995C129.876 181.995 129.943 181.979 130.004 181.948L132.467 180.525C132.569 180.464 132.564 180.367 132.467 180.3L129.621 178.658C129.561 178.627 129.493 178.611 129.425 178.611C129.357 178.611 129.289 178.627 129.229 178.658L126.77 180.081C126.663 180.142 126.673 180.239 126.77 180.305L129.611 181.948ZM124.205 176.848L121.742 178.271C121.64 178.332 121.645 178.429 121.742 178.495L124.588 180.137C124.648 180.168 124.716 180.185 124.784 180.185C124.852 180.185 124.92 180.168 124.98 180.137L127.438 178.714C127.546 178.653 127.54 178.556 127.438 178.49L124.593 176.848C124.531 176.816 124.463 176.799 124.394 176.799C124.324 176.799 124.256 176.816 124.195 176.848H124.205ZM133.604 179.872L136.063 178.449C136.165 178.388 136.159 178.286 136.063 178.225L133.217 176.582C133.156 176.551 133.089 176.535 133.02 176.535C132.952 176.535 132.885 176.551 132.824 176.582L130.34 177.99C130.238 178.046 130.243 178.148 130.34 178.214L133.186 179.857C133.248 179.893 133.317 179.913 133.388 179.916C133.459 179.919 133.53 179.904 133.594 179.872H133.604ZM137.2 177.796L139.658 176.373C139.765 176.312 139.755 176.21 139.658 176.149L136.817 174.507C136.757 174.475 136.689 174.459 136.621 174.459C136.553 174.459 136.485 174.475 136.425 174.507L133.961 175.925C133.859 175.986 133.864 176.088 133.961 176.154L136.807 177.796C136.87 177.828 136.939 177.845 137.009 177.845C137.079 177.845 137.148 177.828 137.21 177.796H137.2ZM140.77 175.715L143.228 174.298C143.335 174.236 143.33 174.134 143.228 174.073L140.382 172.426C140.321 172.396 140.254 172.38 140.186 172.38C140.118 172.38 140.051 172.396 139.99 172.426L137.526 173.844C137.424 173.905 137.429 174.007 137.526 174.073L140.372 175.715C140.435 175.749 140.505 175.767 140.576 175.767C140.647 175.767 140.717 175.749 140.78 175.715H140.77ZM127.775 174.772L125.312 176.195C125.21 176.251 125.215 176.353 125.312 176.419L128.158 178.061C128.218 178.093 128.286 178.109 128.354 178.109C128.422 178.109 128.49 178.093 128.55 178.061L131.014 176.639C131.116 176.577 131.11 176.475 131.014 176.414L128.168 174.772C128.109 174.743 128.044 174.728 127.979 174.728C127.914 174.728 127.849 174.743 127.79 174.772H127.775ZM131.371 172.696L128.912 174.114C128.805 174.175 128.81 174.277 128.912 174.344L131.758 175.986C131.819 176.016 131.886 176.032 131.955 176.032C132.023 176.032 132.09 176.016 132.151 175.986L134.66 174.573C134.762 174.512 134.757 174.41 134.66 174.349L131.814 172.706C131.75 172.667 131.677 172.646 131.601 172.644C131.526 172.642 131.452 172.66 131.386 172.696H131.371ZM145.758 164.393L143.33 165.811C143.228 165.872 143.233 165.974 143.33 166.041L146.176 167.683C146.237 167.713 146.304 167.729 146.372 167.729C146.44 167.729 146.507 167.713 146.569 167.683L149.027 166.265C149.134 166.204 149.124 166.102 149.027 166.036L146.186 164.393C146.123 164.359 146.052 164.34 145.98 164.34C145.907 164.34 145.836 164.359 145.773 164.393H145.758ZM142.157 166.469L139.699 167.887C139.597 167.948 139.602 168.05 139.699 168.116L142.545 169.759C142.606 169.789 142.673 169.804 142.741 169.804C142.809 169.804 142.876 169.789 142.937 169.759L145.396 168.341C145.503 168.28 145.492 168.178 145.396 168.111L142.55 166.469C142.491 166.441 142.426 166.427 142.361 166.427C142.296 166.427 142.231 166.441 142.172 166.469H142.157ZM149.353 162.313L146.9 163.736C146.798 163.797 146.803 163.899 146.9 163.96L149.746 165.607C149.807 165.637 149.874 165.653 149.942 165.653C150.01 165.653 150.077 165.637 150.139 165.607L152.597 164.184C152.704 164.128 152.699 164.026 152.597 163.96L149.751 162.318C149.692 162.288 149.626 162.273 149.56 162.272C149.494 162.271 149.429 162.285 149.368 162.313H149.353ZM134.966 170.621L132.508 172.038C132.401 172.1 132.406 172.202 132.508 172.268L135.354 173.91C135.415 173.94 135.482 173.956 135.55 173.956C135.618 173.956 135.685 173.94 135.746 173.91L138.21 172.487C138.312 172.426 138.307 172.324 138.21 172.263L135.364 170.615C135.304 170.588 135.238 170.574 135.172 170.575C135.106 170.576 135.041 170.591 134.981 170.621H134.966ZM138.562 168.545L136.103 169.963C135.996 170.024 136.006 170.126 136.103 170.192L138.949 171.834C139.009 171.866 139.075 171.882 139.143 171.882C139.21 171.882 139.277 171.866 139.337 171.834L141.8 170.417C141.902 170.355 141.897 170.253 141.8 170.187L138.954 168.545C138.895 168.517 138.831 168.503 138.766 168.503C138.7 168.503 138.636 168.517 138.577 168.545H138.562ZM135.94 183.202L138.398 181.779C138.5 181.718 138.495 181.616 138.398 181.555L135.553 179.913C135.492 179.881 135.425 179.865 135.356 179.865C135.288 179.865 135.221 179.881 135.16 179.913L132.702 181.336C132.595 181.392 132.605 181.494 132.702 181.56L135.547 183.202C135.61 183.236 135.68 183.254 135.751 183.254C135.823 183.254 135.893 183.236 135.955 183.202H135.94ZM114.852 181.05L112.006 179.408C111.945 179.377 111.878 179.36 111.81 179.36C111.741 179.36 111.674 179.377 111.613 179.408L109.16 180.841C109.058 180.902 109.063 180.999 109.16 181.065L112.006 182.708C112.067 182.739 112.134 182.755 112.202 182.755C112.271 182.755 112.338 182.739 112.399 182.708L114.857 181.285C114.969 181.239 114.964 181.137 114.852 181.05ZM120.237 182.631L117.391 180.989C117.331 180.959 117.265 180.943 117.198 180.943C117.13 180.943 117.064 180.959 117.004 180.989L113.24 183.187C113.138 183.248 113.143 183.35 113.24 183.411L116.086 185.054C116.147 185.085 116.214 185.101 116.282 185.101C116.351 185.101 116.418 185.085 116.479 185.054L120.263 182.871C120.38 182.82 120.349 182.718 120.237 182.651V182.631ZM110.486 177.873L107.63 176.251C107.569 176.22 107.502 176.203 107.434 176.203C107.365 176.203 107.298 176.22 107.237 176.251L104.218 177.99C104.116 178.051 104.121 178.153 104.218 178.22L107.064 179.862C107.125 179.893 107.192 179.909 107.26 179.909C107.329 179.909 107.396 179.893 107.457 179.862L110.481 178.118C110.603 178.061 110.598 177.959 110.486 177.893V177.873ZM112.807 176.531C112.867 176.563 112.935 176.579 113.003 176.579C113.071 176.579 113.139 176.563 113.199 176.531L115.657 175.109C115.765 175.052 115.759 174.95 115.657 174.884L112.812 173.242C112.751 173.211 112.684 173.194 112.615 173.194C112.547 173.194 112.48 173.211 112.419 173.242L109.956 174.665C109.854 174.726 109.859 174.828 109.956 174.889L112.807 176.531ZM125.251 184.431L122.42 182.81C122.359 182.779 122.292 182.764 122.224 182.764C122.156 182.764 122.088 182.779 122.027 182.81L117.295 185.543C117.193 185.604 117.198 185.706 117.295 185.768L120.14 187.415C120.201 187.445 120.269 187.461 120.337 187.461C120.405 187.461 120.472 187.445 120.533 187.415L125.266 184.681C125.368 184.62 125.363 184.518 125.251 184.452V184.431ZM127.612 187.762L124.766 186.15C124.705 186.119 124.638 186.102 124.57 186.102C124.501 186.102 124.434 186.119 124.373 186.15L121.344 187.899C121.242 187.961 121.247 188.063 121.344 188.129L124.19 189.771C124.251 189.801 124.318 189.817 124.386 189.817C124.454 189.817 124.521 189.801 124.582 189.771L127.612 188.022C127.729 187.95 127.724 187.848 127.612 187.782V187.762ZM139.546 161.094C139.607 161.125 139.674 161.141 139.742 161.141C139.811 161.141 139.878 161.125 139.939 161.094L142.397 159.676C142.504 159.615 142.494 159.513 142.397 159.446L139.551 157.804C139.49 157.774 139.423 157.758 139.355 157.758C139.287 157.758 139.219 157.774 139.158 157.804L136.7 159.248C136.598 159.309 136.603 159.411 136.7 159.472L139.546 161.094ZM132.35 165.25C132.411 165.28 132.478 165.296 132.546 165.296C132.614 165.296 132.681 165.28 132.742 165.25L135.206 163.832C135.308 163.771 135.303 163.669 135.206 163.603L132.36 161.961C132.299 161.931 132.232 161.915 132.164 161.915C132.096 161.915 132.028 161.931 131.967 161.961L129.509 163.379C129.402 163.44 129.412 163.542 129.509 163.608L132.35 165.25ZM116.402 174.476C116.463 174.507 116.53 174.524 116.598 174.524C116.667 174.524 116.734 174.507 116.795 174.476L119.253 173.053C119.36 172.992 119.355 172.895 119.253 172.829L116.407 171.187C116.346 171.155 116.279 171.139 116.211 171.139C116.142 171.139 116.075 171.155 116.014 171.187L113.551 172.61C113.449 172.671 113.454 172.768 113.551 172.834L116.402 174.476ZM135.95 163.2C136.011 163.23 136.077 163.246 136.144 163.246C136.211 163.246 136.278 163.23 136.338 163.2L138.801 161.782C138.903 161.721 138.898 161.619 138.801 161.553L135.955 159.911C135.895 159.879 135.827 159.863 135.759 159.863C135.691 159.863 135.623 159.879 135.563 159.911L133.105 161.328C132.997 161.39 133.008 161.492 133.105 161.558L135.95 163.2ZM128.754 167.351C128.815 167.383 128.882 167.399 128.951 167.399C129.019 167.399 129.086 167.383 129.147 167.351L131.61 165.934C131.712 165.872 131.707 165.77 131.61 165.704L128.764 164.062C128.703 164.032 128.636 164.016 128.568 164.016C128.5 164.016 128.433 164.032 128.372 164.062L125.914 165.48C125.806 165.541 125.812 165.643 125.914 165.709L128.754 167.351ZM129.586 188.052C129.524 188.022 129.457 188.007 129.389 188.007C129.321 188.007 129.254 188.022 129.193 188.052L125.409 190.23C125.307 190.291 125.312 190.393 125.409 190.46L128.254 192.102C128.315 192.133 128.382 192.149 128.451 192.149C128.519 192.149 128.586 192.133 128.647 192.102L132.431 189.919C132.538 189.858 132.528 189.756 132.431 189.689L129.586 188.052ZM123.593 170.34C123.654 170.37 123.721 170.386 123.789 170.386C123.858 170.386 123.925 170.37 123.986 170.34L126.449 168.917C126.551 168.856 126.546 168.754 126.449 168.693L123.603 167.051C123.543 167.019 123.475 167.003 123.407 167.003C123.339 167.003 123.271 167.019 123.211 167.051L120.752 168.473C120.645 168.53 120.65 168.632 120.752 168.698L123.593 170.34ZM119.998 172.38C120.058 172.411 120.126 172.428 120.194 172.428C120.262 172.428 120.33 172.411 120.39 172.38L122.854 170.957C122.956 170.896 122.95 170.794 122.854 170.733L120.008 169.091C119.947 169.059 119.88 169.043 119.811 169.043C119.743 169.043 119.676 169.059 119.615 169.091L117.157 170.513C117.05 170.57 117.055 170.672 117.157 170.738L119.998 172.38ZM196.212 149.583C196.151 149.552 196.084 149.535 196.016 149.535C195.947 149.535 195.88 149.552 195.819 149.583L189.74 153.071C189.638 153.133 189.643 153.235 189.74 153.301L192.586 154.943C192.647 154.973 192.714 154.989 192.782 154.989C192.85 154.989 192.917 154.973 192.979 154.943L199.068 151.47C199.175 151.409 199.17 151.307 199.068 151.241L196.212 149.583ZM188.261 154.173C188.2 154.142 188.133 154.125 188.065 154.125C187.996 154.125 187.929 154.142 187.868 154.173L185.41 155.591C185.303 155.652 185.308 155.754 185.41 155.82L188.256 157.463C188.317 157.493 188.384 157.508 188.452 157.508C188.52 157.508 188.588 157.493 188.649 157.463L191.112 156.045C191.214 155.984 191.209 155.882 191.112 155.815L188.261 154.173ZM139.551 181.127L142.009 179.704C142.116 179.642 142.106 179.54 142.009 179.479L139.168 177.832C139.107 177.802 139.04 177.786 138.972 177.786C138.904 177.786 138.837 177.802 138.776 177.832L136.312 179.25C136.21 179.311 136.216 179.413 136.312 179.479L139.158 181.121C139.219 181.152 139.286 181.169 139.354 181.17C139.422 181.171 139.489 181.156 139.551 181.127ZM181.07 158.324C181.009 158.294 180.942 158.279 180.874 158.279C180.806 158.279 180.738 158.294 180.677 158.324L178.214 159.742C178.112 159.803 178.117 159.905 178.214 159.972L181.06 161.614C181.121 161.645 181.188 161.662 181.256 161.662C181.325 161.662 181.392 161.645 181.453 161.614L183.911 160.196C184.018 160.135 184.013 160.033 183.911 159.967L181.07 158.324ZM199.807 147.507C199.746 147.477 199.679 147.462 199.611 147.462C199.543 147.462 199.476 147.477 199.415 147.507L196.957 148.92C196.849 148.981 196.855 149.083 196.957 149.144L199.802 150.792C199.863 150.822 199.931 150.838 199.999 150.838C200.067 150.838 200.134 150.822 200.195 150.792L202.658 149.374C202.76 149.313 202.755 149.211 202.658 149.144L199.807 147.507ZM206.249 147.074L199.338 143.086C199.278 143.054 199.21 143.038 199.142 143.038C199.074 143.038 199.006 143.054 198.946 143.086L196.487 144.509C196.38 144.57 196.385 144.672 196.487 144.733L203.398 148.721C203.459 148.752 203.526 148.769 203.594 148.769C203.663 148.769 203.73 148.752 203.791 148.721L206.254 147.298C206.366 147.242 206.361 147.14 206.249 147.074ZM167.632 166.087C167.571 166.055 167.504 166.039 167.435 166.039C167.367 166.039 167.3 166.055 167.239 166.087L164.209 167.836C164.107 167.897 164.113 167.999 164.209 168.06L167.055 169.703C167.116 169.734 167.183 169.75 167.252 169.75C167.32 169.75 167.387 169.734 167.448 169.703L170.477 167.953C170.579 167.892 170.574 167.79 170.477 167.729L167.632 166.087ZM176.715 160.839C176.654 160.807 176.587 160.791 176.518 160.791C176.45 160.791 176.383 160.807 176.322 160.839L172.538 163.022C172.436 163.083 172.441 163.185 172.538 163.246L175.384 164.893C175.445 164.923 175.512 164.939 175.58 164.939C175.648 164.939 175.715 164.923 175.776 164.893L179.56 162.71C179.662 162.649 179.657 162.547 179.56 162.481L176.715 160.839ZM159.303 170.891C159.242 170.861 159.175 170.845 159.107 170.845C159.039 170.845 158.972 170.861 158.911 170.891L138.658 182.58C138.556 182.641 138.562 182.743 138.658 182.81L141.504 184.452C141.565 184.482 141.632 184.498 141.701 184.498C141.769 184.498 141.836 184.482 141.897 184.452L162.149 172.757C162.251 172.696 162.246 172.594 162.149 172.528L159.303 170.891ZM137.914 183.243C137.853 183.212 137.786 183.195 137.718 183.195C137.649 183.195 137.582 183.212 137.521 183.243L134.497 184.992C134.39 185.054 134.395 185.156 134.497 185.217L137.343 186.859C137.403 186.89 137.471 186.907 137.539 186.907C137.607 186.907 137.675 186.89 137.735 186.859L140.78 185.13C140.882 185.069 140.877 184.967 140.78 184.906L137.914 183.243ZM163.465 168.489C163.404 168.459 163.337 168.443 163.269 168.443C163.2 168.443 163.133 168.459 163.072 168.489L160.048 170.238C159.941 170.299 159.946 170.401 160.048 170.468L162.894 172.11C162.955 172.14 163.022 172.156 163.09 172.156C163.158 172.156 163.225 172.14 163.286 172.11L166.316 170.36C166.423 170.304 166.413 170.202 166.316 170.136L163.465 168.489ZM133.752 185.64C133.691 185.61 133.624 185.594 133.556 185.594C133.488 185.594 133.421 185.61 133.36 185.64L130.33 187.389C130.228 187.451 130.233 187.553 130.33 187.619L133.176 189.261C133.237 189.291 133.304 189.307 133.372 189.307C133.44 189.307 133.508 189.291 133.569 189.261L136.593 187.517C136.7 187.456 136.695 187.354 136.593 187.287L133.752 185.64ZM171.793 163.674C171.732 163.644 171.665 163.629 171.597 163.629C171.529 163.629 171.462 163.644 171.4 163.674L168.376 165.419C168.269 165.48 168.274 165.582 168.376 165.648L171.222 167.29C171.283 167.32 171.35 167.336 171.418 167.336C171.486 167.336 171.554 167.32 171.615 167.29L174.644 165.541C174.751 165.48 174.741 165.378 174.644 165.311L171.793 163.674ZM184.666 156.244C184.605 156.212 184.538 156.196 184.469 156.196C184.401 156.196 184.334 156.212 184.273 156.244L181.815 157.661C181.708 157.723 181.713 157.825 181.815 157.891L184.66 159.533C184.722 159.563 184.789 159.579 184.857 159.579C184.925 159.579 184.992 159.563 185.053 159.533L187.516 158.115C187.618 158.054 187.613 157.952 187.516 157.886L184.666 156.244ZM192.545 150.521L195.003 149.104C195.11 149.042 195.105 148.94 195.003 148.874L192.157 147.232C192.096 147.202 192.029 147.186 191.961 147.186C191.893 147.186 191.826 147.202 191.765 147.232L189.301 148.655C189.199 148.716 189.205 148.818 189.301 148.879L192.147 150.527C192.209 150.558 192.277 150.574 192.346 150.574C192.415 150.574 192.483 150.558 192.545 150.527V150.521ZM176.48 150.45L178.943 149.027C179.045 148.966 179.04 148.864 178.943 148.803L176.098 147.161C176.037 147.129 175.97 147.113 175.901 147.113C175.833 147.113 175.766 147.129 175.705 147.161L173.247 148.583C173.14 148.645 173.15 148.742 173.247 148.808L176.087 150.45C176.148 150.481 176.215 150.498 176.284 150.498C176.352 150.498 176.419 150.481 176.48 150.45ZM168.32 164.541L175.511 160.39C175.613 160.329 175.608 160.227 175.511 160.16L172.665 158.518C172.604 158.488 172.537 158.472 172.469 158.472C172.401 158.472 172.334 158.488 172.273 158.518L165.082 162.675C164.98 162.731 164.985 162.833 165.082 162.899L167.927 164.541C167.99 164.569 168.058 164.581 168.127 164.576C168.195 164.572 168.261 164.551 168.32 164.516V164.541ZM188.557 152.623C188.618 152.653 188.685 152.668 188.753 152.668C188.821 152.668 188.888 152.653 188.95 152.623L191.408 151.205C191.515 151.144 191.51 151.042 191.408 150.975L188.562 149.333C188.501 149.302 188.434 149.286 188.366 149.286C188.297 149.286 188.23 149.302 188.169 149.333L185.706 150.751C185.604 150.812 185.609 150.914 185.706 150.98L188.557 152.623ZM184.885 150.282L187.343 148.864C187.45 148.803 187.445 148.701 187.343 148.634L184.497 146.992C184.436 146.962 184.369 146.946 184.301 146.946C184.233 146.946 184.166 146.962 184.105 146.992L181.641 148.415C181.539 148.476 181.544 148.578 181.641 148.64L184.487 150.287C184.551 150.313 184.621 150.324 184.69 150.319C184.759 150.313 184.826 150.292 184.885 150.256V150.282ZM164.725 166.602L167.183 165.179C167.29 165.118 167.28 165.021 167.183 164.954L164.337 163.312C164.276 163.281 164.209 163.265 164.141 163.265C164.072 163.265 164.005 163.281 163.944 163.312L161.471 164.73C161.364 164.791 161.374 164.888 161.471 164.954L164.317 166.597C164.383 166.634 164.458 166.654 164.534 166.653C164.61 166.652 164.685 166.631 164.75 166.592L164.725 166.602ZM180.606 157.197C180.667 157.228 180.734 157.243 180.802 157.243C180.87 157.243 180.938 157.228 180.999 157.197L183.462 155.78C183.564 155.718 183.559 155.616 183.462 155.55L180.616 153.908C180.555 153.878 180.488 153.862 180.42 153.862C180.352 153.862 180.285 153.878 180.223 153.908L177.765 155.331C177.658 155.392 177.663 155.494 177.765 155.555L180.606 157.197ZM146.742 176.97L149.2 175.552C149.307 175.491 149.302 175.389 149.2 175.323L146.354 173.681C146.293 173.65 146.226 173.635 146.158 173.635C146.09 173.635 146.023 173.65 145.962 173.681L143.498 175.098C143.396 175.16 143.401 175.262 143.498 175.328L146.344 176.97C146.406 177.001 146.474 177.017 146.543 177.017C146.612 177.017 146.68 177.001 146.742 176.97ZM150.337 174.894L152.801 173.477C152.903 173.415 152.898 173.313 152.801 173.247L149.96 171.605C149.899 171.574 149.832 171.557 149.764 171.557C149.695 171.557 149.628 171.574 149.567 171.605L147.104 173.023C147.002 173.084 147.007 173.186 147.104 173.252L149.95 174.894C150.01 174.924 150.077 174.939 150.144 174.939C150.211 174.939 150.277 174.924 150.337 174.894ZM143.146 179.046L145.605 177.628C145.712 177.567 145.707 177.465 145.605 177.398L142.764 175.756C142.703 175.726 142.636 175.71 142.568 175.71C142.5 175.71 142.432 175.726 142.371 175.756L139.908 177.174C139.806 177.235 139.811 177.337 139.908 177.404L142.754 179.046C142.814 179.077 142.882 179.093 142.95 179.093C143.018 179.093 143.086 179.077 143.146 179.046ZM157.528 170.743L159.992 169.325C160.094 169.264 160.089 169.162 159.992 169.096L157.146 167.453C157.085 167.423 157.018 167.408 156.95 167.408C156.881 167.408 156.814 167.423 156.753 167.453L154.295 168.876C154.188 168.938 154.193 169.04 154.295 169.101L157.141 170.743C157.201 170.773 157.267 170.789 157.335 170.789C157.402 170.789 157.468 170.773 157.528 170.743ZM153.958 172.819L156.422 171.401C156.524 171.34 156.519 171.238 156.422 171.171L153.53 169.529C153.469 169.498 153.402 169.482 153.334 169.482C153.265 169.482 153.198 169.498 153.137 169.529L150.679 170.947C150.572 171.008 150.577 171.11 150.679 171.171L153.525 172.819C153.588 172.851 153.658 172.868 153.729 172.868C153.8 172.868 153.87 172.851 153.933 172.819H153.958ZM161.149 168.667L163.613 167.244C163.715 167.188 163.71 167.086 163.613 167.02L160.767 165.378C160.706 165.346 160.639 165.33 160.571 165.33C160.502 165.33 160.435 165.346 160.374 165.378L157.875 166.77C157.768 166.831 157.778 166.933 157.875 166.994L160.716 168.637C160.776 168.675 160.845 168.698 160.916 168.704C160.987 168.709 161.059 168.697 161.124 168.667H161.149ZM177.602 137.95C177.663 137.981 177.73 137.998 177.798 137.998C177.867 137.998 177.934 137.981 177.995 137.95L180.458 136.527C180.56 136.471 180.555 136.369 180.458 136.303L179.703 135.864C179.642 135.834 179.575 135.818 179.507 135.818C179.439 135.818 179.372 135.834 179.311 135.864L176.847 137.282C176.745 137.343 176.75 137.445 176.847 137.511L177.602 137.95ZM159.91 149.374C159.971 149.405 160.038 149.422 160.106 149.422C160.175 149.422 160.242 149.405 160.303 149.374L162.761 147.956C162.868 147.895 162.863 147.793 162.761 147.727L159.915 146.084C159.854 146.054 159.787 146.039 159.719 146.039C159.651 146.039 159.584 146.054 159.523 146.084L157.059 147.502C156.957 147.563 156.962 147.665 157.059 147.732L159.91 149.374ZM167.101 145.223C167.162 145.253 167.229 145.268 167.298 145.268C167.366 145.268 167.433 145.253 167.494 145.223L169.957 143.805C170.059 143.744 170.054 143.642 169.957 143.575L167.111 141.933C167.051 141.902 166.983 141.885 166.915 141.885C166.847 141.885 166.779 141.902 166.719 141.933L164.24 143.351C164.133 143.412 164.138 143.514 164.24 143.58L167.101 145.223ZM155.519 151.909C155.58 151.939 155.647 151.954 155.715 151.954C155.784 151.954 155.851 151.939 155.912 151.909L158.37 150.486C158.477 150.425 158.472 150.323 158.37 150.261L155.524 148.614C155.463 148.584 155.396 148.568 155.328 148.568C155.26 148.568 155.193 148.584 155.131 148.614L152.668 150.032C152.566 150.093 152.571 150.195 152.668 150.261L155.519 151.909ZM163.506 147.319C163.567 147.349 163.634 147.364 163.702 147.364C163.77 147.364 163.837 147.349 163.898 147.319L166.362 145.901C166.464 145.84 166.459 145.738 166.362 145.671L163.516 144.029C163.455 143.999 163.388 143.983 163.32 143.983C163.251 143.983 163.184 143.999 163.123 144.029L160.665 145.447C160.558 145.508 160.563 145.61 160.665 145.676L163.506 147.319ZM148.303 156.06C148.363 156.091 148.431 156.108 148.499 156.108C148.567 156.108 148.635 156.091 148.695 156.06L151.153 154.637C151.261 154.576 151.25 154.474 151.153 154.413L148.313 152.771C148.252 152.739 148.185 152.723 148.116 152.723C148.048 152.723 147.981 152.739 147.92 152.771L145.457 154.193C145.355 154.25 145.36 154.352 145.457 154.418L148.303 156.06ZM151.898 153.984C151.959 154.014 152.026 154.03 152.094 154.03C152.162 154.03 152.23 154.014 152.291 153.984L154.749 152.561C154.856 152.5 154.851 152.398 154.749 152.337L151.908 150.695C151.848 150.664 151.78 150.647 151.712 150.647C151.644 150.647 151.576 150.664 151.516 150.695L149.052 152.118C148.95 152.174 148.955 152.276 149.052 152.342L151.898 153.984ZM170.386 142.106C170.447 142.137 170.514 142.152 170.582 142.152C170.65 142.152 170.717 142.137 170.778 142.106L173.242 140.689C173.344 140.627 173.338 140.525 173.242 140.459L172.482 140.021C172.421 139.99 172.353 139.975 172.285 139.975C172.217 139.975 172.15 139.99 172.089 140.021L169.631 141.438C169.524 141.5 169.534 141.602 169.631 141.668L170.386 142.106ZM181.177 135.874C181.237 135.906 181.303 135.922 181.371 135.922C181.438 135.922 181.505 135.906 181.565 135.874L184.028 134.451C184.13 134.39 184.125 134.293 184.028 134.227L183.273 133.788C183.213 133.757 183.145 133.741 183.077 133.741C183.009 133.741 182.941 133.757 182.881 133.788L180.417 135.206C180.315 135.267 180.32 135.369 180.417 135.436L181.177 135.874ZM187.149 139.327C187.21 139.357 187.278 139.373 187.346 139.373C187.414 139.373 187.481 139.357 187.542 139.327L190.005 137.904C190.107 137.843 190.102 137.741 190.005 137.68L187.159 136.032C187.098 136.002 187.031 135.987 186.963 135.987C186.895 135.987 186.828 136.002 186.767 136.032L184.309 137.45C184.201 137.511 184.212 137.613 184.309 137.68L187.149 139.327ZM196.141 148.451L198.604 147.028C198.706 146.972 198.701 146.87 198.604 146.804L195.758 145.161C195.697 145.131 195.63 145.116 195.562 145.116C195.494 145.116 195.426 145.131 195.365 145.161L192.907 146.584C192.8 146.645 192.805 146.747 192.907 146.809L195.753 148.451C195.813 148.481 195.879 148.497 195.947 148.497C196.014 148.497 196.08 148.481 196.141 148.451ZM173.981 140.031C174.042 140.061 174.109 140.077 174.177 140.077C174.245 140.077 174.313 140.061 174.374 140.031L176.837 138.613C176.939 138.552 176.934 138.45 176.837 138.383L176.077 137.945C176.016 137.915 175.949 137.899 175.881 137.899C175.813 137.899 175.746 137.915 175.684 137.945L173.226 139.363C173.124 139.424 173.129 139.526 173.226 139.592L173.981 140.031ZM144.707 158.136C144.768 158.167 144.835 158.183 144.903 158.183C144.972 158.183 145.039 158.167 145.1 158.136L147.558 156.713C147.66 156.652 147.655 156.555 147.558 156.488L144.712 154.846C144.651 154.815 144.584 154.799 144.516 154.799C144.447 154.799 144.38 154.815 144.319 154.846L141.861 156.269C141.759 156.33 141.764 156.427 141.861 156.494L144.707 158.136Z" fill="#455A64"/>
<path d="M159.329 180.489L186.257 164.939L202.832 174.507L175.899 190.056L159.329 180.489Z" fill="#263238"/>
<path d="M99.4698 102.133L179.723 55.7993C181.289 54.8915 182.574 55.6361 182.574 57.4466V119.6C182.549 120.06 182.415 120.507 182.185 120.906C181.955 121.304 181.634 121.643 181.248 121.895L98.9598 169.407C98.2305 169.825 97.6338 169.483 97.6338 168.642V105.31C97.6704 104.674 97.8556 104.055 98.1744 103.503C98.4932 102.952 98.9369 102.482 99.4698 102.133Z" fill="#F5F5F5"/>
<path d="M182.6 58.936V57.4468C182.6 55.6363 181.315 54.8968 179.749 55.7995L99.4698 102.133C98.9369 102.482 98.4932 102.952 98.1744 103.504C97.8556 104.055 97.6704 104.674 97.6338 105.31V107.978L182.6 58.936Z" fill="#FFA300"/>
<path d="M170.625 62.3274C170.338 62.5139 170.1 62.7653 169.929 63.0613C169.758 63.3573 169.659 63.6894 169.641 64.0308C169.641 64.6581 170.079 64.9131 170.625 64.5969C170.91 64.4109 171.148 64.1602 171.318 63.8651C171.488 63.5699 171.586 63.2388 171.604 62.8986C171.604 62.2713 171.166 62.0163 170.625 62.3274Z" fill="white"/>
<path d="M174.521 60.0782C174.236 60.2653 173.998 60.5169 173.828 60.8129C173.658 61.1088 173.56 61.4407 173.542 61.7816C173.542 62.4089 173.981 62.6588 174.521 62.3477C174.808 62.1612 175.046 61.9098 175.217 61.6138C175.388 61.3178 175.487 60.9857 175.505 60.6443C175.505 60.017 175.067 59.762 174.521 60.0782Z" fill="white"/>
<path d="M178.423 57.824C178.137 58.0113 177.899 58.263 177.728 58.5588C177.557 58.8546 177.458 59.1863 177.438 59.5274C177.438 60.1547 177.882 60.4097 178.423 60.0935C178.709 59.9078 178.947 59.6572 179.118 59.3621C179.289 59.067 179.388 58.7357 179.407 58.3952C179.407 57.7679 178.963 57.5129 178.423 57.824Z" fill="white"/>
<path d="M117.451 138.407L114.329 136.604L106.681 149.85L109.804 151.653L117.451 138.407Z" fill="#37474F"/>
<path d="M117.458 138.404L115.898 137.503L108.251 150.749L109.81 151.649L117.458 138.404Z" fill="#263238"/>
<path d="M98.2969 175.715C96.874 178.189 90.1369 174.262 91.5547 171.824L109.124 144.422C109.172 144.347 109.246 144.294 109.331 144.273C109.417 144.253 109.507 144.265 109.583 144.309L113.112 146.349C113.188 146.392 113.245 146.463 113.269 146.547C113.294 146.631 113.285 146.721 113.245 146.798L98.2969 175.715Z" fill="#FFA300"/>
<path opacity="0.1" d="M98.2971 175.715L113.24 146.798C113.281 146.721 113.289 146.631 113.265 146.547C113.24 146.463 113.184 146.393 113.108 146.35L111.501 145.421L94.3701 175.873C95.9307 176.644 97.6545 176.832 98.2971 175.715Z" fill="black"/>
<path d="M149.96 111.205C149.96 110.996 149.96 110.792 149.929 110.588C149.899 110.384 149.929 110.185 149.883 109.987C149.838 109.788 149.883 109.721 149.843 109.589C149.807 109.242 149.756 108.9 149.7 108.569C149.674 108.421 149.649 108.268 149.618 108.12C149.588 107.972 149.562 107.839 149.532 107.702C149.445 107.324 149.353 106.957 149.246 106.605C149.19 106.437 149.139 106.269 149.083 106.095C149.072 106.071 149.063 106.045 149.057 106.019C148.996 105.856 148.94 105.697 148.879 105.544C148.818 105.391 148.736 105.187 148.654 105.034C148.573 104.881 148.542 104.785 148.476 104.662C148.439 104.57 148.395 104.482 148.343 104.397C148.292 104.29 148.236 104.183 148.175 104.081C148.114 103.979 148.149 104.03 148.134 104.009C148.119 103.989 148.027 103.826 147.971 103.734C147.915 103.642 147.894 103.617 147.859 103.561C147.597 103.149 147.304 102.758 146.982 102.393L146.818 102.209L146.681 102.066C146.625 102.005 146.563 101.949 146.502 101.888C146.342 101.719 146.172 101.561 145.992 101.413C145.905 101.337 145.814 101.266 145.722 101.199L145.441 100.995C145.296 100.888 145.144 100.79 144.987 100.699L144.865 100.623H144.84L137.613 96.4512L137.572 96.4257C136.186 95.6524 134.62 95.2568 133.033 95.2782C130.667 95.2782 127.994 96.0534 125.164 97.6854C115.443 103.295 107.559 116.953 107.559 128.183C107.559 133.793 109.517 137.72 112.684 139.567H112.715L119.946 143.733H119.977L120.064 143.779C120.199 143.859 120.339 143.932 120.482 143.998C120.655 144.085 120.834 144.162 120.992 144.233C121.15 144.304 121.313 144.361 121.476 144.412L121.737 144.488C121.828 144.523 121.922 144.55 122.017 144.57C122.111 144.598 122.206 144.622 122.303 144.641C122.371 144.661 122.441 144.677 122.512 144.687C122.634 144.712 122.767 144.738 122.894 144.753C122.923 144.758 122.952 144.758 122.981 144.753C123.134 144.78 123.287 144.801 123.44 144.814C126.061 145.09 129.111 144.35 132.375 142.468C142.101 136.858 149.985 123.196 149.985 111.97C149.96 111.736 149.96 111.471 149.96 111.205ZM138.164 103.265C138.546 104.66 138.733 106.102 138.72 107.549C138.72 117.453 131.472 129.989 122.91 134.956C121.658 135.7 120.306 136.262 118.896 136.624C118.516 135.226 118.329 133.783 118.34 132.335C118.34 122.431 125.587 109.895 134.15 104.927C135.397 104.186 136.743 103.626 138.148 103.265H138.164Z" fill="#FFA300"/>
<path opacity="0.1" d="M119.651 143.591L112.628 139.541C109.461 137.69 107.502 133.753 107.502 128.163C107.502 123.155 109.073 117.667 111.669 112.628L118.901 116.79C116.3 121.829 114.734 127.316 114.734 132.325C114.734 137.812 116.601 141.693 119.651 143.591Z" fill="black"/>
<path opacity="0.4" d="M149.96 111.205C149.96 110.996 149.96 110.792 149.929 110.588C149.899 110.384 149.929 110.185 149.883 109.986C149.837 109.788 149.883 109.721 149.843 109.589C149.807 109.242 149.756 108.9 149.7 108.569C149.674 108.421 149.649 108.268 149.618 108.12C149.588 107.972 149.562 107.839 149.531 107.702C149.445 107.324 149.353 106.957 149.246 106.605C149.19 106.437 149.139 106.269 149.083 106.095C149.072 106.071 149.063 106.045 149.057 106.019C148.996 105.855 148.94 105.697 148.879 105.544C148.817 105.391 148.736 105.187 148.654 105.034C148.573 104.881 148.542 104.784 148.476 104.662C148.439 104.57 148.394 104.482 148.343 104.397C148.292 104.29 148.236 104.183 148.175 104.081C148.114 103.979 148.149 104.03 148.134 104.009C148.119 103.989 148.027 103.826 147.971 103.734C147.915 103.642 147.894 103.617 147.859 103.56C147.597 103.149 147.304 102.758 146.981 102.393L146.818 102.209L146.681 102.066C146.624 102.005 146.563 101.949 146.502 101.888C146.342 101.719 146.172 101.561 145.992 101.413C145.905 101.337 145.814 101.265 145.722 101.199L145.441 100.995C145.295 100.888 145.144 100.79 144.987 100.699C141.79 98.7563 137.337 98.9858 132.385 101.837C122.66 107.447 114.775 121.104 114.775 132.335C114.775 138.021 116.815 141.994 120.053 143.799C120.189 143.88 120.329 143.953 120.472 144.019C120.645 144.105 120.824 144.182 120.982 144.253C121.14 144.325 121.303 144.381 121.466 144.432L121.726 144.508C121.817 144.543 121.911 144.571 122.007 144.59C122.101 144.619 122.196 144.642 122.292 144.661C122.361 144.682 122.431 144.697 122.501 144.707C122.624 144.733 122.756 144.758 122.884 144.774C122.913 144.778 122.942 144.778 122.971 144.774C123.124 144.801 123.277 144.821 123.43 144.835C126.051 145.11 129.101 144.371 132.365 142.489C142.091 136.879 149.975 123.216 149.975 111.991C149.96 111.736 149.96 111.471 149.96 111.205ZM130.58 139.413C128.397 140.673 126.296 141.336 124.501 141.336C121.13 141.336 119.579 139.036 118.891 136.624C118.511 135.226 118.324 133.783 118.335 132.335C118.335 122.43 125.582 109.895 134.145 104.927C135.397 104.185 136.748 103.625 138.158 103.265C138.826 103.099 139.511 103.012 140.198 103.005C145.773 103.005 146.369 109.298 146.369 112.006C146.39 121.89 139.143 134.461 130.58 139.413Z" fill="white"/>
<path opacity="0.1" d="M146.39 112.006C146.39 121.911 139.148 134.446 130.58 139.414C128.397 140.673 126.296 141.336 124.501 141.336C121.13 141.336 119.579 139.036 118.891 136.624C120.301 136.262 121.653 135.7 122.904 134.956C131.483 130.004 138.714 117.453 138.714 107.549C138.727 106.102 138.54 104.661 138.158 103.265C138.826 103.1 139.511 103.012 140.198 103.005C145.788 103.02 146.39 109.298 146.39 112.006Z" fill="black"/>
<path opacity="0.7" d="M143.33 110.277C143.33 120.182 136.088 132.717 127.52 137.685C125.337 138.945 123.236 139.608 121.441 139.608C121.084 139.608 120.727 139.579 120.375 139.521C119.686 138.669 119.184 137.682 118.901 136.624C118.521 135.226 118.334 133.783 118.345 132.335C118.345 122.431 125.592 109.895 134.155 104.928C135.407 104.185 136.759 103.625 138.169 103.265C138.837 103.1 139.521 103.012 140.209 103.005C140.568 103.004 140.926 103.033 141.28 103.092C143.044 105.167 143.33 108.498 143.33 110.277Z" fill="white"/>
<path d="M155.657 99.9602V111.252C155.657 112.098 156.253 112.44 156.983 112.017L230.984 69.2939C231.369 69.042 231.69 68.7031 231.92 68.3045C232.151 67.9058 232.284 67.4586 232.31 66.9989V55.6922C232.31 54.8456 231.713 54.5039 230.984 54.9272L156.983 97.6499C156.596 97.9036 156.274 98.245 156.043 98.6464C155.813 99.0479 155.68 99.498 155.657 99.9602Z" fill="#E6E6E6"/>
<path d="M156.983 97.65L170.161 90.0459V104.397L156.983 112.001C156.253 112.425 155.657 112.083 155.657 111.236V99.9603C155.68 99.4981 155.813 99.0479 156.043 98.6465C156.274 98.2451 156.596 97.9037 156.983 97.65Z" fill="#FFA300"/>
<path d="M165.801 96.3085C164.97 95.8291 163.919 95.9056 162.843 96.5278C161.82 97.1829 160.969 98.0735 160.362 99.1249C159.754 100.176 159.407 101.358 159.349 102.571C159.313 103.357 159.561 104.13 160.048 104.749L158.63 107.177C158.538 107.35 158.515 107.553 158.568 107.742C158.62 107.932 158.743 108.095 158.911 108.197C159.028 108.262 159.159 108.297 159.293 108.299C159.428 108.299 159.56 108.263 159.676 108.196C159.792 108.129 159.889 108.032 159.956 107.916L161.359 105.488C161.51 105.517 161.664 105.532 161.818 105.534C162.444 105.523 163.056 105.347 163.593 105.024C164.613 104.368 165.462 103.477 166.069 102.425C166.676 101.374 167.023 100.193 167.081 98.9809C167.096 97.7416 166.637 96.793 165.801 96.3085ZM162.843 103.703C162.664 103.896 162.424 104.022 162.164 104.062C161.904 104.101 161.638 104.051 161.41 103.919C161.182 103.788 161.006 103.583 160.909 103.338C160.813 103.093 160.802 102.823 160.879 102.571C160.939 101.628 161.216 100.711 161.689 99.892C162.163 99.0735 162.819 98.3759 163.608 97.8537C163.914 97.659 164.266 97.5482 164.628 97.5325C164.777 97.5268 164.925 97.5621 165.056 97.6345C165.248 97.7986 165.396 98.0085 165.485 98.2447C165.574 98.481 165.602 98.736 165.566 98.986C165.507 99.9292 165.231 100.846 164.758 101.664C164.286 102.483 163.63 103.181 162.843 103.703Z" fill="white"/>
<path d="M15.4618 299.24H15.3418C12.0058 299.24 9.72575 297.704 9.72575 293.984H11.5018C11.5018 296.744 12.8218 297.608 15.3418 297.608H15.4618C17.8378 297.608 19.0858 296.696 19.0858 294.8C19.0858 292.424 16.7578 291.968 14.8138 291.344C12.6538 290.624 10.0858 289.688 10.0858 286.592C10.1098 283.928 12.1018 282.392 15.0058 282.392H15.1258C18.1978 282.392 20.4538 283.904 20.4538 287.624H18.7018C18.7018 284.864 17.3338 284.024 15.1258 284.024H15.0058C12.8938 284.024 11.8858 284.936 11.8858 286.592C11.8858 288.752 13.8778 289.256 15.6778 289.832C17.9098 290.528 20.8618 291.392 20.8618 294.8C20.8618 297.68 18.6778 299.24 15.4618 299.24ZM34.8444 292.592V293.6H26.3004V293.696C26.3004 296.552 27.5964 297.632 29.6364 297.632H29.7564C31.2684 297.632 32.3964 297.056 32.9004 295.664H34.6524C34.0284 298.112 32.1804 299.24 29.7564 299.24H29.6364C26.5884 299.24 24.5484 297.512 24.5484 293.696V292.592C24.5484 288.752 26.6124 287.048 29.6364 287.048H29.7564C32.8044 287.048 34.8444 288.776 34.8444 292.592ZM29.7564 288.656H29.6364C27.6924 288.656 26.4204 289.64 26.3004 292.184H33.0924C32.9724 289.64 31.7004 288.656 29.7564 288.656ZM48.323 291.752V297.392H50.411V299H46.763L46.619 296.648H46.355C45.803 297.896 44.315 299.24 42.011 299.24H41.915C40.283 299.24 38.507 298.328 38.507 296.168V296.024C38.507 294.008 40.091 293.096 42.803 292.76L46.595 292.28V291.68C46.595 289.688 45.827 288.632 43.835 288.632H43.739C41.963 288.632 40.931 289.472 40.739 291.344H38.891C39.155 288.56 40.955 287.048 43.811 287.048H43.859C47.027 287.048 48.323 288.752 48.323 291.752ZM42.179 297.68H42.275C44.243 297.68 46.595 296.48 46.595 293.72V293.672L43.043 294.104C41.051 294.344 40.235 294.872 40.235 295.976V296.12C40.235 297.104 40.979 297.68 42.179 297.68ZM64.2256 288.92H61.3936C59.0416 288.92 58.0096 290.168 58.0096 292.232V297.392H62.7376V299H53.2096V297.392H56.2576V288.896H53.2096V287.288H57.8656L58.0096 289.496H58.2496C58.7536 288.128 59.6176 287.288 61.5616 287.288H64.2256V288.92ZM72.9283 299.24H72.8083C69.7603 299.24 67.7203 297.512 67.7203 293.696V292.592C67.7203 288.752 69.7843 287.048 72.8083 287.048H72.9283C75.6163 287.048 77.6323 288.392 77.8723 291.296H76.0963C75.8803 289.4 74.6563 288.656 72.9283 288.656H72.8083C70.7683 288.656 69.4723 289.736 69.4723 292.592V293.696C69.4723 296.552 70.7683 297.632 72.8083 297.632H72.9283C74.6323 297.632 75.9043 296.888 76.0963 294.992H77.8723C77.6323 297.896 75.6163 299.24 72.9283 299.24ZM84.1269 299H82.3509V281.72H84.1269V289.208H84.3429C84.9189 287.888 86.2629 287.048 87.9669 287.048H88.0629C90.7269 287.048 92.1429 288.704 92.1429 291.92V299H90.3669V291.992C90.3669 289.592 89.4069 288.704 87.7029 288.704H87.6069C85.7589 288.704 84.1269 289.736 84.1269 292.208V299ZM121.692 283.328H116.724C116.316 283.328 116.124 283.52 116.124 283.976V287.288H121.692V288.896H116.124V297.392H121.692V299H110.34V297.392H114.324V288.896H110.34V287.288H114.324V284.624C114.324 282.896 115.26 281.72 117.108 281.72H121.692V283.328ZM130.491 299.24H130.371C127.323 299.24 125.283 297.512 125.283 293.696V292.592C125.283 288.752 127.347 287.048 130.371 287.048H130.491C133.539 287.048 135.579 288.776 135.579 292.592V293.696C135.579 297.536 133.515 299.24 130.491 299.24ZM130.371 297.632H130.491C132.531 297.632 133.827 296.552 133.827 293.696V292.592C133.827 289.736 132.531 288.656 130.491 288.656H130.371C128.331 288.656 127.035 289.736 127.035 292.592V293.696C127.035 296.552 128.331 297.632 130.371 297.632ZM150.569 288.92H147.737C145.385 288.92 144.353 290.168 144.353 292.232V297.392H149.081V299H139.553V297.392H142.601V288.896H139.553V287.288H144.209L144.353 289.496H144.593C145.097 288.128 145.961 287.288 147.905 287.288H150.569V288.92ZM174.311 299.24H174.239C172.463 299.24 171.263 298.304 170.687 297.008H170.447V303.656H168.695V287.288H170.471V289.208H170.711C171.287 287.96 172.511 287.048 174.287 287.048H174.383C176.831 287.048 178.751 288.776 178.751 292.568V293.696C178.751 297.488 176.831 299.24 174.311 299.24ZM173.783 297.584H173.879C175.679 297.584 176.975 296.528 176.975 293.6V292.616C176.975 289.712 175.679 288.704 173.879 288.704H173.783C172.031 288.704 170.471 289.76 170.471 292.616V293.6C170.471 296.576 172.031 297.584 173.783 297.584ZM193.741 288.92H190.909C188.557 288.92 187.525 290.168 187.525 292.232V297.392H192.253V299H182.725V297.392H185.773V288.896H182.725V287.288H187.381L187.525 289.496H187.765C188.269 288.128 189.133 287.288 191.077 287.288H193.741V288.92ZM202.444 299.24H202.324C199.276 299.24 197.236 297.512 197.236 293.696V292.592C197.236 288.752 199.3 287.048 202.324 287.048H202.444C205.492 287.048 207.532 288.776 207.532 292.592V293.696C207.532 297.536 205.468 299.24 202.444 299.24ZM202.324 297.632H202.444C204.484 297.632 205.78 296.552 205.78 293.696V292.592C205.78 289.736 204.484 288.656 202.444 288.656H202.324C200.284 288.656 198.988 289.736 198.988 292.592V293.696C198.988 296.552 200.284 297.632 202.324 297.632ZM217.675 284.36V281.528H220.555V284.36H217.675ZM211.699 288.896V287.288H220.027V300.752C220.027 302.48 219.091 303.656 217.267 303.656H211.699V302.048H217.699C218.035 302.048 218.227 301.856 218.227 301.472V288.896H211.699ZM236.313 292.592V293.6H227.769V293.696C227.769 296.552 229.065 297.632 231.105 297.632H231.225C232.737 297.632 233.865 297.056 234.369 295.664H236.121C235.497 298.112 233.649 299.24 231.225 299.24H231.105C228.057 299.24 226.017 297.512 226.017 293.696V292.592C226.017 288.752 228.081 287.048 231.105 287.048H231.225C234.273 287.048 236.313 288.776 236.313 292.592ZM231.225 288.656H231.105C229.161 288.656 227.889 289.64 227.769 292.184H234.561C234.441 289.64 233.169 288.656 231.225 288.656ZM245.616 299.24H245.496C242.448 299.24 240.408 297.512 240.408 293.696V292.592C240.408 288.752 242.472 287.048 245.496 287.048H245.616C248.304 287.048 250.32 288.392 250.56 291.296H248.784C248.568 289.4 247.344 288.656 245.616 288.656H245.496C243.456 288.656 242.16 289.736 242.16 292.592V293.696C242.16 296.552 243.456 297.632 245.496 297.632H245.616C247.32 297.632 248.592 296.888 248.784 294.992H250.56C250.32 297.896 248.304 299.24 245.616 299.24ZM265.094 287.288V288.896H259.502V296.72C259.502 297.2 259.718 297.392 260.102 297.392H265.094V299H260.486C258.686 299 257.726 297.824 257.726 296.096V288.896H253.742V287.288H257.726V284.432L259.502 284.288V287.288H265.094ZM274.589 299.24H274.469C271.085 299.24 269.381 297.728 269.285 295.136H271.037C271.109 296.744 271.877 297.704 274.469 297.704H274.589C276.869 297.704 277.661 296.936 277.661 295.808C277.661 294.392 276.197 294.104 274.277 293.72C271.925 293.24 269.597 292.76 269.597 290.336C269.597 288.368 271.229 287.048 274.061 287.048H274.181C277.277 287.048 278.957 288.512 279.053 291.056H277.301C277.229 289.496 276.461 288.56 274.205 288.56H274.061C272.117 288.56 271.301 289.304 271.301 290.312C271.301 291.656 272.693 291.944 274.589 292.304C276.965 292.76 279.365 293.24 279.365 295.784C279.365 297.944 277.541 299.24 274.589 299.24ZM286.124 302.312H284.42L291.284 280.52H292.988L286.124 302.312ZM101.902 335.24H101.782C98.3975 335.24 96.6935 333.728 96.5975 331.136H98.3495C98.4215 332.744 99.1895 333.704 101.782 333.704H101.902C104.182 333.704 104.974 332.936 104.974 331.808C104.974 330.392 103.51 330.104 101.59 329.72C99.2375 329.24 96.9095 328.76 96.9095 326.336C96.9095 324.368 98.5415 323.048 101.374 323.048H101.493C104.59 323.048 106.27 324.512 106.366 327.056H104.614C104.542 325.496 103.774 324.56 101.518 324.56H101.374C99.4295 324.56 98.6135 325.304 98.6135 326.312C98.6135 327.656 100.006 327.944 101.902 328.304C104.278 328.76 106.678 329.24 106.678 331.784C106.678 333.944 104.854 335.24 101.902 335.24ZM121.188 328.592V329.6H112.644V329.696C112.644 332.552 113.94 333.632 115.98 333.632H116.1C117.612 333.632 118.74 333.056 119.244 331.664H120.996C120.372 334.112 118.524 335.24 116.1 335.24H115.98C112.932 335.24 110.892 333.512 110.892 329.696V328.592C110.892 324.752 112.956 323.048 115.98 323.048H116.1C119.148 323.048 121.188 324.776 121.188 328.592ZM116.1 324.656H115.98C114.036 324.656 112.764 325.64 112.644 328.184H119.436C119.316 325.64 118.044 324.656 116.1 324.656ZM136.179 324.92H133.347C130.995 324.92 129.963 326.168 129.963 328.232V333.392H134.691V335H125.163V333.392H128.211V324.896H125.163V323.288H129.819L129.963 325.496H130.203C130.707 324.128 131.571 323.288 133.515 323.288H136.179V324.92ZM146.081 335H143.537L139.121 323.288H140.969L144.689 333.368H144.953L148.649 323.288H150.497L146.081 335ZM158.432 317.528H161.312V320.36H158.432V317.528ZM161.36 333.392H165.392V335H161.744C159.944 335 158.984 333.824 158.984 332.096V324.896H154.352V323.288H160.76V332.72C160.76 333.2 160.952 333.392 161.36 333.392ZM173.663 335.24H173.543C170.495 335.24 168.455 333.512 168.455 329.696V328.592C168.455 324.752 170.519 323.048 173.543 323.048H173.663C176.351 323.048 178.367 324.392 178.607 327.296H176.831C176.615 325.4 175.391 324.656 173.663 324.656H173.543C171.503 324.656 170.207 325.736 170.207 328.592V329.696C170.207 332.552 171.503 333.632 173.543 333.632H173.663C175.367 333.632 176.639 332.888 176.831 330.992H178.607C178.367 333.896 176.351 335.24 173.663 335.24ZM193.141 328.592V329.6H184.597V329.696C184.597 332.552 185.893 333.632 187.933 333.632H188.053C189.565 333.632 190.693 333.056 191.197 331.664H192.949C192.325 334.112 190.477 335.24 188.053 335.24H187.933C184.885 335.24 182.845 333.512 182.845 329.696V328.592C182.845 324.752 184.909 323.048 187.933 323.048H188.053C191.101 323.048 193.141 324.776 193.141 328.592ZM188.053 324.656H187.933C185.989 324.656 184.717 325.64 184.597 328.184H191.389C191.269 325.64 189.997 324.656 188.053 324.656ZM202.636 335.24H202.516C199.132 335.24 197.428 333.728 197.332 331.136H199.084C199.156 332.744 199.924 333.704 202.516 333.704H202.636C204.916 333.704 205.708 332.936 205.708 331.808C205.708 330.392 204.244 330.104 202.324 329.72C199.972 329.24 197.644 328.76 197.644 326.336C197.644 324.368 199.276 323.048 202.108 323.048H202.228C205.324 323.048 207.004 324.512 207.1 327.056H205.348C205.276 325.496 204.508 324.56 202.252 324.56H202.108C200.164 324.56 199.348 325.304 199.348 326.312C199.348 327.656 200.74 327.944 202.636 328.304C205.012 328.76 207.412 329.24 207.412 331.784C207.412 333.944 205.588 335.24 202.636 335.24Z" fill="#F7F7F7"/>
</svg>
