<svg width="304" height="370" viewBox="0 0 304 370" fill="none" xmlns="http://www.w3.org/2000/svg">
<path d="M93.6802 126.496H48.0898V94.0923H93.6802V126.496ZM48.4498 126.122H93.3202V94.4663H48.4498V126.122Z" fill="#EBEBEB"/>
<path d="M51.6538 96.1788C51.6538 96.3652 51.6006 96.5474 51.5009 96.7024C51.4012 96.8574 51.2595 96.9782 51.0937 97.0495C50.928 97.1209 50.7456 97.1395 50.5696 97.1032C50.3936 97.0668 50.2319 96.9771 50.1051 96.8452C49.9782 96.7134 49.8918 96.5455 49.8568 96.3627C49.8218 96.1799 49.8398 95.9904 49.9084 95.8181C49.9771 95.6459 50.0934 95.4987 50.2425 95.3952C50.3917 95.2916 50.5671 95.2363 50.7466 95.2363C50.9872 95.2363 51.2179 95.3356 51.388 95.5124C51.5582 95.6891 51.6538 95.9288 51.6538 96.1788Z" fill="#A6A6A6"/>
<path d="M55.3583 96.1789C55.3583 96.3648 55.3054 96.5466 55.2062 96.7013C55.107 96.856 54.9659 96.9768 54.8008 97.0485C54.6356 97.1201 54.4538 97.1394 54.2781 97.104C54.1024 97.0685 53.9408 96.9799 53.8135 96.8492C53.6862 96.7185 53.5989 96.5516 53.5627 96.3695C53.5265 96.1874 53.5429 95.9983 53.6099 95.8259C53.677 95.6535 53.7915 95.5056 53.9393 95.4007C54.0871 95.2958 54.2614 95.2386 54.4403 95.2364C54.5604 95.2349 54.6795 95.2582 54.7908 95.3049C54.9022 95.3516 55.0034 95.4208 55.0888 95.5084C55.1742 95.5961 55.242 95.7005 55.2883 95.8156C55.3345 95.9307 55.3584 96.0542 55.3583 96.1789Z" fill="#EBEBEB"/>
<path d="M59.0624 96.1788C59.0624 96.3652 59.0092 96.5474 58.9096 96.7024C58.8099 96.8574 58.6682 96.9782 58.5024 97.0495C58.3366 97.1209 58.1542 97.1395 57.9783 97.1032C57.8023 97.0668 57.6406 96.9771 57.5138 96.8452C57.3869 96.7134 57.3005 96.5455 57.2655 96.3627C57.2305 96.1799 57.2484 95.9904 57.3171 95.8181C57.3858 95.6459 57.502 95.4987 57.6512 95.3952C57.8004 95.2916 57.9758 95.2363 58.1552 95.2363C58.3959 95.2363 58.6266 95.3356 58.7967 95.5124C58.9669 95.6891 59.0624 95.9288 59.0624 96.1788Z" fill="#FFA300"/>
<path d="M93.5004 97.8394H48.27V98.2134H93.5004V97.8394Z" fill="#EBEBEB"/>
<path d="M255.176 164.333H209.6V131.93H255.176V164.333ZM209.949 163.959H254.816V132.304H209.96L209.949 163.959Z" fill="#EBEBEB"/>
<path d="M213.153 134.016C213.153 134.203 213.1 134.385 213 134.54C212.901 134.695 212.759 134.816 212.593 134.887C212.427 134.958 212.245 134.977 212.069 134.941C211.893 134.904 211.731 134.814 211.605 134.683C211.478 134.551 211.391 134.383 211.356 134.2C211.321 134.017 211.339 133.828 211.408 133.656C211.477 133.483 211.593 133.336 211.742 133.233C211.891 133.129 212.067 133.074 212.246 133.074C212.365 133.074 212.483 133.098 212.593 133.145C212.703 133.193 212.803 133.262 212.888 133.35C212.972 133.437 213.039 133.541 213.084 133.656C213.13 133.77 213.153 133.892 213.153 134.016Z" fill="#A6A6A6"/>
<path d="M216.858 134.016C216.858 134.203 216.805 134.385 216.705 134.54C216.605 134.695 216.464 134.816 216.298 134.887C216.132 134.958 215.95 134.977 215.774 134.941C215.598 134.904 215.436 134.814 215.309 134.683C215.182 134.551 215.096 134.383 215.061 134.2C215.026 134.017 215.044 133.828 215.113 133.656C215.181 133.483 215.297 133.336 215.447 133.233C215.596 133.129 215.771 133.074 215.951 133.074C216.07 133.074 216.188 133.098 216.298 133.145C216.408 133.193 216.508 133.262 216.592 133.35C216.676 133.437 216.743 133.541 216.789 133.656C216.834 133.77 216.858 133.892 216.858 134.016Z" fill="#EBEBEB"/>
<path d="M220.562 134.016C220.562 134.203 220.509 134.385 220.41 134.54C220.31 134.695 220.168 134.816 220.002 134.887C219.837 134.958 219.654 134.977 219.478 134.941C219.302 134.904 219.141 134.814 219.014 134.683C218.887 134.551 218.8 134.383 218.765 134.2C218.73 134.017 218.748 133.828 218.817 133.656C218.886 133.483 219.002 133.336 219.151 133.233C219.3 133.129 219.476 133.074 219.655 133.074C219.774 133.074 219.892 133.098 220.002 133.145C220.112 133.193 220.212 133.262 220.297 133.35C220.381 133.437 220.448 133.541 220.493 133.656C220.539 133.77 220.562 133.892 220.562 134.016Z" fill="#FFA300"/>
<path d="M255 135.677H209.77V136.051H255V135.677Z" fill="#EBEBEB"/>
<path d="M256.663 124.872L258.783 121.323L257.736 120.65C257.586 120.552 257.466 120.413 257.388 120.249C257.31 120.085 257.277 119.901 257.293 119.719C257.305 119.511 257.305 119.302 257.293 119.094C257.288 118.91 257.332 118.729 257.421 118.57C257.509 118.411 257.638 118.28 257.793 118.193L258.873 117.587L256.972 113.907L255.892 114.509C255.737 114.596 255.561 114.635 255.385 114.623C255.208 114.612 255.039 114.548 254.895 114.441C254.73 114.322 254.557 114.213 254.384 114.112C254.227 114.026 254.097 113.896 254.008 113.736C253.919 113.577 253.875 113.395 253.88 113.211L253.92 111.936L249.92 111.782L249.884 113.065C249.877 113.249 249.82 113.427 249.721 113.58C249.622 113.732 249.484 113.853 249.322 113.929L249.06 114.067L248.8 114.221C248.65 114.315 248.478 114.365 248.302 114.365C248.126 114.365 247.954 114.315 247.803 114.221L246.748 113.54L244.632 117.089L245.679 117.766C245.829 117.864 245.95 118.004 246.028 118.169C246.106 118.334 246.139 118.518 246.122 118.701C246.104 118.908 246.097 119.115 246.1 119.322C246.108 119.508 246.065 119.692 245.976 119.853C245.888 120.014 245.757 120.146 245.6 120.235L244.52 120.841L246.421 124.521L247.501 123.919C247.656 123.832 247.832 123.792 248.008 123.803C248.184 123.814 248.354 123.876 248.498 123.982C248.664 124.102 248.833 124.21 249.006 124.311C249.163 124.397 249.293 124.528 249.383 124.687C249.473 124.846 249.518 125.028 249.513 125.213L249.474 126.492L253.491 126.623L253.531 125.34C253.539 125.157 253.595 124.98 253.693 124.828C253.792 124.676 253.929 124.556 254.089 124.48L254.355 124.341C254.445 124.293 254.528 124.24 254.614 124.188C254.765 124.092 254.938 124.041 255.115 124.041C255.292 124.041 255.465 124.092 255.615 124.188L256.663 124.872ZM253.261 122.254C252.687 122.571 252.036 122.705 251.39 122.639C250.743 122.573 250.13 122.31 249.627 121.883C249.124 121.455 248.754 120.883 248.564 120.238C248.373 119.592 248.37 118.903 248.556 118.256C248.741 117.609 249.107 117.034 249.607 116.602C250.106 116.171 250.717 115.902 251.363 115.831C252.009 115.759 252.661 115.888 253.237 116.2C253.813 116.513 254.287 116.995 254.6 117.587C255.014 118.386 255.105 119.323 254.854 120.192C254.603 121.061 254.03 121.79 253.261 122.221V122.254Z" fill="#EBEBEB"/>
<path d="M66.3205 172.673L68.4409 169.124L67.3933 168.451C67.244 168.352 67.1238 168.212 67.0457 168.048C66.9676 167.883 66.9347 167.699 66.9505 167.516C66.9631 167.308 66.9631 167.099 66.9505 166.891C66.9465 166.708 66.991 166.527 67.0793 166.368C67.1675 166.209 67.296 166.078 67.4509 165.99L68.5309 165.388L66.6301 161.704L65.5501 162.309C65.394 162.395 65.2183 162.434 65.0423 162.422C64.8664 162.41 64.697 162.348 64.5529 162.242C64.3873 162.122 64.2145 162.014 64.0417 161.913C63.8845 161.827 63.7539 161.697 63.6647 161.538C63.5756 161.378 63.5315 161.196 63.5377 161.012L63.5737 159.733L59.5561 159.605L59.5201 160.888C59.5121 161.072 59.4555 161.25 59.3564 161.402C59.2573 161.555 59.1196 161.676 58.9585 161.752C58.8721 161.793 58.7821 161.842 58.6957 161.891L58.4365 162.04C58.2867 162.137 58.114 162.188 57.9379 162.188C57.7617 162.188 57.589 162.137 57.4393 162.04L56.3845 161.363L54.2677 164.913L55.3153 165.589C55.4645 165.688 55.5847 165.828 55.6628 165.992C55.7409 166.157 55.7739 166.341 55.7581 166.524C55.74 166.731 55.7328 166.938 55.7365 167.145C55.7412 167.328 55.6974 167.509 55.6097 167.668C55.5221 167.827 55.3941 167.958 55.2397 168.047L54.1597 168.649L56.0605 172.333L57.1405 171.727C57.2965 171.642 57.4722 171.603 57.6482 171.615C57.8241 171.626 57.9935 171.689 58.1377 171.794C58.3033 171.914 58.4725 172.022 58.6453 172.123C58.802 172.209 58.9325 172.338 59.0222 172.497C59.1119 172.655 59.1571 172.837 59.1529 173.021L59.1133 174.304L63.1309 174.435L63.1705 173.152C63.1779 172.969 63.234 172.792 63.3325 172.64C63.431 172.488 63.5681 172.367 63.7285 172.292L63.9949 172.149L64.2541 172C64.4045 171.904 64.5778 171.853 64.7545 171.853C64.9312 171.853 65.1044 171.904 65.2549 172L66.3205 172.673ZM62.9185 170.036C62.344 170.356 61.6913 170.491 61.0428 170.425C60.3943 170.359 59.7792 170.095 59.2753 169.666C58.7714 169.237 58.4013 168.662 58.2118 168.015C58.0223 167.367 58.0221 166.675 58.211 166.027C58.3998 165.38 58.7694 164.804 59.273 164.375C59.7766 163.945 60.3914 163.68 61.0399 163.614C61.6883 163.547 62.3412 163.682 62.9159 164.001C63.4906 164.32 63.9613 164.809 64.2685 165.406C64.4727 165.802 64.5996 166.237 64.6421 166.684C64.6845 167.131 64.6417 167.583 64.516 168.013C64.3902 168.443 64.1841 168.843 63.9094 169.19C63.6346 169.537 63.2967 169.825 62.9149 170.036H62.9185Z" fill="#EBEBEB"/>
<path d="M242.26 97.9067L240.852 95.371L240.107 95.8198C239.997 95.8873 239.871 95.921 239.744 95.9171C239.616 95.9131 239.492 95.8716 239.387 95.7974C239.271 95.7168 239.151 95.6431 239.027 95.5767C238.918 95.5182 238.827 95.4297 238.763 95.3208C238.7 95.2119 238.666 95.0869 238.667 94.9596V94.062H235.848V94.9521C235.848 95.0794 235.815 95.2044 235.752 95.3133C235.688 95.4222 235.597 95.5107 235.488 95.5692C235.364 95.6348 235.243 95.7085 235.128 95.7899C235.022 95.8641 234.899 95.9056 234.771 95.9096C234.644 95.9135 234.518 95.8798 234.408 95.8123L233.659 95.3635L232.252 97.8993L233 98.3555C233.107 98.4215 233.194 98.5168 233.252 98.631C233.31 98.7452 233.336 98.8738 233.328 99.0026C233.328 99.0736 233.328 99.1447 233.328 99.2157C233.328 99.2868 233.328 99.3616 233.328 99.4327C233.336 99.5608 233.309 99.6886 233.251 99.802C233.193 99.9155 233.107 100.01 233 100.076L232.248 100.525L233.656 103.06L234.404 102.612C234.514 102.544 234.64 102.51 234.768 102.515C234.896 102.52 235.02 102.562 235.124 102.638C235.241 102.716 235.361 102.789 235.484 102.855C235.594 102.914 235.685 103.003 235.748 103.113C235.812 103.222 235.845 103.348 235.844 103.476V104.369H238.663V103.476C238.663 103.348 238.696 103.222 238.759 103.113C238.823 103.003 238.914 102.914 239.023 102.855C239.148 102.79 239.268 102.718 239.383 102.638C239.488 102.562 239.612 102.52 239.74 102.515C239.867 102.51 239.993 102.544 240.103 102.612L240.852 103.06L242.26 100.525L241.511 100.076C241.405 100.011 241.318 99.916 241.261 99.8023C241.203 99.6886 241.178 99.5606 241.187 99.4327C241.187 99.3616 241.187 99.2905 241.187 99.2157C241.187 99.1409 241.187 99.0736 241.187 99.0026C241.178 98.8737 241.204 98.7448 241.262 98.6304C241.32 98.5161 241.407 98.4208 241.514 98.3555L242.26 97.9067ZM239.567 99.2157C239.567 99.69 239.431 100.154 239.178 100.548C238.924 100.942 238.563 101.25 238.142 101.431C237.72 101.612 237.255 101.66 236.808 101.567C236.36 101.474 235.949 101.245 235.626 100.91C235.304 100.574 235.084 100.146 234.996 99.6811C234.907 99.2158 234.953 98.7337 235.128 98.2957C235.304 97.8577 235.6 97.4836 235.98 97.2206C236.36 96.9576 236.806 96.8177 237.263 96.8184C237.566 96.8184 237.866 96.8804 238.145 97.001C238.425 97.1215 238.679 97.2981 238.893 97.5208C239.107 97.7434 239.277 98.0078 239.393 98.2986C239.508 98.5894 239.567 98.9011 239.567 99.2157Z" fill="#EBEBEB"/>
<path d="M152 245.068C214.588 245.068 265.325 241.799 265.325 237.767C265.325 233.735 214.588 230.467 152 230.467C89.4128 230.467 38.6758 233.735 38.6758 237.767C38.6758 241.799 89.4128 245.068 152 245.068Z" fill="#EBEBEB"/>
<path d="M35.2593 226.503L64.4445 226.413L93.6297 226.38L152 226.316L210.37 226.38L239.556 226.413L268.741 226.503L239.556 226.596L210.37 226.626L152 226.69L93.6297 226.626L64.4445 226.593L35.2593 226.503Z" fill="#263238"/>
<path d="M181.988 226.436H122.261V231.619H181.988V226.436Z" fill="#DBDBDB"/>
<path d="M174.878 226.439H129.374L130.53 217.441L130.587 217.018L130.695 216.173L130.746 215.75L130.857 214.905L130.872 214.774L130.911 214.479L131.023 213.633L131.077 213.211L131.883 206.924H172.365L173.128 212.855L173.168 213.14L173.294 214.123L173.326 214.408L173.377 214.774L173.456 215.391L173.492 215.675L173.618 216.663L173.654 216.947L174.878 226.439Z" fill="#EBEBEB"/>
<path d="M173.377 214.774L131.077 213.211L131.884 206.924H172.366L173.377 214.774Z" fill="#DBDBDB"/>
<path d="M228.752 101.923H75.4966V210.185H228.752V101.923Z" fill="#263238"/>
<path d="M228.752 194.215H75.4966V210.185H228.752V194.215Z" fill="#EBEBEB"/>
<path d="M154.621 201.127C154.622 201.649 154.473 202.16 154.194 202.595C153.915 203.03 153.519 203.369 153.054 203.569C152.59 203.769 152.079 203.822 151.586 203.721C151.092 203.619 150.639 203.368 150.283 202.999C149.927 202.63 149.685 202.159 149.587 201.647C149.488 201.135 149.538 200.604 149.731 200.121C149.923 199.638 150.249 199.226 150.667 198.935C151.085 198.645 151.576 198.49 152.079 198.49C152.753 198.49 153.399 198.768 153.875 199.262C154.352 199.757 154.62 200.427 154.621 201.127Z" fill="#37474F"/>
<path d="M221.682 108.962H82.5708V186.705H221.682V108.962Z" fill="#C7C7C7"/>
<path d="M208.426 116.442H69.2505V194.182H208.426V116.442Z" fill="white"/>
<path d="M208.606 194.372H69.0703V116.27H208.606V194.372ZM69.4303 193.998H208.246V116.644H69.4303V193.998Z" fill="#263238"/>
<path d="M208.426 116.442H69.2505V119.434H208.426V116.442Z" fill="#455A64"/>
<path d="M71.439 117.938C71.439 118.086 71.3968 118.231 71.3177 118.354C71.2386 118.477 71.1261 118.572 70.9946 118.629C70.863 118.686 70.7182 118.7 70.5786 118.672C70.4389 118.643 70.3106 118.571 70.2099 118.467C70.1092 118.362 70.0406 118.229 70.0129 118.084C69.9851 117.939 69.9993 117.788 70.0538 117.652C70.1083 117.515 70.2006 117.398 70.319 117.316C70.4374 117.234 70.5766 117.19 70.719 117.19C70.91 117.19 71.0931 117.269 71.2281 117.409C71.3632 117.549 71.439 117.74 71.439 117.938Z" fill="#C7C7C7"/>
<path d="M74.355 117.938C74.355 118.086 74.3128 118.231 74.2337 118.354C74.1546 118.477 74.0421 118.572 73.9106 118.629C73.779 118.686 73.6342 118.7 73.4946 118.672C73.3549 118.643 73.2266 118.571 73.1259 118.467C73.0252 118.362 72.9567 118.229 72.9289 118.084C72.9011 117.939 72.9154 117.788 72.9698 117.652C73.0243 117.515 73.1166 117.398 73.235 117.316C73.3534 117.234 73.4926 117.19 73.635 117.19C73.826 117.19 74.0091 117.269 74.1442 117.409C74.2792 117.549 74.355 117.74 74.355 117.938Z" fill="white"/>
<path d="M77.2711 117.938C77.2711 118.086 77.2288 118.231 77.1497 118.354C77.0706 118.477 76.9581 118.572 76.8266 118.629C76.695 118.686 76.5503 118.7 76.4106 118.672C76.2709 118.643 76.1426 118.571 76.0419 118.467C75.9412 118.362 75.8727 118.229 75.8449 118.084C75.8171 117.939 75.8314 117.788 75.8859 117.652C75.9404 117.515 76.0326 117.398 76.151 117.316C76.2694 117.234 76.4087 117.19 76.5511 117.19C76.742 117.19 76.9251 117.269 77.0602 117.409C77.1952 117.549 77.2711 117.74 77.2711 117.938Z" fill="#FFA300"/>
<path d="M75.2622 159.16H126.443V125.721H75.2622V159.16Z" fill="#FFA300"/>
<path opacity="0.6" d="M75.2622 159.16H126.443V125.721H75.2622V159.16Z" fill="white"/>
<path d="M97.9785 151.957H126.444L112.213 133.96L97.9785 151.957Z" fill="#FFA300"/>
<path opacity="0.1" d="M97.9785 151.957H126.444L112.213 133.96L97.9785 151.957Z" fill="black"/>
<path d="M86.8291 151.976H110.33L98.5795 140.255L86.8291 151.976Z" fill="#FFA300"/>
<path d="M126.44 151.957H75.2588V159.16H126.44V151.957Z" fill="#FFA300"/>
<path d="M86.2566 138.728C88.1138 137.934 89.0004 135.727 88.2368 133.798C87.4732 131.868 85.3485 130.947 83.4913 131.74C81.634 132.534 80.7474 134.741 81.5111 136.67C82.2747 138.6 84.3993 139.521 86.2566 138.728Z" fill="#FFA300"/>
<path d="M133.798 187.715H162.246V163.705H133.798V187.715Z" fill="#FFA300"/>
<path opacity="0.6" d="M133.798 187.715H162.246V163.705H133.798V187.715Z" fill="white"/>
<path d="M141.808 182.539H162.245L152.029 169.617L141.808 182.539Z" fill="#FFA300"/>
<path opacity="0.1" d="M141.808 182.539H162.245L152.029 169.617L141.808 182.539Z" fill="black"/>
<path d="M133.802 182.554H150.675L142.237 174.139L133.802 182.554Z" fill="#FFA300"/>
<path d="M162.249 182.539H133.802V187.711H162.249V182.539Z" fill="#FFA300"/>
<path d="M139.781 172.894C141.292 172.894 142.517 171.621 142.517 170.051C142.517 168.482 141.292 167.209 139.781 167.209C138.27 167.209 137.045 168.482 137.045 170.051C137.045 171.621 138.27 172.894 139.781 172.894Z" fill="#FFA300"/>
<path d="M191.503 134.173H133.723V136.331H191.503V134.173Z" fill="#A6A6A6"/>
<path d="M201.478 138.643H133.723V140.801H201.478V138.643Z" fill="#DBDBDB"/>
<path d="M201.478 143.112H133.723V145.27H201.478V143.112Z" fill="#DBDBDB"/>
<path d="M201.478 147.585H133.723V149.743H201.478V147.585Z" fill="#DBDBDB"/>
<path d="M201.478 152.054H133.723V154.212H201.478V152.054Z" fill="#DBDBDB"/>
<path d="M170.799 156.523H133.723V158.681H170.799V156.523Z" fill="#DBDBDB"/>
<path d="M197.068 163.637H164.874V165.765H197.068V163.637Z" fill="#A6A6A6"/>
<path d="M201.478 168.039H164.874V170.167H201.478V168.039Z" fill="#DBDBDB"/>
<path d="M201.478 172.445H164.874V174.573H201.478V172.445Z" fill="#DBDBDB"/>
<path d="M201.478 176.847H164.874V178.975H201.478V176.847Z" fill="#DBDBDB"/>
<path d="M201.478 181.249H164.874V183.377H201.478V181.249Z" fill="#DBDBDB"/>
<path d="M193.54 185.651H164.874V187.779H193.54V185.651Z" fill="#DBDBDB"/>
<path d="M201.478 125.62H133.723V131.967H201.478V125.62Z" fill="#FFA300"/>
<path d="M126.44 163.637H75.2588V169.984H126.44V163.637Z" fill="#FFA300"/>
<path d="M126.44 172.295H75.2588V174.442H126.44V172.295Z" fill="#DBDBDB"/>
<path d="M126.44 176.742H75.2588V178.889H126.44V176.742Z" fill="#DBDBDB"/>
<path d="M126.44 181.185H75.2588V183.332H126.44V181.185Z" fill="#DBDBDB"/>
<path d="M110.326 185.632H75.2588V187.779H110.326V185.632Z" fill="#DBDBDB"/>
<path d="M208.426 119.434H205.266V194.185H208.426V119.434Z" fill="#DBDBDB"/>
<path d="M206.842 158.555C206.625 158.555 206.418 158.465 206.264 158.306C206.111 158.147 206.025 157.931 206.025 157.706V121.024C206.025 120.799 206.111 120.583 206.264 120.423C206.418 120.264 206.625 120.175 206.842 120.175C207.059 120.175 207.267 120.264 207.42 120.423C207.573 120.583 207.659 120.799 207.659 121.024V157.706C207.659 157.931 207.573 158.147 207.42 158.306C207.267 158.465 207.059 158.555 206.842 158.555Z" fill="#A6A6A6"/>
<path d="M265.321 176.136H238.76C238.404 176.14 238.052 176.216 237.724 176.361C237.397 176.505 237.1 176.716 236.85 176.98C236.601 177.244 236.404 177.556 236.271 177.899C236.138 178.242 236.071 178.609 236.074 178.979V235.789C236.069 236.536 236.348 237.254 236.852 237.787C237.355 238.32 238.041 238.624 238.76 238.632H265.324C266.044 238.625 266.731 238.321 267.235 237.789C267.739 237.256 268.019 236.537 268.014 235.789V178.979C268.016 178.608 267.949 178.241 267.815 177.898C267.681 177.554 267.484 177.242 267.234 176.978C266.984 176.714 266.686 176.504 266.358 176.359C266.03 176.215 265.677 176.139 265.321 176.136ZM266.329 234.031C266.351 234.72 266.111 235.391 265.661 235.897C265.211 236.403 264.587 236.704 263.924 236.735H240.164C239.501 236.705 238.875 236.404 238.424 235.898C237.973 235.392 237.733 234.721 237.756 234.031V181.133C237.756 178.085 238.836 177.935 240.164 177.935H244.927C245.2 177.935 245.427 178.264 245.427 178.683V178.859C245.427 179.805 245.928 179.809 246.543 179.809H257.552C258.171 179.809 258.664 179.809 258.664 178.859V178.683C258.664 178.279 258.888 177.935 259.168 177.935H263.924C265.252 177.935 266.329 178.343 266.329 181.133V234.031Z" fill="#263238"/>
<path d="M253.542 178.608H250.539C250.515 178.609 250.491 178.604 250.468 178.595C250.445 178.586 250.425 178.572 250.407 178.554C250.39 178.536 250.376 178.515 250.366 178.491C250.357 178.468 250.352 178.443 250.352 178.418C250.352 178.366 250.372 178.317 250.407 178.28C250.442 178.244 250.49 178.223 250.539 178.223H253.542C253.566 178.223 253.59 178.228 253.613 178.238C253.635 178.248 253.656 178.262 253.673 178.28C253.69 178.298 253.703 178.32 253.712 178.343C253.721 178.367 253.726 178.392 253.725 178.418C253.725 178.468 253.706 178.517 253.671 178.553C253.637 178.588 253.59 178.608 253.542 178.608Z" fill="white"/>
<path d="M266.329 181.133V234.031C266.351 234.72 266.111 235.39 265.661 235.897C265.211 236.403 264.586 236.704 263.924 236.735H240.164C239.5 236.705 238.875 236.404 238.424 235.898C237.973 235.392 237.733 234.721 237.755 234.031V181.133C237.755 178.085 238.835 177.935 240.164 177.935H244.927C245.2 177.935 245.427 178.264 245.427 178.683V178.859C245.427 179.805 245.927 179.809 246.543 179.809H257.552C258.171 179.809 258.664 179.809 258.664 178.859V178.683C258.664 178.279 258.887 177.935 259.168 177.935H263.924C265.252 177.935 266.329 178.354 266.329 181.133Z" fill="white"/>
<path d="M266.329 181.133V185.086H237.749V181.133C237.749 178.085 238.829 177.935 240.157 177.935H244.92C245.197 177.935 245.42 178.264 245.42 178.683V178.859C245.42 179.805 245.921 179.809 246.533 179.809H257.541C258.161 179.809 258.657 179.809 258.657 178.859V178.683C258.657 178.279 258.881 177.935 259.161 177.935H263.924C265.253 177.935 266.329 178.354 266.329 181.133Z" fill="#FFA300"/>
<path d="M240.456 183.152L239.613 182.33L240.456 181.507L240.589 181.653L239.89 182.33L240.589 183.007L240.456 183.152Z" fill="white"/>
<path d="M263.751 183.216H263.157V182.999C263.16 182.994 263.161 182.989 263.161 182.984C263.161 182.979 263.16 182.974 263.157 182.969C263.134 182.958 263.112 182.945 263.092 182.928C263.087 182.925 263.081 182.924 263.074 182.924C263.068 182.924 263.062 182.925 263.056 182.928L262.873 183.036L262.578 182.502L262.761 182.393C262.765 182.382 262.765 182.37 262.761 182.359V182.285C262.765 182.274 262.765 182.262 262.761 182.251L262.578 182.143L262.873 181.608L263.056 181.716C263.062 181.72 263.068 181.722 263.074 181.722C263.081 181.722 263.087 181.72 263.092 181.716C263.112 181.7 263.134 181.686 263.157 181.675C263.16 181.671 263.161 181.665 263.161 181.66C263.161 181.655 263.16 181.65 263.157 181.645V181.428H263.751V181.645C263.751 181.651 263.752 181.658 263.756 181.663C263.759 181.669 263.764 181.673 263.769 181.675L263.834 181.716C263.839 181.72 263.846 181.722 263.852 181.722C263.858 181.722 263.865 181.72 263.87 181.716L264.05 181.608L264.349 182.143L264.165 182.251C264.163 182.256 264.161 182.262 264.161 182.268C264.161 182.274 264.163 182.279 264.165 182.285V182.359C264.163 182.365 264.161 182.37 264.161 182.376C264.161 182.382 264.163 182.388 264.165 182.393L264.349 182.502L264.05 183.036L263.866 182.928C263.866 182.928 263.845 182.928 263.834 182.928L263.769 182.969C263.764 182.971 263.759 182.976 263.756 182.981C263.752 182.986 263.751 182.993 263.751 182.999V183.216ZM263.305 183.063H263.6V182.999C263.6 182.964 263.609 182.93 263.626 182.901C263.643 182.871 263.668 182.847 263.697 182.831L263.751 182.801C263.779 182.783 263.812 182.773 263.845 182.773C263.878 182.773 263.91 182.783 263.938 182.801L263.992 182.834L264.144 182.565L264.086 182.532C264.058 182.514 264.034 182.489 264.019 182.458C264.004 182.428 263.997 182.394 264 182.359V182.3C263.997 182.265 264.004 182.231 264.019 182.201C264.034 182.17 264.058 182.145 264.086 182.128L264.144 182.094L263.992 181.825L263.938 181.858C263.91 181.877 263.878 181.886 263.845 181.886C263.812 181.886 263.779 181.877 263.751 181.858L263.697 181.828C263.668 181.812 263.643 181.788 263.626 181.759C263.609 181.729 263.6 181.695 263.6 181.66V181.597H263.301V181.66C263.301 181.695 263.291 181.729 263.274 181.759C263.256 181.789 263.23 181.813 263.2 181.828L263.15 181.858C263.122 181.877 263.09 181.886 263.056 181.886C263.023 181.886 262.991 181.877 262.963 181.858L262.909 181.825L262.758 182.094L262.812 182.128C262.84 182.145 262.864 182.17 262.88 182.2C262.896 182.231 262.903 182.265 262.902 182.3V182.359C262.903 182.394 262.896 182.428 262.88 182.459C262.864 182.489 262.84 182.514 262.812 182.532L262.758 182.565L262.909 182.834L262.963 182.801C262.991 182.783 263.023 182.773 263.056 182.773C263.09 182.773 263.122 182.783 263.15 182.801L263.2 182.831C263.23 182.846 263.256 182.871 263.274 182.9C263.291 182.93 263.301 182.964 263.301 182.999L263.305 183.063ZM263.452 182.778C263.366 182.778 263.281 182.75 263.209 182.7C263.138 182.649 263.082 182.578 263.049 182.494C263.017 182.411 263.008 182.319 263.026 182.231C263.043 182.143 263.085 182.062 263.147 181.998C263.208 181.935 263.287 181.892 263.372 181.874C263.457 181.857 263.545 181.866 263.625 181.901C263.705 181.936 263.773 181.994 263.821 182.069C263.87 182.144 263.895 182.232 263.895 182.322C263.896 182.383 263.885 182.443 263.864 182.5C263.842 182.556 263.809 182.608 263.768 182.651C263.727 182.694 263.677 182.728 263.623 182.752C263.569 182.775 263.511 182.786 263.452 182.786V182.778ZM263.452 182.03C263.395 182.031 263.339 182.049 263.291 182.083C263.244 182.117 263.207 182.165 263.186 182.22C263.164 182.275 263.159 182.336 263.171 182.395C263.182 182.453 263.21 182.507 263.251 182.549C263.292 182.591 263.344 182.619 263.4 182.631C263.457 182.642 263.515 182.636 263.568 182.613C263.622 182.59 263.667 182.551 263.699 182.501C263.731 182.451 263.748 182.393 263.748 182.333C263.748 182.293 263.741 182.253 263.726 182.215C263.712 182.178 263.69 182.144 263.662 182.115C263.635 182.087 263.602 182.064 263.566 182.049C263.53 182.034 263.491 182.026 263.452 182.027V182.03Z" fill="white"/>
<path d="M244.095 179.125L244.052 179.173L244.023 179.199C243.965 179.139 243.896 179.09 243.82 179.058C243.744 179.025 243.663 179.008 243.581 179.009C243.415 179.009 243.255 179.078 243.138 179.199L243.113 179.173L243.069 179.125L243.127 179.072C243.169 179.037 243.215 179.007 243.264 178.983C243.32 178.953 243.379 178.932 243.44 178.919H243.53H243.667C243.724 178.925 243.779 178.939 243.833 178.96L243.944 179.012C243.981 179.035 244.016 179.062 244.049 179.091L244.095 179.136V179.125Z" fill="white"/>
<path d="M243.286 179.349L243.21 179.274C243.308 179.172 243.442 179.115 243.581 179.115C243.72 179.115 243.853 179.172 243.952 179.274L243.88 179.349C243.801 179.268 243.694 179.222 243.583 179.222C243.471 179.222 243.364 179.268 243.286 179.349Z" fill="white"/>
<path d="M243.8 179.424L243.728 179.503C243.708 179.482 243.684 179.464 243.657 179.453C243.631 179.441 243.602 179.435 243.573 179.436C243.545 179.436 243.517 179.442 243.491 179.453C243.465 179.465 243.442 179.482 243.422 179.503C243.397 179.477 243.375 179.451 243.35 179.428C243.379 179.396 243.414 179.371 243.452 179.354C243.491 179.336 243.532 179.327 243.574 179.327C243.616 179.326 243.658 179.335 243.697 179.352C243.735 179.368 243.771 179.393 243.8 179.424Z" fill="white"/>
<path d="M243.646 179.57C243.646 179.584 243.642 179.597 243.635 179.608C243.628 179.619 243.617 179.628 243.606 179.633C243.594 179.638 243.581 179.639 243.568 179.636C243.555 179.634 243.544 179.627 243.535 179.618C243.526 179.609 243.519 179.596 243.517 179.583C243.514 179.57 243.516 179.557 243.521 179.544C243.526 179.532 243.534 179.521 243.545 179.514C243.555 179.506 243.568 179.502 243.581 179.502C243.598 179.502 243.614 179.51 243.627 179.522C243.639 179.535 243.646 179.552 243.646 179.57Z" fill="white"/>
<path d="M239.613 179.27C239.613 179.245 239.617 179.219 239.627 179.195C239.636 179.171 239.649 179.149 239.667 179.131C239.684 179.112 239.705 179.097 239.728 179.087C239.751 179.077 239.776 179.072 239.801 179.072C239.851 179.072 239.9 179.093 239.935 179.13C239.971 179.167 239.991 179.218 239.991 179.27C239.991 179.296 239.986 179.322 239.977 179.346C239.967 179.37 239.953 179.391 239.935 179.409C239.917 179.427 239.896 179.442 239.873 179.451C239.85 179.461 239.825 179.465 239.801 179.465C239.751 179.465 239.703 179.444 239.668 179.408C239.633 179.372 239.613 179.322 239.613 179.27Z" fill="white"/>
<path d="M240.2 179.27C240.2 179.244 240.205 179.219 240.214 179.195C240.224 179.171 240.238 179.149 240.256 179.13C240.273 179.112 240.294 179.097 240.317 179.087C240.341 179.077 240.365 179.072 240.391 179.072C240.416 179.072 240.44 179.077 240.464 179.087C240.487 179.097 240.508 179.112 240.525 179.13C240.543 179.149 240.557 179.171 240.567 179.195C240.576 179.219 240.581 179.244 240.581 179.27C240.581 179.323 240.561 179.373 240.525 179.411C240.49 179.448 240.441 179.469 240.391 179.469C240.34 179.469 240.291 179.448 240.256 179.411C240.22 179.373 240.2 179.323 240.2 179.27Z" fill="white"/>
<path d="M240.995 179.469C241.101 179.469 241.186 179.38 241.186 179.27C241.186 179.161 241.101 179.072 240.995 179.072C240.89 179.072 240.805 179.161 240.805 179.27C240.805 179.38 240.89 179.469 240.995 179.469Z" fill="white"/>
<path d="M241.402 179.27C241.402 179.245 241.406 179.219 241.416 179.195C241.425 179.171 241.438 179.149 241.456 179.131C241.473 179.112 241.494 179.097 241.517 179.087C241.54 179.077 241.565 179.072 241.59 179.072C241.64 179.072 241.689 179.093 241.724 179.13C241.76 179.167 241.78 179.218 241.78 179.27C241.78 179.296 241.775 179.322 241.766 179.346C241.756 179.37 241.742 179.391 241.724 179.409C241.707 179.427 241.685 179.442 241.662 179.451C241.639 179.461 241.614 179.465 241.59 179.465C241.54 179.465 241.492 179.444 241.457 179.408C241.422 179.372 241.402 179.322 241.402 179.27Z" fill="white"/>
<path d="M242 179.27C242 179.245 242.004 179.219 242.013 179.195C242.022 179.171 242.036 179.149 242.054 179.131C242.071 179.112 242.092 179.097 242.115 179.087C242.138 179.077 242.162 179.072 242.187 179.072C242.238 179.072 242.286 179.093 242.322 179.13C242.358 179.167 242.378 179.218 242.378 179.27C242.378 179.296 242.373 179.322 242.363 179.346C242.354 179.37 242.34 179.391 242.322 179.409C242.304 179.427 242.283 179.442 242.26 179.451C242.237 179.461 242.212 179.465 242.187 179.465C242.138 179.465 242.09 179.444 242.055 179.408C242.02 179.372 242 179.322 242 179.27Z" fill="white"/>
<path d="M264.183 179.697H262.646V178.949H264.183V179.697ZM262.722 179.618H264.111V179.035H262.722V179.618Z" fill="white"/>
<path d="M263.766 179.083H262.772V179.573H263.766V179.083Z" fill="white"/>
<path d="M264.323 179.128H264.187V179.525H264.323V179.128Z" fill="white"/>
<path d="M242.09 233.504H241.874V234.54H241.467V234.012H240.747V234.54H240.344V233.504H240.125L241.107 232.445L242.09 233.504Z" fill="#EBEBEB"/>
<path d="M263.953 232.449H261.584V232.801H263.953V232.449Z" fill="#EBEBEB"/>
<path d="M263.953 233.317H261.584V233.669H263.953V233.317Z" fill="#EBEBEB"/>
<path d="M263.953 234.188H261.584V234.54H263.953V234.188Z" fill="#EBEBEB"/>
<path d="M237.741 203.756H266.333V185.079H237.741V203.756Z" fill="#FFA300"/>
<path opacity="0.6" d="M237.741 203.756H266.333V185.079H237.741V203.756Z" fill="white"/>
<path d="M250.431 199.732H266.332L258.384 189.679L250.431 199.732Z" fill="#FFA300"/>
<path opacity="0.1" d="M250.431 199.732H266.332L258.384 189.679L250.431 199.732Z" fill="black"/>
<path d="M244.203 199.743H257.332L250.766 193.194L244.203 199.743Z" fill="#FFA300"/>
<path d="M266.332 199.732H237.741V203.756H266.332V199.732Z" fill="#FFA300"/>
<path d="M243.112 192.499C244.234 192.499 245.143 191.554 245.143 190.389C245.143 189.224 244.234 188.28 243.112 188.28C241.991 188.28 241.082 189.224 241.082 190.389C241.082 191.554 241.991 192.499 243.112 192.499Z" fill="#FFA300"/>
<path d="M263.791 205.963H240.283V208.88H263.791V205.963Z" fill="#FFA300"/>
<path d="M263.791 209.938H240.283V210.926H263.791V209.938Z" fill="#DBDBDB"/>
<path d="M263.791 211.98H240.283V212.968H263.791V211.98Z" fill="#DBDBDB"/>
<path d="M263.791 214.022H240.283V215.01H263.791V214.022Z" fill="#DBDBDB"/>
<path d="M256.389 216.061H240.283V217.048H256.389V216.061Z" fill="#DBDBDB"/>
<path d="M260.328 221.966H240.283V222.714H260.328V221.966Z" fill="#A6A6A6"/>
<path d="M263.791 223.518H240.283V224.266H263.791V223.518Z" fill="#DBDBDB"/>
<path d="M263.791 225.066H240.283V225.814H263.791V225.066Z" fill="#DBDBDB"/>
<path d="M263.791 226.619H240.283V227.367H263.791V226.619Z" fill="#DBDBDB"/>
<path d="M263.791 228.171H240.283V228.919H263.791V228.171Z" fill="#DBDBDB"/>
<path d="M253.146 229.719H240.283V230.467H253.146V229.719Z" fill="#DBDBDB"/>
<path d="M263.791 218.997H240.283V221.199H263.791V218.997Z" fill="#FFA300"/>
<path d="M140.858 180.104V234.263C140.849 235.431 140.393 236.547 139.592 237.366C138.791 238.185 137.709 238.641 136.585 238.632H54.6669C53.5428 238.64 52.4614 238.184 51.6597 237.365C50.8581 236.547 50.4015 235.431 50.3901 234.263V180.104C50.3948 179.526 50.5092 178.954 50.7267 178.421C50.9442 177.888 51.2605 177.406 51.6576 177C52.0548 176.594 52.525 176.274 53.0413 176.057C53.5576 175.84 54.11 175.731 54.6669 175.736H136.585C137.142 175.731 137.694 175.84 138.21 176.057C138.726 176.274 139.196 176.594 139.593 177C139.99 177.406 140.306 177.889 140.523 178.421C140.74 178.954 140.854 179.526 140.858 180.104Z" fill="#455A64"/>
<path d="M134.648 178.395H56.7803V235.905H134.648V178.395Z" fill="white"/>
<path d="M106.914 231.417H130.011V214.613H106.914V231.417Z" fill="#EBEBEB"/>
<path d="M109.614 219.389C109.614 219.783 109.726 220.167 109.937 220.495C110.147 220.822 110.446 221.077 110.796 221.227C111.146 221.378 111.531 221.417 111.903 221.341C112.274 221.264 112.615 221.074 112.883 220.796C113.151 220.518 113.333 220.163 113.407 219.777C113.481 219.391 113.443 218.991 113.298 218.628C113.153 218.264 112.908 217.953 112.593 217.735C112.278 217.516 111.908 217.399 111.529 217.399C111.021 217.399 110.534 217.609 110.175 217.982C109.816 218.355 109.614 218.861 109.614 219.389Z" fill="#DBDBDB"/>
<path d="M117.17 227.793H130.015L123.592 218.75L117.17 227.793Z" fill="#C7C7C7"/>
<path d="M112.137 227.8H122.743L117.44 221.914L112.137 227.8Z" fill="#DBDBDB"/>
<path d="M130.015 227.793H106.917V231.413H130.015V227.793Z" fill="#DBDBDB"/>
<path d="M130.015 182.404H98.936V188.542H130.015V182.404Z" fill="#FFA300"/>
<path d="M130.015 190.875H98.936V191.736H130.015V190.875Z" fill="#DBDBDB"/>
<path d="M130.015 192.895H98.936V193.755H130.015V192.895Z" fill="#DBDBDB"/>
<path d="M130.015 194.918H98.936V195.779H130.015V194.918Z" fill="#DBDBDB"/>
<path d="M130.015 196.938H98.936V197.798H130.015V196.938Z" fill="#DBDBDB"/>
<path d="M130.015 198.958H98.936V199.818H130.015V198.958Z" fill="#DBDBDB"/>
<path d="M130.015 200.977H98.936V201.837H130.015V200.977Z" fill="#DBDBDB"/>
<path d="M116.803 203H98.936V203.861H116.803V203Z" fill="#DBDBDB"/>
<path d="M103.627 226.735H72.5483V227.595H103.627V226.735Z" fill="#DBDBDB"/>
<path d="M103.627 214.609H72.5483V215.47H103.627V214.609Z" fill="#DBDBDB"/>
<path d="M103.627 216.633H72.5483V217.493H103.627V216.633Z" fill="#DBDBDB"/>
<path d="M103.627 218.652H72.5483V219.513H103.627V218.652Z" fill="#DBDBDB"/>
<path d="M93.7451 220.672H72.5483V221.532H93.7451V220.672Z" fill="#DBDBDB"/>
<path d="M103.627 224.715H72.5483V225.575H103.627V224.715Z" fill="#DBDBDB"/>
<path d="M93.7451 228.754H72.5483V229.614H93.7451V228.754Z" fill="#DBDBDB"/>
<path d="M130.015 210.342H61.4097V212.373H130.015V210.342Z" fill="#455A64"/>
<path d="M70.2909 214.609H61.4097V231.413H70.2909V214.609Z" fill="#FFA300"/>
<path d="M106.914 231.417H130.011V214.613H106.914V231.417Z" fill="#FFA300"/>
<path opacity="0.6" d="M106.914 231.417H130.011V214.613H106.914V231.417Z" fill="white"/>
<path d="M109.495 219.082C109.495 219.476 109.607 219.861 109.818 220.188C110.028 220.515 110.327 220.77 110.677 220.921C111.027 221.071 111.412 221.111 111.784 221.034C112.155 220.957 112.497 220.768 112.765 220.489C113.032 220.211 113.215 219.857 113.289 219.471C113.363 219.085 113.325 218.685 113.18 218.321C113.035 217.957 112.789 217.647 112.474 217.428C112.159 217.209 111.789 217.093 111.41 217.093C110.902 217.093 110.415 217.302 110.056 217.676C109.697 218.049 109.495 218.555 109.495 219.082Z" fill="#FFA300"/>
<path d="M117.17 227.793H130.015L123.592 218.75L117.17 227.793Z" fill="#FFA300"/>
<path opacity="0.1" d="M117.17 227.793H130.015L123.592 218.75L117.17 227.793Z" fill="black"/>
<path d="M112.137 227.8H122.743L117.44 221.914L112.137 227.8Z" fill="#FFA300"/>
<path d="M130.019 227.793H106.917V231.413H130.019V227.793Z" fill="#FFA300"/>
<path d="M61.4136 207.537H95.9556V182.404H61.4136V207.537Z" fill="#FFA300"/>
<path opacity="0.6" d="M61.4136 207.537H95.9556V182.404H61.4136V207.537Z" fill="white"/>
<path d="M65.4487 189.548C65.4487 190.136 65.6166 190.711 65.9311 191.2C66.2455 191.689 66.6925 192.07 67.2155 192.295C67.7385 192.52 68.3139 192.579 68.8691 192.464C69.4242 192.349 69.9342 192.066 70.3345 191.65C70.7347 191.235 71.0073 190.705 71.1177 190.128C71.2282 189.551 71.1715 188.953 70.9549 188.41C70.7383 187.867 70.3714 187.403 69.9008 187.076C69.4301 186.749 68.8768 186.575 68.3107 186.575C67.5531 186.58 66.8279 186.894 66.2922 187.451C65.7565 188.008 65.4535 188.761 65.4487 189.548Z" fill="#FFA300"/>
<path d="M76.7456 202.121H95.9552L86.3504 188.598L76.7456 202.121Z" fill="#FFA300"/>
<path opacity="0.1" d="M76.7456 202.121H95.9552L86.3504 188.598L76.7456 202.121Z" fill="black"/>
<path d="M69.2217 202.133H85.0797L77.1489 193.325L69.2217 202.133Z" fill="#FFA300"/>
<path d="M95.9517 202.122H61.4097V207.537H95.9517V202.122Z" fill="#FFA300"/>
<path d="M54.1811 200.345H54.0623C53.8356 200.345 53.6519 200.536 53.6519 200.772V213.604C53.6519 213.839 53.8356 214.03 54.0623 214.03H54.1811C54.4077 214.03 54.5915 213.839 54.5915 213.604V200.772C54.5915 200.536 54.4077 200.345 54.1811 200.345Z" fill="#263238"/>
<path d="M139.76 207.189C139.76 207.54 139.66 207.883 139.472 208.174C139.285 208.466 139.018 208.693 138.707 208.827C138.395 208.961 138.052 208.996 137.721 208.928C137.39 208.86 137.086 208.691 136.847 208.443C136.608 208.195 136.446 207.879 136.38 207.535C136.314 207.191 136.348 206.835 136.477 206.511C136.606 206.187 136.825 205.91 137.106 205.715C137.386 205.52 137.716 205.417 138.054 205.417C138.506 205.417 138.94 205.603 139.26 205.936C139.58 206.268 139.76 206.719 139.76 207.189Z" fill="#263238"/>
<path d="M72.9043 308.24H72.8083C69.6403 308.24 67.4323 306.512 67.4323 302.384V297.248C67.4323 293.12 69.6403 291.392 72.8083 291.392H72.9043C76.1203 291.392 78.2803 293.144 78.2803 297.224H76.5043C76.5043 294.104 75.2563 293.024 72.9043 293.024H72.8083C70.4323 293.024 69.2083 294.104 69.2083 297.2V302.384C69.2083 305.528 70.4323 306.608 72.8083 306.608H72.9043C75.2563 306.608 76.5043 305.528 76.5043 302.384H78.2803C78.2803 306.488 76.1203 308.24 72.9043 308.24ZM93.0069 297.92H90.1749C87.8229 297.92 86.7909 299.168 86.7909 301.232V306.392H91.5189V308H81.9909V306.392H85.0389V297.896H81.9909V296.288H86.6469L86.7909 298.496H87.0309C87.5349 297.128 88.3989 296.288 90.3429 296.288H93.0069V297.92ZM106.798 301.592V302.6H98.2535V302.696C98.2535 305.552 99.5495 306.632 101.59 306.632H101.71C103.222 306.632 104.35 306.056 104.854 304.664H106.606C105.982 307.112 104.134 308.24 101.71 308.24H101.59C98.5415 308.24 96.5015 306.512 96.5015 302.696V301.592C96.5015 297.752 98.5655 296.048 101.59 296.048H101.71C104.758 296.048 106.798 297.776 106.798 301.592ZM101.71 297.656H101.59C99.6455 297.656 98.3735 298.64 98.2535 301.184H105.046C104.926 298.64 103.654 297.656 101.71 297.656ZM120.276 300.752V306.392H122.364V308H118.716L118.572 305.648H118.308C117.756 306.896 116.268 308.24 113.964 308.24H113.868C112.236 308.24 110.46 307.328 110.46 305.168V305.024C110.46 303.008 112.044 302.096 114.756 301.76L118.548 301.28V300.68C118.548 298.688 117.78 297.632 115.788 297.632H115.692C113.916 297.632 112.884 298.472 112.692 300.344H110.844C111.108 297.56 112.908 296.048 115.764 296.048H115.812C118.98 296.048 120.276 297.752 120.276 300.752ZM114.132 306.68H114.228C116.196 306.68 118.548 305.48 118.548 302.72V302.672L114.996 303.104C113.004 303.344 112.188 303.872 112.188 304.976V305.12C112.188 306.104 112.932 306.68 114.132 306.68ZM135.579 296.288V297.896H129.987V305.72C129.987 306.2 130.203 306.392 130.587 306.392H135.579V308H130.971C129.171 308 128.211 306.824 128.211 305.096V297.896H124.227V296.288H128.211V293.432L129.987 293.288V296.288H135.579ZM149.969 301.592V302.6H141.425V302.696C141.425 305.552 142.721 306.632 144.761 306.632H144.881C146.393 306.632 147.521 306.056 148.025 304.664H149.777C149.153 307.112 147.305 308.24 144.881 308.24H144.761C141.713 308.24 139.673 306.512 139.673 302.696V301.592C139.673 297.752 141.737 296.048 144.761 296.048H144.881C147.929 296.048 149.969 297.776 149.969 301.592ZM144.881 297.656H144.761C142.817 297.656 141.545 298.64 141.425 301.184H148.217C148.097 298.64 146.825 297.656 144.881 297.656ZM177.839 300.752V306.392H179.927V308H176.279L176.135 305.648H175.871C175.319 306.896 173.831 308.24 171.527 308.24H171.431C169.799 308.24 168.023 307.328 168.023 305.168V305.024C168.023 303.008 169.607 302.096 172.319 301.76L176.111 301.28V300.68C176.111 298.688 175.343 297.632 173.351 297.632H173.255C171.479 297.632 170.447 298.472 170.255 300.344H168.407C168.671 297.56 170.471 296.048 173.327 296.048H173.375C176.543 296.048 177.839 297.752 177.839 300.752ZM171.695 306.68H171.791C173.759 306.68 176.111 305.48 176.111 302.72V302.672L172.559 303.104C170.567 303.344 169.751 303.872 169.751 304.976V305.12C169.751 306.104 170.495 306.68 171.695 306.68ZM199.252 308H197.476V296.288H199.252V298.208H199.468C200.044 296.888 201.436 296.048 203.116 296.048H203.212C205.876 296.048 207.268 297.704 207.268 300.92V308H205.492V300.992C205.492 298.592 204.532 297.704 202.828 297.704H202.732C200.884 297.704 199.252 298.736 199.252 301.208V308ZM221.923 301.592V302.6H213.379V302.696C213.379 305.552 214.675 306.632 216.715 306.632H216.835C218.347 306.632 219.475 306.056 219.979 304.664H221.731C221.107 307.112 219.259 308.24 216.835 308.24H216.715C213.667 308.24 211.627 306.512 211.627 302.696V301.592C211.627 297.752 213.691 296.048 216.715 296.048H216.835C219.883 296.048 221.923 297.776 221.923 301.592ZM216.835 297.656H216.715C214.771 297.656 213.499 298.64 213.379 301.184H220.171C220.051 298.64 218.779 297.656 216.835 297.656ZM229.161 308H226.737L224.697 296.288H226.305L227.841 306.368H228.057L230.169 296.288H232.113L234.201 306.368H234.441L235.953 296.288H237.585L235.521 308H233.145L231.249 298.592H231.033L229.161 308ZM37.5997 344.24H37.5277C35.7517 344.24 34.5517 343.304 33.9757 342.008H33.7357V348.656H31.9837V332.288H33.7597V334.208H33.9997C34.5757 332.96 35.7997 332.048 37.5757 332.048H37.6717C40.1197 332.048 42.0397 333.776 42.0397 337.568V338.696C42.0397 342.488 40.1197 344.24 37.5997 344.24ZM37.0717 342.584H37.1677C38.9677 342.584 40.2637 341.528 40.2637 338.6V337.616C40.2637 334.712 38.9677 333.704 37.1677 333.704H37.0717C35.3197 333.704 33.7597 334.76 33.7597 337.616V338.6C33.7597 341.576 35.3197 342.584 37.0717 342.584ZM57.0303 333.92H54.1983C51.8463 333.92 50.8143 335.168 50.8143 337.232V342.392H55.5423V344H46.0143V342.392H49.0623V333.896H46.0143V332.288H50.6703L50.8143 334.496H51.0543C51.5583 333.128 52.4223 332.288 54.3663 332.288H57.0303V333.92ZM65.7329 344.24H65.6129C62.5649 344.24 60.5249 342.512 60.5249 338.696V337.592C60.5249 333.752 62.5889 332.048 65.6129 332.048H65.7329C68.7809 332.048 70.8209 333.776 70.8209 337.592V338.696C70.8209 342.536 68.7569 344.24 65.7329 344.24ZM65.6129 342.632H65.7329C67.7729 342.632 69.0689 341.552 69.0689 338.696V337.592C69.0689 334.736 67.7729 333.656 65.7329 333.656H65.6129C63.5729 333.656 62.2769 334.736 62.2769 337.592V338.696C62.2769 341.552 63.5729 342.632 65.6129 342.632ZM80.9636 329.36V326.528H83.8436V329.36H80.9636ZM74.9876 333.896V332.288H83.3156V345.752C83.3156 347.48 82.3796 348.656 80.5556 348.656H74.9876V347.048H80.9876C81.3236 347.048 81.5156 346.856 81.5156 346.472V333.896H74.9876ZM99.6022 337.592V338.6H91.0582V338.696C91.0582 341.552 92.3542 342.632 94.3942 342.632H94.5142C96.0262 342.632 97.1542 342.056 97.6582 340.664H99.4102C98.7862 343.112 96.9382 344.24 94.5142 344.24H94.3942C91.3462 344.24 89.3062 342.512 89.3062 338.696V337.592C89.3062 333.752 91.3702 332.048 94.3942 332.048H94.5142C97.5622 332.048 99.6022 333.776 99.6022 337.592ZM94.5142 333.656H94.3942C92.4502 333.656 91.1782 334.64 91.0582 337.184H97.8502C97.7302 334.64 96.4582 333.656 94.5142 333.656ZM108.905 344.24H108.785C105.737 344.24 103.697 342.512 103.697 338.696V337.592C103.697 333.752 105.761 332.048 108.785 332.048H108.905C111.593 332.048 113.609 333.392 113.849 336.296H112.073C111.857 334.4 110.633 333.656 108.905 333.656H108.785C106.745 333.656 105.449 334.736 105.449 337.592V338.696C105.449 341.552 106.745 342.632 108.785 342.632H108.905C110.609 342.632 111.881 341.888 112.073 339.992H113.849C113.609 342.896 111.593 344.24 108.905 344.24ZM128.383 332.288V333.896H122.791V341.72C122.791 342.2 123.007 342.392 123.391 342.392H128.383V344H123.775C121.975 344 121.015 342.824 121.015 341.096V333.896H117.031V332.288H121.015V329.432L122.791 329.288V332.288H128.383ZM137.878 344.24H137.758C134.374 344.24 132.67 342.728 132.574 340.136H134.326C134.398 341.744 135.166 342.704 137.758 342.704H137.878C140.158 342.704 140.95 341.936 140.95 340.808C140.95 339.392 139.486 339.104 137.566 338.72C135.214 338.24 132.886 337.76 132.886 335.336C132.886 333.368 134.518 332.048 137.35 332.048H137.47C140.566 332.048 142.246 333.512 142.342 336.056H140.59C140.518 334.496 139.75 333.56 137.494 333.56H137.35C135.406 333.56 134.59 334.304 134.59 335.312C134.59 336.656 135.982 336.944 137.878 337.304C140.254 337.76 142.654 338.24 142.654 340.784C142.654 342.944 140.83 344.24 137.878 344.24ZM149.413 347.312H147.709L154.573 325.52H156.277L149.413 347.312ZM166.659 344.24H166.539C163.155 344.24 161.451 342.728 161.355 340.136H163.107C163.179 341.744 163.947 342.704 166.539 342.704H166.659C168.939 342.704 169.731 341.936 169.731 340.808C169.731 339.392 168.267 339.104 166.347 338.72C163.995 338.24 161.667 337.76 161.667 335.336C161.667 333.368 163.299 332.048 166.131 332.048H166.251C169.347 332.048 171.027 333.512 171.123 336.056H169.371C169.299 334.496 168.531 333.56 166.275 333.56H166.131C164.187 333.56 163.371 334.304 163.371 335.312C163.371 336.656 164.763 336.944 166.659 337.304C169.035 337.76 171.435 338.24 171.435 340.784C171.435 342.944 169.611 344.24 166.659 344.24ZM185.946 337.592V338.6H177.402V338.696C177.402 341.552 178.698 342.632 180.738 342.632H180.858C182.37 342.632 183.498 342.056 184.002 340.664H185.754C185.13 343.112 183.282 344.24 180.858 344.24H180.738C177.69 344.24 175.65 342.512 175.65 338.696V337.592C175.65 333.752 177.714 332.048 180.738 332.048H180.858C183.906 332.048 185.946 333.776 185.946 337.592ZM180.858 333.656H180.738C178.794 333.656 177.522 334.64 177.402 337.184H184.194C184.074 334.64 182.802 333.656 180.858 333.656ZM200.937 333.92H198.105C195.753 333.92 194.721 335.168 194.721 337.232V342.392H199.449V344H189.921V342.392H192.969V333.896H189.921V332.288H194.577L194.721 334.496H194.961C195.465 333.128 196.329 332.288 198.273 332.288H200.937V333.92ZM210.839 344H208.295L203.879 332.288H205.727L209.447 342.368H209.711L213.407 332.288H215.255L210.839 344ZM223.19 326.528H226.07V329.36H223.19V326.528ZM226.118 342.392H230.15V344H226.502C224.702 344 223.742 342.824 223.742 341.096V333.896H219.11V332.288H225.518V341.72C225.518 342.2 225.71 342.392 226.118 342.392ZM238.42 344.24H238.3C235.252 344.24 233.212 342.512 233.212 338.696V337.592C233.212 333.752 235.276 332.048 238.3 332.048H238.42C241.108 332.048 243.124 333.392 243.364 336.296H241.588C241.372 334.4 240.148 333.656 238.42 333.656H238.3C236.26 333.656 234.964 334.736 234.964 337.592V338.696C234.964 341.552 236.26 342.632 238.3 342.632H238.42C240.124 342.632 241.396 341.888 241.588 339.992H243.364C243.124 342.896 241.108 344.24 238.42 344.24ZM257.899 337.592V338.6H249.355V338.696C249.355 341.552 250.651 342.632 252.691 342.632H252.811C254.323 342.632 255.451 342.056 255.955 340.664H257.707C257.083 343.112 255.235 344.24 252.811 344.24H252.691C249.643 344.24 247.603 342.512 247.603 338.696V337.592C247.603 333.752 249.667 332.048 252.691 332.048H252.811C255.859 332.048 257.899 333.776 257.899 337.592ZM252.811 333.656H252.691C250.747 333.656 249.475 334.64 249.355 337.184H256.147C256.027 334.64 254.755 333.656 252.811 333.656ZM267.394 344.24H267.274C263.89 344.24 262.186 342.728 262.09 340.136H263.842C263.914 341.744 264.682 342.704 267.274 342.704H267.394C269.674 342.704 270.466 341.936 270.466 340.808C270.466 339.392 269.002 339.104 267.082 338.72C264.73 338.24 262.402 337.76 262.402 335.336C262.402 333.368 264.034 332.048 266.866 332.048H266.986C270.082 332.048 271.762 333.512 271.858 336.056H270.106C270.034 334.496 269.266 333.56 267.01 333.56H266.866C264.922 333.56 264.106 334.304 264.106 335.312C264.106 336.656 265.498 336.944 267.394 337.304C269.77 337.76 272.17 338.24 272.17 340.784C272.17 342.944 270.346 344.24 267.394 344.24Z" fill="#F7F7F7"/>
</svg>
